{
.appVersion = "1043";
DisplayStrings = (
"HOIHCO/N.ss01/U.ss01/Placeholder SI/Placeholder E\012HHDE/Placeholder HEII/Placeholder III"
);
classes = (
{
automatic = 1;

glyphs = (
{
color = 4;
glyphname = A;
layers = (
{
anchors = (
{
name = bottom;
position = "{335, 0}";
},
{
name = ogonek;
position = "{670, 0}";
},
{
name = top;
position = "{335, 700}";
},
{
name = topleft;
position = "{97, 700}";
}
);
background = {
paths = (
{
closed = 1;
nodes = (
"0 0 LINE",
"23 0 LINE",
"340 684 LINE",
"330 684 LINE",
"647 0 LINE",
"670 0 LINE",
"345 700 LINE",
"325 700 LINE"
);
},
{
closed = 1;
nodes = (
"103 192 LINE",
"569 192 LINE",
"559 211 LINE",
"113 211 LINE"
);
}
);
};
layerId = UUID0;
paths = (
{
closed = 1;
nodes = (
"0 0 LINE",
"23 0 LINE",
"340 684 LINE",
"330 684 LINE",
"647 0 LINE",
"670 0 LINE",
"345 700 LINE",
"325 700 LINE"
);
},
{
closed = 1;
nodes = (
"97 187 LINE",
"572 187 LINE",
"562 206 LINE",
"107 206 LINE"
);
}
);
width = 670;
},
{
anchors = (
{
name = bottom;
position = "{386, 0}";
},
{
name = ogonek;
position = "{722, 0}";
},
{
name = top;
position = "{405, 700}";
},
{
name = topleft;
position = "{123, 701}";
}
);
background = {
paths = (
{
closed = 1;
nodes = (
"-17 0 LINE",
"223 0 LINE",
"451 579 LINE",
"355 579 LINE",
"583 0 LINE",
"827 0 LINE",
"521 700 LINE",
"289 700 LINE"
);
},
{
closed = 1;
nodes = (
"165 102 LINE",
"607 102 LINE",
"547 272 LINE",
"225 272 LINE"
);
}
);
};
guideLines = (
{
angle = 245.556;
position = "{236, 56}";
}
);
layerId = "5DA6E103-6A94-47F2-987D-4952DB8EA68E";
paths = (
{
closed = 1;
nodes = (
"-17 0 LINE",
"223 0 LINE",
"449 588 LINE",
"357 588 LINE",
"583 0 LINE",
"827 0 LINE",
"521 700 LINE",
"289 700 LINE"
);
},
{
closed = 1;
nodes = (
"165 102 LINE",
"607 102 LINE",
"547 272 LINE",
"225 272 LINE"
);
}
);
width = 810;
}
);
leftKerningGroup = A;
rightKerningGroup = A;
rightMetricsKey = "=|";
unicode = 0041;
},
{
color = 4;
glyphname = AE;
layers = (
{
anchors = (
{
name = bottom;
position = "{655, 0}";
},
{
name = ogonek;
position = "{913, 10}";
},
{
name = top;
position = "{471, 700}";
}
);
background = {
paths = (
{
closed = 1;
nodes = (
"461 0 LINE",
"912 0 LINE",
"912 20 LINE",
"481 20 LINE",
"481 350 LINE",
"852 350 LINE",
"852 370 LINE",
"481 370 LINE",
"481 680 LINE",
"898 680 LINE",
"898 700 LINE",
"461 700 LINE"
);
},
{
closed = 1;
nodes = (
"0 0 LINE",
"24 0 LINE",
"432 680 LINE",
"523 680 LINE",
"523 700 LINE",
"421 700 LINE"
);
},
{
closed = 1;
nodes = (
"146 223 LINE",
"476 223 LINE",
"477 243 LINE",
"147 243 LINE"
);
},
{
closed = 1;
nodes = (
"0 0 LINE",
"23 0 LINE",
"340 684 LINE",
"330 684 LINE",
"647 0 LINE",
"670 0 LINE",
"345 700 LINE",
"325 700 LINE"
);
},
{
closed = 1;
nodes = (
"103 187 LINE",
"569 187 LINE",
"559 206 LINE",
"113 206 LINE"
);
}
);
};
layerId = UUID0;
paths = (
{
closed = 1;
nodes = (
"23 0 LINE",
"458 685 LINE",
"444 681 LINE",
"466 681 LINE",
"466 700 LINE",
"445 700 LINE",
"0 0 LINE"
);
},
{
closed = 1;
nodes = (
"466 187 LINE",
"466 206 LINE",
"144 206 LINE",
"134 187 LINE"
);
},
{
closed = 1;
nodes = (
"927 0 LINE",
"927 19 LINE",
"481 19 LINE",
"481 346 LINE",
"867 346 LINE",
"867 365 LINE",
"481 365 LINE",
"481 681 LINE",
"912 681 LINE",
"912 700 LINE",
"461 700 LINE",
"461 0 LINE"
);
}
);
width = 992;
},
{
anchors = (
{
name = bottom;
position = "{806, 0}";
},
{
name = ogonek;
position = "{1099, 10}";
},
{
name = top;
position = "{621, 700}";
}
);
background = {
paths = (
{
closed = 1;
nodes = (
"228 0 LINE",
"488 525 LINE",
"648 525 LINE",
"648 701 LINE",
"378 701 LINE",
"-12 0 LINE"
);
},
{
closed = 1;
nodes = (
"621 122 LINE",
"626 288 LINE",
"223 288 LINE",
"218 122 LINE"
);
},
{
closed = 1;
nodes = (
"1107 0 LINE",
"1107 176 LINE",
"737 176 LINE",
"737 263 LINE",
"1065 263 LINE",
"1065 439 LINE",
"737 439 LINE",
"737 525 LINE",
"1098 525 LINE",
"1098 701 LINE",
"505 701 LINE",
"505 0 LINE"
);
}
);
};
layerId = "5DA6E103-6A94-47F2-987D-4952DB8EA68E";
paths = (
{
closed = 1;
nodes = (
"223 0 LINE",
"529 616 LINE",
"387 522 LINE",
"586 522 LINE",
"586 700 LINE",
"352 700 LINE",
"-17 0 LINE"
);
},
{
closed = 1;
nodes = (
"586 103 LINE",
"586 273 LINE",
"221 273 LINE",
"221 103 LINE"
);
},
{
closed = 1;
nodes = (
"1087 0 LINE",
"1087 178 LINE",
"737 178 LINE",
"737 270 LINE",
"1033 270 LINE",
"1033 440 LINE",
"737 440 LINE",
"737 522 LINE",
"1074 522 LINE",
"1074 700 LINE",
"505 700 LINE",
"505 0 LINE"
);
}
);
width = 1116;
}
);
leftKerningGroup = A;
leftMetricsKey = A;
rightKerningGroup = E;
rightMetricsKey = E;
unicode = 00C6;
},
{
color = 4;
glyphname = B;
layers = (
{
background = {
paths = (
{
closed = 1;
nodes = (
"846 700 LINE",
"846 0 LINE",
"1127 0 LINE SMOOTH",
"1286 0 OFFCURVE",
"1377 68 OFFCURVE",
"1377 187 CURVE SMOOTH",
"1377 286 OFFCURVE",
"1313 351 OFFCURVE",
"1202 364 CURVE",
"1290 379 OFFCURVE",
"1340 438 OFFCURVE",
"1340 526 CURVE SMOOTH",
"1340 636 OFFCURVE",
"1262 700 OFFCURVE",
"1127 700 CURVE SMOOTH"
);
},
{
closed = 1;
nodes = (
"866 372 LINE",
"866 680 LINE",
"1127 680 LINE SMOOTH",
"1250 680 OFFCURVE",
"1320 623 OFFCURVE",
"1320 526 CURVE SMOOTH",
"1320 428 OFFCURVE",
"1250 372 OFFCURVE",
"1127 372 CURVE SMOOTH"
);
},
{
closed = 1;
nodes = (
"866 20 LINE",
"866 353 LINE",
"1127 353 LINE SMOOTH",
"1274 353 OFFCURVE",
"1358 293 OFFCURVE",
"1358 188 CURVE SMOOTH",
"1358 81 OFFCURVE",
"1274 20 OFFCURVE",
"1127 20 CURVE SMOOTH"
);
},
{
closed = 1;
nodes = (
"128 700 LINE",
"128 0 LINE",
"428 0 LINE SMOOTH",
"595 0 OFFCURVE",
"678 65 OFFCURVE",
"678 183 CURVE SMOOTH",
"678 301 OFFCURVE",
"595 364 OFFCURVE",
"436 364 CURVE",
"415 350 LINE",
"549 350 OFFCURVE",
"640 406 OFFCURVE",
"640 523 CURVE SMOOTH",
"640 640 OFFCURVE",
"549 700 OFFCURVE",
"408 700 CURVE SMOOTH"
);
},
{
closed = 1;
nodes = (
"148 365 LINE",
"148 681 LINE",
"411 681 LINE SMOOTH",
"542 681 OFFCURVE",
"620 627 OFFCURVE",
"620 523 CURVE SMOOTH",
"620 419 OFFCURVE",
"542 365 OFFCURVE",
"411 365 CURVE SMOOTH"
);
},
{
closed = 1;
nodes = (
"148 19 LINE",
"148 346 LINE",
"431 346 LINE SMOOTH",
"578 346 OFFCURVE",
"658 296 OFFCURVE",
"658 183 CURVE SMOOTH",
"658 70 OFFCURVE",
"578 19 OFFCURVE",
"431 19 CURVE SMOOTH"
);
}
);
};
layerId = UUID0;
paths = (
{
closed = 1;
nodes = (
"128 700 LINE",
"128 0 LINE",
"425 0 LINE SMOOTH",
"595 0 OFFCURVE",
"678 65 OFFCURVE",
"678 183 CURVE SMOOTH",
"678 301 OFFCURVE",
"597 363 OFFCURVE",
"436 363 CURVE",
"419 350 LINE",
"549 350 OFFCURVE",
"640 406 OFFCURVE",
"640 523 CURVE SMOOTH",
"640 640 OFFCURVE",
"549 700 OFFCURVE",
"405 700 CURVE SMOOTH"
);
},
{
closed = 1;
nodes = (
"148 365 LINE",
"148 681 LINE",
"409 681 LINE SMOOTH",
"542 681 OFFCURVE",
"620 627 OFFCURVE",
"620 523 CURVE SMOOTH",
"620 419 OFFCURVE",
"542 365 OFFCURVE",
"409 365 CURVE SMOOTH"
);
},
{
closed = 1;
nodes = (
"148 19 LINE",
"148 346 LINE",
"429 346 LINE SMOOTH",
"578 346 OFFCURVE",
"658 296 OFFCURVE",
"658 183 CURVE SMOOTH",
"658 70 OFFCURVE",
"578 19 OFFCURVE",
"429 19 CURVE SMOOTH"
);
}
);
width = 743;
},
{
background = {
paths = (
{
closed = 1;
nodes = (
"860 700 LINE",
"860 0 LINE",
"1232 0 LINE SMOOTH",
"1403 0 OFFCURVE",
"1514 77 OFFCURVE",
"1514 197 CURVE SMOOTH",
"1514 285 OFFCURVE",
"1459 355 OFFCURVE",
"1375 374 CURVE",
"1447 396 OFFCURVE",
"1493 455 OFFCURVE",
"1493 524 CURVE SMOOTH",
"1493 631 OFFCURVE",
"1384 700 OFFCURVE",
"1215 700 CURVE SMOOTH"
);
},
{
closed = 1;
nodes = (
"1091 431 LINE",
"1091 530 LINE",
"1202 530 LINE SMOOTH",
"1234 530 OFFCURVE",
"1255 512 OFFCURVE",
"1255 482 CURVE SMOOTH",
"1255 451 OFFCURVE",
"1234 431 OFFCURVE",
"1202 431 CURVE SMOOTH"
);
},
{
closed = 1;
nodes = (
"1091 170 LINE",
"1091 277 LINE",
"1202 277 LINE SMOOTH",
"1245 277 OFFCURVE",
"1273 257 OFFCURVE",
"1273 226 CURVE SMOOTH",
"1273 192 OFFCURVE",
"1245 170 OFFCURVE",
"1202 170 CURVE SMOOTH"
);
},
{
closed = 1;
nodes = (
"60 700 LINE",
"60 0 LINE",
"474 0 LINE SMOOTH",
"647 0 OFFCURVE",
"750 71 OFFCURVE",
"750 193 CURVE SMOOTH",
"750 315 OFFCURVE",
"647 387 OFFCURVE",
"484 387 CURVE",
"464 333 LINE",
"627 333 OFFCURVE",
"717 411 OFFCURVE",
"717 517 CURVE SMOOTH",
"717 623 OFFCURVE",
"627 700 OFFCURVE",
"454 700 CURVE SMOOTH"
);
},
{
closed = 1;
nodes = (
"292 431 LINE",
"292 535 LINE",
"412 535 LINE SMOOTH",
"455 535 OFFCURVE",
"479 517 OFFCURVE",
"479 483 CURVE SMOOTH",
"479 449 OFFCURVE",
"455 431 OFFCURVE",
"412 431 CURVE SMOOTH"
);
},
{
closed = 1;
nodes = (
"292 165 LINE",
"292 275 LINE",
"444 275 LINE SMOOTH",
"486 275 OFFCURVE",
"512 256 OFFCURVE",
"512 220 CURVE SMOOTH",
"512 184 OFFCURVE",
"486 165 OFFCURVE",
"444 165 CURVE SMOOTH"
);
}
);
};
layerId = "5DA6E103-6A94-47F2-987D-4952DB8EA68E";
paths = (
{
closed = 1;
nodes = (
"60 700 LINE",
"60 0 LINE",
"454 0 LINE SMOOTH",
"647 0 OFFCURVE",
"750 71 OFFCURVE",
"750 193 CURVE SMOOTH",
"750 315 OFFCURVE",
"647 387 OFFCURVE",
"484 387 CURVE",
"464 333 LINE",
"627 333 OFFCURVE",
"717 411 OFFCURVE",
"717 517 CURVE SMOOTH",
"717 623 OFFCURVE",
"627 700 OFFCURVE",
"434 700 CURVE SMOOTH"
);
},
{
closed = 1;
nodes = (
"292 431 LINE",
"292 535 LINE",
"402 535 LINE SMOOTH",
"455 535 OFFCURVE",
"479 517 OFFCURVE",
"479 483 CURVE SMOOTH",
"479 449 OFFCURVE",
"455 431 OFFCURVE",
"402 431 CURVE SMOOTH"
);
},
{
closed = 1;
nodes = (
"292 165 LINE",
"292 275 LINE",
"434 275 LINE SMOOTH",
"486 275 OFFCURVE",
"512 256 OFFCURVE",
"512 220 CURVE SMOOTH",
"512 184 OFFCURVE",
"486 165 OFFCURVE",
"434 165 CURVE SMOOTH"
);
}
);
width = 770;
}
);
leftKerningGroup = H;
leftMetricsKey = H;
rightKerningGroup = B;
unicode = 0042;
},
{
color = 5;
glyphname = C;
layers = (
{
anchors = (
{
name = bottom;
position = "{397, 0}";
},
{
name = top;
position = "{408, 700}";
}
);
background = {
paths = (
{
closed = 1;
nodes = (
"1347 614 LINE",
"1287 674 OFFCURVE",
"1201 703 OFFCURVE",
"1109 703 CURVE SMOOTH",
"904 703 OFFCURVE",
"750 552 OFFCURVE",
"750 350 CURVE SMOOTH",
"750 148 OFFCURVE",
"904 -3 OFFCURVE",
"1109 -3 CURVE SMOOTH",
"1201 -3 OFFCURVE",
"1287 27 OFFCURVE",
"1347 87 CURVE",
"1335 101 LINE",
"1271 40 OFFCURVE",
"1194 16 OFFCURVE",
"1109 16 CURVE SMOOTH",
"916 16 OFFCURVE",
"770 161 OFFCURVE",
"770 350 CURVE SMOOTH",
"770 539 OFFCURVE",
"916 684 OFFCURVE",
"1109 684 CURVE SMOOTH",
"1194 684 OFFCURVE",
"1271 661 OFFCURVE",
"1335 600 CURVE"
);
},
{
closed = 1;
nodes = (
"204 703 OFFCURVE",
"50 552 OFFCURVE",
"50 350 CURVE SMOOTH",
"50 148 OFFCURVE",
"204 -3 OFFCURVE",
"409 -3 CURVE SMOOTH",
"614 -3 OFFCURVE",
"768 148 OFFCURVE",
"768 350 CURVE SMOOTH",
"768 552 OFFCURVE",
"614 703 OFFCURVE",
"409 703 CURVE SMOOTH"
);
},
{
closed = 1;
nodes = (
"602 684 OFFCURVE",
"748 539 OFFCURVE",
"748 350 CURVE SMOOTH",
"748 161 OFFCURVE",
"602 16 OFFCURVE",
"409 16 CURVE SMOOTH",
"216 16 OFFCURVE",
"70 161 OFFCURVE",
"70 350 CURVE SMOOTH",
"70 539 OFFCURVE",
"216 684 OFFCURVE",
"409 684 CURVE SMOOTH"
);
}
);
};
layerId = UUID0;
paths = (
{
closed = 1;
nodes = (
"647 614 LINE",
"587 674 OFFCURVE",
"501 703 OFFCURVE",
"409 703 CURVE SMOOTH",
"204 703 OFFCURVE",
"50 552 OFFCURVE",
"50 350 CURVE SMOOTH",
"50 148 OFFCURVE",
"204 -3 OFFCURVE",
"409 -3 CURVE SMOOTH",
"501 -3 OFFCURVE",
"587 27 OFFCURVE",
"647 87 CURVE",
"635 101 LINE",
"571 40 OFFCURVE",
"494 16 OFFCURVE",
"409 16 CURVE SMOOTH",
"216 16 OFFCURVE",
"70 161 OFFCURVE",
"70 350 CURVE SMOOTH",
"70 539 OFFCURVE",
"216 684 OFFCURVE",
"409 684 CURVE SMOOTH",
"494 684 OFFCURVE",
"571 661 OFFCURVE",
"635 600 CURVE"
);
}
);
width = 695;
},
{
anchors = (
{
name = bottom;
position = "{393, 0}";
},
{
name = top;
position = "{419, 701}";
}
);
background = {
paths = (
{
closed = 1;
nodes = (
"734 576 LINE",
"665 666 OFFCURVE",
"557 716 OFFCURVE",
"420 716 CURVE SMOOTH",
"195 716 OFFCURVE",
"30 565 OFFCURVE",
"30 350 CURVE SMOOTH",
"30 135 OFFCURVE",
"195 -16 OFFCURVE",
"420 -16 CURVE SMOOTH",
"557 -16 OFFCURVE",
"665 34 OFFCURVE",
"734 124 CURVE",
"585 257 LINE",
"544 206 OFFCURVE",
"495 177 OFFCURVE",
"432 177 CURVE SMOOTH",
"334 177 OFFCURVE",
"268 244 OFFCURVE",
"268 350 CURVE SMOOTH",
"268 456 OFFCURVE",
"334 523 OFFCURVE",
"432 523 CURVE SMOOTH",
"495 523 OFFCURVE",
"544 494 OFFCURVE",
"585 443 CURVE"
);
}
);
};
layerId = "5DA6E103-6A94-47F2-987D-4952DB8EA68E";
paths = (
{
closed = 1;
nodes = (
"734 576 LINE",
"665 666 OFFCURVE",
"557 716 OFFCURVE",
"420 716 CURVE SMOOTH",
"195 716 OFFCURVE",
"30 565 OFFCURVE",
"30 350 CURVE SMOOTH",
"30 135 OFFCURVE",
"195 -16 OFFCURVE",
"420 -16 CURVE SMOOTH",
"557 -16 OFFCURVE",
"665 34 OFFCURVE",
"734 124 CURVE",
"585 257 LINE",
"544 205 OFFCURVE",
"495 175 OFFCURVE",
"432 175 CURVE SMOOTH",
"334 175 OFFCURVE",
"268 243 OFFCURVE",
"268 350 CURVE SMOOTH",
"268 457 OFFCURVE",
"334 525 OFFCURVE",
"432 525 CURVE SMOOTH",
"495 525 OFFCURVE",
"544 495 OFFCURVE",
"585 443 CURVE"
);
}
);
width = 738;
}
);
leftKerningGroup = O;
leftMetricsKey = O;
rightKerningGroup = C;
unicode = 0043;
},
{
color = 5;
glyphname = D;
layers = (
{
anchors = (
{
name = bottom;
position = "{391, 0}";
},
{
name = center;
position = "{206, 350}";
},
{
name = top;
position = "{386, 699}";
}
);
background = {
paths = (
{
closed = 1;
nodes = (
"198 703 OFFCURVE",
"44 552 OFFCURVE",
"44 350 CURVE SMOOTH",
"44 148 OFFCURVE",
"198 -3 OFFCURVE",
"403 -3 CURVE SMOOTH",
"608 -3 OFFCURVE",
"762 148 OFFCURVE",
"762 350 CURVE SMOOTH",
"762 552 OFFCURVE",
"608 703 OFFCURVE",
"403 703 CURVE SMOOTH"
);
},
{
closed = 1;
nodes = (
"596 684 OFFCURVE",
"742 539 OFFCURVE",
"742 350 CURVE SMOOTH",
"742 161 OFFCURVE",
"596 16 OFFCURVE",
"403 16 CURVE SMOOTH",
"210 16 OFFCURVE",
"64 161 OFFCURVE",
"64 350 CURVE SMOOTH",
"64 539 OFFCURVE",
"210 684 OFFCURVE",
"403 684 CURVE SMOOTH"
);
},
{
closed = 1;
nodes = (
"128 0 LINE",
"148 0 LINE",
"148 351 LINE",
"659 351 LINE",
"659 0 LINE",
"679 0 LINE",
"679 700 LINE",
"659 700 LINE",
"659 370 LINE",
"148 370 LINE",
"148 700 LINE",
"128 700 LINE"
);
}
);
};
layerId = UUID0;
paths = (
{
closed = 1;
nodes = (
"128 700 LINE",
"128 0 LINE",
"393 0 LINE SMOOTH",
"614 0 OFFCURVE",
"762 148 OFFCURVE",
"762 350 CURVE SMOOTH",
"762 552 OFFCURVE",
"614 700 OFFCURVE",
"393 700 CURVE SMOOTH"
);
},
{
closed = 1;
nodes = (
"148 19 LINE",
"148 681 LINE",
"391 681 LINE SMOOTH",
"605 681 OFFCURVE",
"742 541 OFFCURVE",
"742 350 CURVE SMOOTH",
"742 159 OFFCURVE",
"605 19 OFFCURVE",
"391 19 CURVE SMOOTH"
);
}
);
width = 812;
},
{
anchors = (
{
name = bottom;
position = "{364, 0}";
},
{
name = center;
position = "{192, 351}";
},
{
name = top;
position = "{362, 700}";
}
);
background = {
paths = (
{
closed = 1;
nodes = (
"1077 716 OFFCURVE",
"910 562 OFFCURVE",
"910 350 CURVE SMOOTH",
"910 138 OFFCURVE",
"1077 -16 OFFCURVE",
"1305 -16 CURVE SMOOTH",
"1533 -16 OFFCURVE",
"1700 138 OFFCURVE",
"1700 350 CURVE SMOOTH",
"1700 562 OFFCURVE",
"1533 716 OFFCURVE",
"1305 716 CURVE SMOOTH"
);
},
{
closed = 1;
nodes = (
"1392 525 OFFCURVE",
"1462 459 OFFCURVE",
"1462 350 CURVE SMOOTH",
"1462 241 OFFCURVE",
"1392 175 OFFCURVE",
"1305 175 CURVE SMOOTH",
"1218 175 OFFCURVE",
"1148 241 OFFCURVE",
"1148 350 CURVE SMOOTH",
"1148 459 OFFCURVE",
"1218 525 OFFCURVE",
"1305 525 CURVE SMOOTH"
);
},
{
closed = 1;
nodes = (
"960 0 LINE",
"1196 0 LINE",
"1196 244 LINE",
"1414 244 LINE",
"1414 0 LINE",
"1650 0 LINE",
"1650 700 LINE",
"1414 700 LINE",
"1414 438 LINE",
"1196 438 LINE",
"1196 700 LINE",
"960 700 LINE"
);
},
{
closed = 1;
nodes = (
"60 700 LINE",
"60 0 LINE",
"405 0 LINE SMOOTH",
"639 0 OFFCURVE",
"800 133 OFFCURVE",
"800 350 CURVE SMOOTH",
"800 567 OFFCURVE",
"639 700 OFFCURVE",
"405 700 CURVE SMOOTH"
);
},
{
closed = 1;
nodes = (
"296 184 LINE",
"296 516 LINE",
"395 516 LINE SMOOTH",
"494 516 OFFCURVE",
"562 457 OFFCURVE",
"562 350 CURVE SMOOTH",
"562 243 OFFCURVE",
"494 184 OFFCURVE",
"395 184 CURVE SMOOTH"
);
}
);
};
layerId = "5DA6E103-6A94-47F2-987D-4952DB8EA68E";
paths = (
{
closed = 1;
nodes = (
"60 700 LINE",
"60 0 LINE",
"405 0 LINE SMOOTH",
"639 0 OFFCURVE",
"800 133 OFFCURVE",
"800 350 CURVE SMOOTH",
"800 567 OFFCURVE",
"639 700 OFFCURVE",
"405 700 CURVE SMOOTH"
);
},
{
closed = 1;
nodes = (
"296 184 LINE",
"296 516 LINE",
"395 516 LINE SMOOTH",
"494 516 OFFCURVE",
"562 457 OFFCURVE",
"562 350 CURVE SMOOTH",
"562 243 OFFCURVE",
"494 184 OFFCURVE",
"395 184 CURVE SMOOTH"
);
}
);
width = 830;
}
);
leftKerningGroup = H;
leftMetricsKey = H;
rightKerningGroup = O;
rightMetricsKey = O;
unicode = 0044;
},
{
color = 5;
glyphname = E;
layers = (
{
anchors = (
{
name = bottom;
position = "{354, 0}";
},
{
name = ogonek;
position = "{594, 0}";
},
{
name = top;
position = "{351, 699}";
},
{
name = topleft;
position = "{36, 699}";
}
);
background = {
paths = (
{
closed = 1;
nodes = (
"828 0 LINE",
"1289 0 LINE",
"1289 19 LINE",
"848 19 LINE",
"848 348 LINE",
"1229 348 LINE",
"1229 367 LINE",
"848 367 LINE",
"848 681 LINE",
"1274 681 LINE",
"1274 700 LINE",
"828 700 LINE"
);
},
{
closed = 1;
nodes = (
"128 0 LINE",
"148 0 LINE",
"148 348 LINE",
"659 348 LINE",
"659 0 LINE",
"679 0 LINE",
"679 700 LINE",
"659 700 LINE",
"659 367 LINE",
"148 367 LINE",
"148 700 LINE",
"128 700 LINE"
);
},
{
closed = 1;
nodes = (
"128 0 LINE",
"589 0 LINE",
"589 19 LINE",
"148 19 LINE",
"148 348 LINE",
"529 348 LINE",
"529 367 LINE",
"148 367 LINE",
"148 681 LINE",
"574 681 LINE",
"574 700 LINE",
"128 700 LINE"
);
}
);
};
layerId = UUID0;
paths = (
{
closed = 1;
nodes = (
"128 0 LINE",
"594 0 LINE",
"594 19 LINE",
"148 19 LINE",
"148 346 LINE",
"534 346 LINE",
"534 365 LINE",
"148 365 LINE",
"148 681 LINE",
"579 681 LINE",
"579 700 LINE",
"128 700 LINE"
);
}
);
width = 659;
},
{
anchors = (
{
name = bottom;
position = "{361, 0}";
},
{
name = ogonek;
position = "{662, 0}";
},
{
name = top;
position = "{358, 701}";
},
{
name = topleft;
position = "{-6, 701}";
}
);
background = {
paths = (
{
closed = 1;
nodes = (
"60 0 LINE",
"642 0 LINE",
"642 178 LINE",
"292 178 LINE",
"292 270 LINE",
"588 270 LINE",
"588 440 LINE",
"292 440 LINE",
"292 522 LINE",
"629 522 LINE",
"629 700 LINE",
"60 700 LINE"
);
}
);
};
layerId = "5DA6E103-6A94-47F2-987D-4952DB8EA68E";
paths = (
{
closed = 1;
nodes = (
"60 0 LINE",
"642 0 LINE",
"642 178 LINE",
"292 178 LINE",
"292 270 LINE",
"588 270 LINE",
"588 440 LINE",
"292 440 LINE",
"292 522 LINE",
"629 522 LINE",
"629 700 LINE",
"60 700 LINE"
);
}
);
width = 671;
}
);
leftKerningGroup = H;
leftMetricsKey = H;
rightKerningGroup = E;
unicode = 0045;
},
{
color = 4;
glyphname = F;
layers = (
{
background = {
paths = (
{
closed = 1;
nodes = (
"128 0 LINE",
"148 0 LINE",
"148 323 LINE",
"489 323 LINE",
"489 343 LINE",
"148 343 LINE",
"148 679 LINE",
"535 679 LINE",
"535 699 LINE",
"128 699 LINE"
);
}
);
};
layerId = UUID0;
paths = (
{
closed = 1;
nodes = (
"128 0 LINE",
"148 0 LINE",
"148 326 LINE",
"534 326 LINE",
"534 345 LINE",
"148 345 LINE",
"148 681 LINE",
"579 681 LINE",
"579 700 LINE",
"128 700 LINE"
);
}
);
width = 610;
},
{
background = {
paths = (
{
closed = 1;
nodes = (
"60 0 LINE",
"642 0 LINE",
"642 178 LINE",
"292 178 LINE",
"292 270 LINE",
"588 270 LINE",
"588 440 LINE",
"292 440 LINE",
"292 522 LINE",
"629 522 LINE",
"629 700 LINE",
"60 700 LINE"
);
}
);
};
layerId = "5DA6E103-6A94-47F2-987D-4952DB8EA68E";
paths = (
{
closed = 1;
nodes = (
"60 0 LINE",
"296 0 LINE",
"296 224 LINE",
"588 224 LINE",
"588 402 LINE",
"296 402 LINE",
"296 522 LINE",
"629 522 LINE",
"629 700 LINE",
"60 700 LINE"
);
}
);
width = 644;
}
);
leftKerningGroup = H;
leftMetricsKey = H;
rightKerningGroup = F;
unicode = 0046;
},
{
color = 5;
glyphname = G;
layers = (
{
anchors = (
{
name = bottom;
position = "{380, 0}";
},
{
name = top;
position = "{380, 699}";
}
);
background = {
paths = (
{
closed = 1;
nodes = (
"649 612 LINE",
"585 669 OFFCURVE",
"501 703 OFFCURVE",
"409 703 CURVE SMOOTH",
"212 703 OFFCURVE",
"50 544 OFFCURVE",
"50 351 CURVE SMOOTH",
"50 157 OFFCURVE",
"212 -3 OFFCURVE",
"409 -3 CURVE SMOOTH",
"501 -3 OFFCURVE",
"586 32 OFFCURVE",
"650 89 CURVE",
"636 102 LINE",
"576 48 OFFCURVE",
"496 16 OFFCURVE",
"409 16 CURVE SMOOTH",
"222 16 OFFCURVE",
"69 167 OFFCURVE",
"69 351 CURVE SMOOTH",
"69 534 OFFCURVE",
"222 684 OFFCURVE",
"409 684 CURVE SMOOTH",
"496 684 OFFCURVE",
"576 653 OFFCURVE",
"636 599 CURVE"
);
},
{
closed = 1;
nodes = (
"630 89 LINE",
"650 89 LINE",
"650 343 LINE",
"630 343 LINE"
);
}
);
};
layerId = UUID0;
paths = (
{
closed = 1;
nodes = (
"507 -3 OFFCURVE",
"593 27 OFFCURVE",
"653 87 CURVE",
"641 102 LINE",
"580 40 OFFCURVE",
"500 16 OFFCURVE",
"412 16 CURVE SMOOTH",
"216 16 OFFCURVE",
"70 161 OFFCURVE",
"70 350 CURVE SMOOTH",
"70 539 OFFCURVE",
"216 684 OFFCURVE",
"412 684 CURVE SMOOTH",
"500 684 OFFCURVE",
"577 661 OFFCURVE",
"641 600 CURVE",
"653 614 LINE",
"593 674 OFFCURVE",
"507 703 OFFCURVE",
"412 703 CURVE SMOOTH",
"204 703 OFFCURVE",
"50 552 OFFCURVE",
"50 350 CURVE SMOOTH",
"50 148 OFFCURVE",
"204 -3 OFFCURVE",
"412 -3 CURVE SMOOTH"
);
},
{
closed = 1;
nodes = (
"653 87 LINE",
"653 343 LINE",
"634 343 LINE",
"634 87 LINE"
);
}
);
width = 763;
},
{
anchors = (
{
name = bottom;
position = "{411, 0}";
},
{
name = top;
position = "{425, 701}";
}
);
background = {
paths = (
{
closed = 1;
nodes = (
"527 -16 OFFCURVE",
"636 15 OFFCURVE",
"729 73 CURVE",
"597 235 LINE",
"540 192 OFFCURVE",
"491 175 OFFCURVE",
"435 175 CURVE SMOOTH",
"334 175 OFFCURVE",
"268 246 OFFCURVE",
"268 350 CURVE SMOOTH",
"268 457 OFFCURVE",
"334 523 OFFCURVE",
"438 523 CURVE SMOOTH",
"500 523 OFFCURVE",
"551 498 OFFCURVE",
"595 448 CURVE",
"746 581 LINE",
"675 668 OFFCURVE",
"564 716 OFFCURVE",
"426 716 CURVE SMOOTH",
"195 716 OFFCURVE",
"30 565 OFFCURVE",
"30 350 CURVE SMOOTH",
"30 135 OFFCURVE",
"195 -16 OFFCURVE",
"421 -16 CURVE SMOOTH"
);
},
{
closed = 1;
nodes = (
"729 73 LINE",
"729 369 LINE",
"529 369 LINE",
"529 103 LINE"
);
}
);
};
layerId = "5DA6E103-6A94-47F2-987D-4952DB8EA68E";
paths = (
{
closed = 1;
nodes = (
"524 -16 OFFCURVE",
"641 15 OFFCURVE",
"726 73 CURVE",
"594 235 LINE",
"537 191 OFFCURVE",
"488 175 OFFCURVE",
"435 175 CURVE SMOOTH",
"334 175 OFFCURVE",
"268 245 OFFCURVE",
"268 350 CURVE SMOOTH",
"268 458 OFFCURVE",
"334 525 OFFCURVE",
"438 525 CURVE SMOOTH",
"500 525 OFFCURVE",
"551 499 OFFCURVE",
"595 448 CURVE",
"746 581 LINE",
"675 668 OFFCURVE",
"564 716 OFFCURVE",
"426 716 CURVE SMOOTH",
"195 716 OFFCURVE",
"30 565 OFFCURVE",
"30 350 CURVE SMOOTH",
"30 135 OFFCURVE",
"195 -16 OFFCURVE",
"421 -16 CURVE SMOOTH"
);
},
{
closed = 1;
nodes = (
"726 73 LINE",
"726 369 LINE",
"521 369 LINE",
"521 103 LINE"
);
}
);
width = 771;
}
);
leftKerningGroup = O;
leftMetricsKey = O;
rightKerningGroup = G;
unicode = 0047;
},
{
color = 5;
glyphname = H;
layers = (
{
anchors = (
{
name = bottom;
position = "{400, 0}";
},
{
name = center;
position = "{400, 537}";
},
{
name = top;
position = "{400, 699}";
}
);
background = {
paths = (
{
closed = 1;
nodes = (
"128 0 LINE",
"148 0 LINE",
"148 344 LINE",
"651 344 LINE",
"651 0 LINE",
"671 0 LINE",
"671 699 LINE",
"651 699 LINE",
"651 363 LINE",
"148 363 LINE",
"148 699 LINE",
"128 699 LINE"
);
}
);
};
layerId = UUID0;
paths = (
{
closed = 1;
nodes = (
"128 0 LINE",
"148 0 LINE",
"148 346 LINE",
"658 346 LINE",
"658 0 LINE",
"678 0 LINE",
"678 700 LINE",
"658 700 LINE",
"658 365 LINE",
"148 365 LINE",
"148 700 LINE",
"128 700 LINE"
);
}
);
width = 806;
},
{
anchors = (
{
name = bottom;
position = "{401, 0}";
},
{
name = center;
position = "{400, 563}";
},
{
name = top;
position = "{411, 701}";
}
);
background = {
paths = (
{
closed = 1;
nodes = (
"60 0 LINE",
"80 0 LINE",
"80 346 LINE",
"590 346 LINE",
"590 0 LINE",
"610 0 LINE",
"610 700 LINE",
"590 700 LINE",
"590 365 LINE",
"80 365 LINE",
"80 700 LINE",
"60 700 LINE"
);
}
);
};
layerId = "5DA6E103-6A94-47F2-987D-4952DB8EA68E";
paths = (
{
closed = 1;
nodes = (
"60 0 LINE",
"296 0 LINE",
"296 258 LINE",
"514 258 LINE",
"514 0 LINE",
"750 0 LINE",
"750 700 LINE",
"514 700 LINE",
"514 452 LINE",
"296 452 LINE",
"296 700 LINE",
"60 700 LINE"
);
}
);
width = 810;
}
);
leftKerningGroup = H;
rightKerningGroup = H;
rightMetricsKey = "=|";
unicode = 0048;
},
{
color = 4;
glyphname = I;
layers = (
{
anchors = (
{
name = bottom;
position = "{138, 0}";
},
{
name = ogonek;
position = "{148, 0}";
},
{
name = top;
position = "{138, 699}";
},
{
name = topleft;
position = "{36, 699}";
}
);
layerId = UUID0;
paths = (
{
closed = 1;
nodes = (
"128 0 LINE",
"148 0 LINE",
"148 700 LINE",
"128 700 LINE"
);
}
);
width = 276;
},
{
anchors = (
{
name = bottom;
position = "{178, 0}";
},
{
name = ogonek;
position = "{296, 0}";
},
{
name = top;
position = "{178, 700}";
},
{
name = topleft;
position = "{-6, 700}";
}
);
layerId = "5DA6E103-6A94-47F2-987D-4952DB8EA68E";
paths = (
{
closed = 1;
nodes = (
"60 0 LINE",
"296 0 LINE",
"296 700 LINE",
"60 700 LINE"
);
}
);
width = 356;
}
);
leftKerningGroup = H;
leftMetricsKey = H;
rightKerningGroup = H;
rightMetricsKey = H;
unicode = 0049;
},
{
color = 4;
glyphname = J;
layers = (
{
anchors = (
{
name = top;
position = "{210, 700}";
}
);
background = {
paths = (
{
closed = 1;
nodes = (
"351 699 LINE",
"69 699 LINE",
"69 679 LINE",
"331 679 LINE",
"331 197 LINE",
"331 82 OFFCURVE",
"277 20 OFFCURVE",
"179 20 CURVE",
"116 20 OFFCURVE",
"60 52 OFFCURVE",
"19 112 CURVE",
"5 98 LINE",
"49 35 OFFCURVE",
"111 0 OFFCURVE",
"179 0 CURVE",
"290 0 OFFCURVE",
"351 70 OFFCURVE",
"351 197 CURVE"
);
}
);
};
layerId = UUID0;
paths = (
{
closed = 1;
nodes = (
"351 700 LINE",
"69 700 LINE",
"69 681 LINE",
"331 681 LINE",
"331 196 LINE SMOOTH",
"331 74 OFFCURVE",
"282 16 OFFCURVE",
"180 16 CURVE SMOOTH",
"114 16 OFFCURVE",
"57 49 OFFCURVE",
"19 108 CURVE",
"5 96 LINE",
"42 34 OFFCURVE",
"108 -3 OFFCURVE",
"179 -3 CURVE SMOOTH",
"293 -3 OFFCURVE",
"351 63 OFFCURVE",
"351 194 CURVE SMOOTH"
);
}
);
width = 474;
},
{
anchors = (
{
name = top;
position = "{302, 700}";
}
);
background = {
paths = (
{
closed = 1;
nodes = (
"537 701 LINE",
"66 701 LINE",
"66 518 LINE",
"304 518 LINE",
"304 242 LINE SMOOTH",
"304 202 OFFCURVE",
"283 183 OFFCURVE",
"251 183 CURVE SMOOTH",
"216 183 OFFCURVE",
"160 207 OFFCURVE",
"105 262 CURVE",
"0 112 LINE",
"71 34 OFFCURVE",
"160 -10 OFFCURVE",
"273 -10 CURVE SMOOTH",
"434 -10 OFFCURVE",
"537 80 OFFCURVE",
"537 237 CURVE SMOOTH"
);
}
);
};
layerId = "5DA6E103-6A94-47F2-987D-4952DB8EA68E";
paths = (
{
closed = 1;
nodes = (
"537 700 LINE",
"66 700 LINE",
"66 522 LINE",
"304 522 LINE",
"304 260 LINE SMOOTH",
"304 203 OFFCURVE",
"277 175 OFFCURVE",
"228 175 CURVE SMOOTH",
"189 175 OFFCURVE",
"154 194 OFFCURVE",
"117 238 CURVE",
"-10 88 LINE",
"48 20 OFFCURVE",
"139 -16 OFFCURVE",
"248 -16 CURVE SMOOTH",
"436 -16 OFFCURVE",
"537 78 OFFCURVE",
"537 270 CURVE SMOOTH"
);
}
);
width = 595;
}
);
leftKerningGroup = J;
rightKerningGroup = U;
unicode = 004A;
},
{
color = 4;
glyphname = K;
layers = (
{
anchors = (
{
name = bottom;
position = "{335, 0}";
},
{
name = top;
position = "{335, 700}";
}
);
background = {
paths = (
{
closed = 1;
nodes = (
"138 184 LINE",
"316 371 LINE",
"327 382 LINE",
"630 700 LINE",
"602 700 LINE",
"137 212 LINE"
);
},
{
closed = 1;
nodes = (
"308 377 LINE",
"634 0 LINE",
"661 0 LINE",
"323 390 LINE"
);
},
{
closed = 1;
nodes = (
"148 700 LINE",
"128 700 LINE",
"128 0 LINE",
"148 0 LINE"
);
},
{
closed = 1;
nodes = (
"128 0 LINE",
"148 0 LINE",
"148 346 LINE",
"658 346 LINE",
"658 0 LINE",
"678 0 LINE",
"678 700 LINE",
"658 700 LINE",
"658 365 LINE",
"148 365 LINE",
"148 700 LINE",
"128 700 LINE"
);
}
);
};
layerId = UUID0;
paths = (
{
closed = 1;
nodes = (
"144 182 LINE",
"323 366 LINE",
"335 377 LINE",
"649 700 LINE",
"622 700 LINE",
"144 209 LINE"
);
},
{
closed = 1;
nodes = (
"312 377 LINE",
"645 0 LINE",
"672 0 LINE",
"327 390 LINE"
);
},
{
closed = 1;
nodes = (
"148 700 LINE",
"128 700 LINE",
"128 0 LINE",
"148 0 LINE"
);
}
);
width = 672;
},
{
anchors = (
{
name = bottom;
position = "{383, 0}";
},
{
name = top;
position = "{383, 701}";
}
);
background = {
paths = (
{
closed = 1;
nodes = (
"277 154 LINE",
"358 253 LINE",
"481 387 LINE",
"740 700 LINE",
"489 700 LINE",
"252 413 LINE"
);
},
{
closed = 1;
nodes = (
"322 262 LINE",
"504 0 LINE",
"770 0 LINE",
"468 428 LINE"
);
},
{
closed = 1;
nodes = (
"292 700 LINE",
"60 700 LINE",
"60 0 LINE",
"292 0 LINE"
);
},
{
closed = 1;
nodes = (
"60 0 LINE",
"296 0 LINE",
"296 258 LINE",
"514 258 LINE",
"514 0 LINE",
"750 0 LINE",
"750 700 LINE",
"514 700 LINE",
"514 452 LINE",
"296 452 LINE",
"296 700 LINE",
"60 700 LINE"
);
}
);
};
guideLines = (
{
angle = 48.4917;
position = "{628, 544}";
}
);
layerId = "5DA6E103-6A94-47F2-987D-4952DB8EA68E";
paths = (
{
closed = 1;
nodes = (
"271 150 LINE",
"352 240 LINE",
"483 374 LINE",
"779 700 LINE",
"522 700 LINE",
"258 409 LINE"
);
},
{
closed = 1;
nodes = (
"314 272 LINE",
"520 0 LINE",
"793 0 LINE",
"467 434 LINE"
);
},
{
closed = 1;
nodes = (
"292 700 LINE",
"60 700 LINE",
"60 0 LINE",
"292 0 LINE"
);
}
);
width = 772;
}
);
leftKerningGroup = H;
leftMetricsKey = H;
rightKerningGroup = X;
unicode = 004B;
},
{
color = 4;
glyphname = L;
layers = (
{
anchors = (
{
name = bottom;
position = "{357, 0}";
},
{
name = center;
position = "{381, 390}";
},
{
name = top;
position = "{138, 700}";
},
{
name = topright;
position = "{441, 700}";
}
);
guideLines = (
{
angle = 90;
position = "{461, 20}";
}
);
layerId = UUID0;
paths = (
{
closed = 1;
nodes = (
"128 0 LINE",
"565 0 LINE",
"565 19 LINE",
"148 19 LINE",
"148 700 LINE",
"128 700 LINE"
);
}
);
width = 575;
},
{
anchors = (
{
name = bottom;
position = "{348, 0}";
},
{
name = center;
position = "{460, 440}";
},
{
name = top;
position = "{169, 700}";
},
{
name = topright;
position = "{426, 700}";
}
);
guideLines = (
{
angle = 90;
position = "{584, 193}";
}
);
layerId = "5DA6E103-6A94-47F2-987D-4952DB8EA68E";
paths = (
{
closed = 1;
nodes = (
"60 0 LINE",
"612 0 LINE",
"612 183 LINE",
"296 183 LINE",
"296 700 LINE",
"60 700 LINE"
);
}
);
width = 627;
}
);
leftKerningGroup = H;
leftMetricsKey = H;
rightKerningGroup = L;
unicode = 004C;
},
{
color = 4;
glyphname = M;
layers = (
{
anchors = (
{
name = bottom;
position = "{471, 0}";
},
{
name = top;
position = "{471, 700}";
}
);
background = {
paths = (
{
closed = 1;
nodes = (
"128 0 LINE",
"148 0 LINE",
"148 671 LINE",
"136 671 LINE",
"461 77 LINE",
"473 77 LINE",
"798 671 LINE",
"786 671 LINE",
"786 0 LINE",
"806 0 LINE",
"806 700 LINE",
"789 700 LINE",
"459 100 LINE",
"475 100 LINE",
"145 700 LINE",
"128 700 LINE"
);
},
{
closed = 1;
nodes = (
"128 0 LINE",
"148 0 LINE",
"148 346 LINE",
"658 346 LINE",
"658 0 LINE",
"678 0 LINE",
"678 700 LINE",
"658 700 LINE",
"658 365 LINE",
"148 365 LINE",
"148 700 LINE",
"128 700 LINE"
);
}
);
};
layerId = UUID0;
paths = (
{
closed = 1;
nodes = (
"128 0 LINE",
"148 0 LINE",
"148 671 LINE",
"139 671 LINE",
"467 99 LINE",
"479 99 LINE",
"806 671 LINE",
"798 671 LINE",
"798 0 LINE",
"818 0 LINE",
"818 700 LINE",
"801 700 LINE",
"469 118 LINE",
"478 118 LINE",
"145 700 LINE",
"128 700 LINE"
);
}
);
width = 946;
},
{
anchors = (
{
name = bottom;
position = "{479, 0}";
},
{
name = top;
position = "{480, 700}";
}
);
background = {
paths = (
{
closed = 1;
nodes = (
"60 0 LINE",
"263 0 LINE",
"263 384 LINE",
"404 68 LINE",
"555 68 LINE",
"696 384 LINE",
"696 0 LINE",
"899 0 LINE",
"899 701 LINE",
"653 701 LINE",
"480 335 LINE",
"306 701 LINE",
"60 701 LINE"
);
}
);
};
layerId = "5DA6E103-6A94-47F2-987D-4952DB8EA68E";
paths = (
{
closed = 1;
nodes = (
"60 0 LINE",
"275 0 LINE",
"275 376 LINE",
"233 376 LINE",
"427 63 LINE",
"531 63 LINE",
"717 376 LINE",
"683 376 LINE",
"685 0 LINE",
"900 0 LINE",
"898 700 LINE",
"704 700 LINE",
"432 243 LINE",
"534 243 LINE",
"254 700 LINE",
"60 700 LINE"
);
}
);
width = 960;
}
);
leftKerningGroup = H;
leftMetricsKey = H;
rightKerningGroup = H;
rightMetricsKey = H;
unicode = 004D;
},
{
color = 4;
glyphname = N;
layers = (
{
anchors = (
{
name = bottom;
position = "{403, 0}";
},
{
name = top;
position = "{403, 700}";
}
);
background = {
paths = (
{
closed = 1;
nodes = (
"1228 0 LINE",
"1248 0 LINE",
"1248 688 LINE",
"1243 686 LINE",
"1741 0 LINE",
"1771 0 LINE",
"1771 699 LINE",
"1751 699 LINE",
"1751 11 LINE",
"1756 13 LINE",
"1258 699 LINE",
"1228 699 LINE"
);
},
{
closed = 1;
nodes = (
"128 0 LINE",
"148 0 LINE",
"148 348 LINE",
"659 348 LINE",
"659 0 LINE",
"679 0 LINE",
"679 700 LINE",
"659 700 LINE",
"659 367 LINE",
"148 367 LINE",
"148 700 LINE",
"128 700 LINE"
);
}
);
};
layerId = UUID0;
paths = (
{
closed = 1;
nodes = (
"128 0 LINE",
"148 0 LINE",
"148 677 LINE",
"137 677 LINE",
"661 0 LINE",
"678 0 LINE",
"678 700 LINE",
"658 700 LINE",
"658 23 LINE",
"669 23 LINE",
"145 700 LINE",
"128 700 LINE"
);
}
);
width = 806;
},
{
anchors = (
{
name = bottom;
position = "{405, 0}";
},
{
name = top;
position = "{405, 700}";
}
);
background = {
paths = (
{
closed = 1;
nodes = (
"60 0 LINE",
"271 0 LINE",
"271 459 LINE",
"209 438 LINE",
"547 0 LINE",
"741 0 LINE",
"741 701 LINE",
"531 701 LINE",
"531 240 LINE",
"593 261 LINE",
"254 701 LINE",
"60 701 LINE"
);
}
);
};
layerId = "5DA6E103-6A94-47F2-987D-4952DB8EA68E";
paths = (
{
closed = 1;
nodes = (
"60 0 LINE",
"290 0 LINE",
"290 426 LINE",
"200 426 LINE",
"556 0 LINE",
"750 0 LINE",
"750 700 LINE",
"520 700 LINE",
"520 274 LINE",
"610 274 LINE",
"254 700 LINE",
"60 700 LINE"
);
}
);
width = 810;
}
);
leftKerningGroup = H;
leftMetricsKey = H;
rightKerningGroup = H;
rightMetricsKey = H;
unicode = 004E;
},
{
glyphname = Eng;
layers = (
{
anchors = (
{
name = bottom;
position = "{400, 0}";
},
{
name = top;
position = "{400, 699}";
}
);
layerId = UUID0;
paths = (
{
closed = 1;
nodes = (
"651 3 LINE",
"651 -114 OFFCURVE",
"597 -176 OFFCURVE",
"499 -176 CURVE SMOOTH",
"436 -176 OFFCURVE",
"380 -144 OFFCURVE",
"339 -84 CURVE",
"325 -98 LINE",
"369 -161 OFFCURVE",
"431 -196 OFFCURVE",
"499 -196 CURVE SMOOTH",
"610 -196 OFFCURVE",
"671 -126 OFFCURVE",
"671 0 CURVE"
);
},
{
closed = 1;
nodes = (
"128 0 LINE",
"148 0 LINE",
"148 679 LINE",
"641 0 LINE",
"671 0 LINE",
"671 699 LINE",
"651 699 LINE",
"651 20 LINE",
"158 699 LINE",
"128 699 LINE"
);
}
);
width = 799;
},
{
anchors = (
{
name = bottom;
position = "{401, 0}";
},
{
name = top;
position = "{401, 701}";
}
);
layerId = "5DA6E103-6A94-47F2-987D-4952DB8EA68E";
paths = (
{
closed = 1;
nodes = (
"535 33 LINE",
"535 -11 OFFCURVE",
"517 -32 OFFCURVE",
"477 -32 CURVE SMOOTH",
"454 -32 OFFCURVE",
"422 -25 OFFCURVE",
"383 -10 CURVE",
"308 -185 LINE",
"358 -211 OFFCURVE",
"413 -225 OFFCURVE",
"477 -225 CURVE SMOOTH",
"630 -225 OFFCURVE",
"732 -143 OFFCURVE",
"741 0 CURVE"
);
},
{
closed = 1;
nodes = (
"60 0 LINE",
"271 0 LINE",
"271 358 LINE",
"547 0 LINE",
"741 0 LINE",
"741 701 LINE",
"531 701 LINE",
"531 341 LINE",
"254 701 LINE",
"60 701 LINE"
);
}
);
width = 801;
}
);
leftKerningGroup = H;
leftMetricsKey = H;
rightKerningGroup = H;
rightMetricsKey = H;
unicode = 014A;
},
{
color = 5;
glyphname = O;
layers = (
{
anchors = (
{
name = bottom;
position = "{409, 0}";
},
{
name = center;
position = "{409, 350}";
},
{
name = ogonek;
position = "{591, 0}";
},
{
name = top;
position = "{410, 700}";
},
{
name = topleft;
position = "{50, 700}";
},
{
name = topright;
position = "{776, 700}";
}
);
background = {
paths = (
{
closed = 1;
nodes = (
"212 703 OFFCURVE",
"50 544 OFFCURVE",
"50 351 CURVE SMOOTH",
"50 157 OFFCURVE",
"212 -3 OFFCURVE",
"409 -3 CURVE SMOOTH",
"606 -3 OFFCURVE",
"768 157 OFFCURVE",
"768 351 CURVE SMOOTH",
"768 544 OFFCURVE",
"606 703 OFFCURVE",
"409 703 CURVE SMOOTH"
);
},
{
closed = 1;
nodes = (
"595 683 OFFCURVE",
"748 533 OFFCURVE",
"748 351 CURVE SMOOTH",
"748 168 OFFCURVE",
"595 17 OFFCURVE",
"409 17 CURVE SMOOTH",
"223 17 OFFCURVE",
"70 168 OFFCURVE",
"70 351 CURVE SMOOTH",
"70 533 OFFCURVE",
"223 683 OFFCURVE",
"409 683 CURVE SMOOTH"
);
}
);
};
guideLines = (
{
angle = 90;
position = "{578, 723}";
}
);
layerId = UUID0;
paths = (
{
closed = 1;
nodes = (
"204 703 OFFCURVE",
"50 552 OFFCURVE",
"50 350 CURVE SMOOTH",
"50 148 OFFCURVE",
"204 -3 OFFCURVE",
"409 -3 CURVE SMOOTH",
"614 -3 OFFCURVE",
"768 148 OFFCURVE",
"768 350 CURVE SMOOTH",
"768 552 OFFCURVE",
"614 703 OFFCURVE",
"409 703 CURVE SMOOTH"
);
},
{
closed = 1;
nodes = (
"602 684 OFFCURVE",
"748 539 OFFCURVE",
"748 350 CURVE SMOOTH",
"748 161 OFFCURVE",
"602 16 OFFCURVE",
"409 16 CURVE SMOOTH",
"216 16 OFFCURVE",
"70 161 OFFCURVE",
"70 350 CURVE SMOOTH",
"70 539 OFFCURVE",
"216 684 OFFCURVE",
"409 684 CURVE SMOOTH"
);
}
);
width = 818;
},
{
anchors = (
{
name = bottom;
position = "{426, 0}";
},
{
name = center;
position = "{415, 352}";
},
{
name = ogonek;
position = "{660, 0}";
},
{
name = top;
position = "{415, 700}";
},
{
name = topleft;
position = "{35, 700}";
},
{
name = topright;
position = "{820, 700}";
}
);
background = {
paths = (
{
closed = 1;
nodes = (
"197 716 OFFCURVE",
"30 562 OFFCURVE",
"30 350 CURVE SMOOTH",
"30 138 OFFCURVE",
"197 -16 OFFCURVE",
"425 -16 CURVE SMOOTH",
"653 -16 OFFCURVE",
"820 138 OFFCURVE",
"820 350 CURVE SMOOTH",
"820 562 OFFCURVE",
"653 716 OFFCURVE",
"425 716 CURVE SMOOTH"
);
},
{
closed = 1;
nodes = (
"512 523 OFFCURVE",
"582 458 OFFCURVE",
"582 350 CURVE SMOOTH",
"582 242 OFFCURVE",
"512 177 OFFCURVE",
"425 177 CURVE SMOOTH",
"338 177 OFFCURVE",
"268 242 OFFCURVE",
"268 350 CURVE SMOOTH",
"268 458 OFFCURVE",
"338 523 OFFCURVE",
"425 523 CURVE SMOOTH"
);
}
);
};
guideLines = (
{
angle = 90;
position = "{493, 664}";
}
);
layerId = "5DA6E103-6A94-47F2-987D-4952DB8EA68E";
paths = (
{
closed = 1;
nodes = (
"197 716 OFFCURVE",
"30 562 OFFCURVE",
"30 350 CURVE SMOOTH",
"30 138 OFFCURVE",
"197 -16 OFFCURVE",
"425 -16 CURVE SMOOTH",
"653 -16 OFFCURVE",
"820 138 OFFCURVE",
"820 350 CURVE SMOOTH",
"820 562 OFFCURVE",
"653 716 OFFCURVE",
"425 716 CURVE SMOOTH"
);
},
{
closed = 1;
nodes = (
"512 525 OFFCURVE",
"582 459 OFFCURVE",
"582 350 CURVE SMOOTH",
"582 241 OFFCURVE",
"512 175 OFFCURVE",
"425 175 CURVE SMOOTH",
"338 175 OFFCURVE",
"268 241 OFFCURVE",
"268 350 CURVE SMOOTH",
"268 459 OFFCURVE",
"338 525 OFFCURVE",
"425 525 CURVE SMOOTH"
);
}
);
width = 850;
}
);
leftKerningGroup = O;
rightKerningGroup = O;
rightMetricsKey = "=|";
unicode = 004F;
},
{
color = 5;
glyphname = OE;
layers = (
{
anchors = (
{
name = bottom;
position = "{767, 0}";
},
{
name = top;
position = "{545, 699}";
}
);
background = {
paths = (
{
closed = 1;
nodes = (
"684 0 LINE",
"684 700 LINE",
"419 700 LINE SMOOTH",
"199 700 OFFCURVE",
"50 552 OFFCURVE",
"50 350 CURVE SMOOTH",
"50 148 OFFCURVE",
"199 0 OFFCURVE",
"419 0 CURVE SMOOTH"
);
},
{
closed = 1;
nodes = (
"664 681 LINE",
"664 19 LINE",
"419 19 LINE SMOOTH",
"208 19 OFFCURVE",
"70 159 OFFCURVE",
"70 350 CURVE SMOOTH",
"70 541 OFFCURVE",
"208 681 OFFCURVE",
"419 681 CURVE SMOOTH"
);
},
{
closed = 1;
nodes = (
"594 0 LINE",
"1055 0 LINE",
"1055 19 LINE",
"614 19 LINE",
"614 351 LINE",
"995 351 LINE",
"995 370 LINE",
"614 370 LINE",
"614 681 LINE",
"1040 681 LINE",
"1040 700 LINE",
"594 700 LINE"
);
}
);
};
layerId = UUID0;
paths = (
{
closed = 1;
nodes = (
"574 681 LINE",
"574 700 LINE",
"419 700 LINE SMOOTH",
"199 700 OFFCURVE",
"50 551 OFFCURVE",
"50 349 CURVE SMOOTH",
"50 147 OFFCURVE",
"199 0 OFFCURVE",
"419 0 CURVE SMOOTH",
"574 0 LINE",
"574 19 LINE",
"419 19 LINE SMOOTH",
"208 19 OFFCURVE",
"70 158 OFFCURVE",
"70 349 CURVE SMOOTH",
"70 540 OFFCURVE",
"208 681 OFFCURVE",
"419 681 CURVE SMOOTH"
);
},
{
closed = 1;
nodes = (
"568 0 LINE",
"1034 0 LINE",
"1034 19 LINE",
"588 19 LINE",
"588 346 LINE",
"974 346 LINE",
"974 365 LINE",
"588 365 LINE",
"588 681 LINE",
"1019 681 LINE",
"1019 700 LINE",
"568 700 LINE"
);
}
);
width = 1099;
},
{
anchors = (
{
name = bottom;
position = "{629, 0}";
},
{
name = top;
position = "{629, 701}";
}
);
background = {
paths = (
{
closed = 1;
nodes = (
"191 700 OFFCURVE",
"30 567 OFFCURVE",
"30 350 CURVE SMOOTH",
"30 133 OFFCURVE",
"191 0 OFFCURVE",
"425 0 CURVE SMOOTH",
"770 0 LINE",
"770 700 LINE",
"425 700 LINE SMOOTH"
);
},
{
closed = 1;
nodes = (
"336 184 OFFCURVE",
"268 243 OFFCURVE",
"268 350 CURVE SMOOTH",
"268 457 OFFCURVE",
"336 516 OFFCURVE",
"435 516 CURVE SMOOTH",
"534 516 LINE",
"534 184 LINE",
"435 184 LINE SMOOTH"
);
},
{
closed = 1;
nodes = (
"513 0 LINE",
"1095 0 LINE",
"1095 178 LINE",
"745 178 LINE",
"745 268 LINE",
"1041 268 LINE",
"1041 436 LINE",
"745 436 LINE",
"745 522 LINE",
"1082 522 LINE",
"1082 700 LINE",
"513 700 LINE"
);
}
);
};
layerId = "5DA6E103-6A94-47F2-987D-4952DB8EA68E";
paths = (
{
closed = 1;
nodes = (
"594 516 LINE",
"594 700 LINE",
"425 700 LINE SMOOTH",
"191 700 OFFCURVE",
"30 567 OFFCURVE",
"30 350 CURVE SMOOTH",
"30 133 OFFCURVE",
"191 0 OFFCURVE",
"425 0 CURVE SMOOTH",
"594 0 LINE",
"594 184 LINE",
"435 184 LINE SMOOTH",
"336 184 OFFCURVE",
"268 243 OFFCURVE",
"268 350 CURVE SMOOTH",
"268 457 OFFCURVE",
"336 516 OFFCURVE",
"435 516 CURVE SMOOTH"
);
},
{
closed = 1;
nodes = (
"534 0 LINE",
"1116 0 LINE",
"1116 178 LINE",
"766 178 LINE",
"766 270 LINE",
"1062 270 LINE",
"1062 440 LINE",
"766 440 LINE",
"766 522 LINE",
"1103 522 LINE",
"1103 700 LINE",
"534 700 LINE"
);
}
);
width = 1145;
}
);
leftKerningGroup = O;
leftMetricsKey = O;
rightKerningGroup = E;
rightMetricsKey = E;
unicode = 0152;
},
{
color = 4;
glyphname = P;
layers = (
{
layerId = UUID0;
paths = (
{
closed = 1;
nodes = (
"128 700 LINE",
"128 0 LINE",
"148 0 LINE",
"148 249 LINE",
"139 240 LINE",
"369 240 LINE SMOOTH",
"538 240 OFFCURVE",
"640 325 OFFCURVE",
"640 470 CURVE SMOOTH",
"640 615 OFFCURVE",
"538 700 OFFCURVE",
"369 700 CURVE SMOOTH"
);
},
{
closed = 1;
nodes = (
"139 259 LINE",
"148 251 LINE",
"148 689 LINE",
"139 681 LINE",
"367 681 LINE SMOOTH",
"529 681 OFFCURVE",
"620 604 OFFCURVE",
"620 470 CURVE SMOOTH",
"620 336 OFFCURVE",
"529 259 OFFCURVE",
"367 259 CURVE SMOOTH"
);
}
);
width = 668;
},
{
background = {
paths = (
{
closed = 1;
nodes = (
"860 700 LINE",
"860 0 LINE",
"1096 0 LINE",
"1096 283 LINE",
"991 182 LINE",
"1190 182 LINE SMOOTH",
"1394 182 OFFCURVE",
"1516 279 OFFCURVE",
"1516 441 CURVE SMOOTH",
"1516 603 OFFCURVE",
"1394 700 OFFCURVE",
"1190 700 CURVE SMOOTH"
);
},
{
closed = 1;
nodes = (
"991 365 LINE",
"1096 257 LINE",
"1096 625 LINE",
"991 517 LINE",
"1195 517 LINE SMOOTH",
"1248 517 OFFCURVE",
"1283 488 OFFCURVE",
"1283 441 CURVE SMOOTH",
"1283 394 OFFCURVE",
"1248 365 OFFCURVE",
"1195 365 CURVE SMOOTH"
);
},
{
closed = 1;
nodes = (
"128 700 LINE",
"128 0 LINE",
"148 0 LINE",
"148 249 LINE",
"139 240 LINE",
"369 240 LINE SMOOTH",
"538 240 OFFCURVE",
"640 325 OFFCURVE",
"640 470 CURVE SMOOTH",
"640 615 OFFCURVE",
"538 700 OFFCURVE",
"369 700 CURVE SMOOTH"
);
},
{
closed = 1;
nodes = (
"139 259 LINE",
"148 251 LINE",
"148 689 LINE",
"139 681 LINE",
"367 681 LINE SMOOTH",
"529 681 OFFCURVE",
"620 604 OFFCURVE",
"620 470 CURVE SMOOTH",
"620 336 OFFCURVE",
"529 259 OFFCURVE",
"367 259 CURVE SMOOTH"
);
}
);
};
layerId = "5DA6E103-6A94-47F2-987D-4952DB8EA68E";
paths = (
{
closed = 1;
nodes = (
"60 700 LINE",
"60 0 LINE",
"296 0 LINE",
"296 273 LINE",
"191 172 LINE",
"397 172 LINE SMOOTH",
"591 172 OFFCURVE",
"716 273 OFFCURVE",
"716 436 CURVE SMOOTH",
"716 599 OFFCURVE",
"591 700 OFFCURVE",
"397 700 CURVE SMOOTH"
);
},
{
closed = 1;
nodes = (
"191 354 LINE",
"296 247 LINE",
"296 625 LINE",
"191 518 LINE",
"391 518 LINE SMOOTH",
"447 518 OFFCURVE",
"483 485 OFFCURVE",
"483 436 CURVE SMOOTH",
"483 387 OFFCURVE",
"447 354 OFFCURVE",
"391 354 CURVE SMOOTH"
);
}
);
width = 730;
}
);
leftKerningGroup = H;
leftMetricsKey = H;
rightKerningGroup = P;
unicode = 0050;
},
{
color = 4;
glyphname = Thorn;
layers = (
{
background = {
paths = (
{
closed = 1;
nodes = (
"128 587 LINE",
"128 -113 LINE",
"148 -113 LINE",
"148 136 LINE",
"139 127 LINE",
"369 127 LINE SMOOTH",
"538 127 OFFCURVE",
"640 212 OFFCURVE",
"640 357 CURVE SMOOTH",
"640 502 OFFCURVE",
"538 587 OFFCURVE",
"369 587 CURVE SMOOTH"
);
},
{
closed = 1;
nodes = (
"139 146 LINE",
"148 138 LINE",
"148 576 LINE",
"139 568 LINE",
"367 568 LINE SMOOTH",
"529 568 OFFCURVE",
"620 491 OFFCURVE",
"620 357 CURVE SMOOTH",
"620 223 OFFCURVE",
"529 146 OFFCURVE",
"367 146 CURVE SMOOTH"
);
}
);
};
layerId = UUID0;
paths = (
{
closed = 1;
nodes = (
"139 599 LINE",
"139 580 LINE",
"367 580 LINE SMOOTH",
"529 580 OFFCURVE",
"620 503 OFFCURVE",
"620 369 CURVE SMOOTH",
"620 235 OFFCURVE",
"529 158 OFFCURVE",
"367 158 CURVE SMOOTH",
"139 158 LINE",
"139 139 LINE",
"369 139 LINE SMOOTH",
"538 139 OFFCURVE",
"640 224 OFFCURVE",
"640 369 CURVE SMOOTH",
"640 514 OFFCURVE",
"538 599 OFFCURVE",
"369 599 CURVE SMOOTH"
);
},
{
closed = 1;
nodes = (
"128 0 LINE",
"148 0 LINE",
"148 699 LINE",
"128 699 LINE"
);
}
);
width = 668;
},
{
background = {
paths = (
{
closed = 1;
nodes = (
"60 643 LINE",
"60 -57 LINE",
"296 -57 LINE",
"296 216 LINE",
"191 115 LINE",
"397 115 LINE SMOOTH",
"591 115 OFFCURVE",
"716 216 OFFCURVE",
"716 379 CURVE SMOOTH",
"716 542 OFFCURVE",
"591 643 OFFCURVE",
"397 643 CURVE SMOOTH"
);
},
{
closed = 1;
nodes = (
"191 297 LINE",
"296 190 LINE",
"296 568 LINE",
"191 461 LINE",
"391 461 LINE SMOOTH",
"447 461 OFFCURVE",
"483 428 OFFCURVE",
"483 379 CURVE SMOOTH",
"483 330 OFFCURVE",
"447 297 OFFCURVE",
"391 297 CURVE SMOOTH"
);
}
);
};
layerId = "5DA6E103-6A94-47F2-987D-4952DB8EA68E";
paths = (
{
closed = 1;
nodes = (
"248 633 LINE",
"248 451 LINE",
"391 451 LINE SMOOTH",
"447 451 OFFCURVE",
"483 418 OFFCURVE",
"483 369 CURVE SMOOTH",
"483 320 OFFCURVE",
"447 287 OFFCURVE",
"391 287 CURVE SMOOTH",
"248 287 LINE",
"248 105 LINE",
"397 105 LINE SMOOTH",
"591 105 OFFCURVE",
"716 206 OFFCURVE",
"716 369 CURVE SMOOTH",
"716 532 OFFCURVE",
"591 633 OFFCURVE",
"397 633 CURVE SMOOTH"
);
},
{
closed = 1;
nodes = (
"60 0 LINE",
"292 0 LINE",
"292 701 LINE",
"60 701 LINE"
);
}
);
width = 730;
}
);
leftKerningGroup = H;
leftMetricsKey = H;
rightKerningGroup = Thorn;
rightMetricsKey = P;
unicode = 00DE;
},
{
color = 5;
glyphname = Q;
layers = (
{
anchors = (
{
name = bottom;
position = "{409, 0}";
},
{
name = center;
position = "{409, 351}";
},
{
name = ogonek;
position = "{591, 0}";
},
{
name = top;
position = "{409, 699}";
},
{
name = topleft;
position = "{38, 699}";
},
{
name = topright;
position = "{502, 686}";
}
);
background = {
paths = (
{
closed = 1;
nodes = (
"429 3 LINE",
"508 -82 OFFCURVE",
"579 -124 OFFCURVE",
"648 -124 CURVE SMOOTH",
"701 -124 OFFCURVE",
"754 -99 OFFCURVE",
"808 -48 CURVE",
"794 -34 LINE",
"744 -81 OFFCURVE",
"696 -105 OFFCURVE",
"648 -105 CURVE SMOOTH",
"585 -105 OFFCURVE",
"520 -65 OFFCURVE",
"443 17 CURVE"
);
},
{
closed = 1;
nodes = (
"212 703 OFFCURVE",
"50 544 OFFCURVE",
"50 351 CURVE SMOOTH",
"50 157 OFFCURVE",
"212 -3 OFFCURVE",
"409 -3 CURVE SMOOTH",
"606 -3 OFFCURVE",
"768 157 OFFCURVE",
"768 351 CURVE SMOOTH",
"768 544 OFFCURVE",
"606 703 OFFCURVE",
"409 703 CURVE SMOOTH"
);
},
{
closed = 1;
nodes = (
"595 683 OFFCURVE",
"748 533 OFFCURVE",
"748 351 CURVE SMOOTH",
"748 168 OFFCURVE",
"595 17 OFFCURVE",
"409 17 CURVE SMOOTH",
"223 17 OFFCURVE",
"70 168 OFFCURVE",
"70 351 CURVE SMOOTH",
"70 533 OFFCURVE",
"223 683 OFFCURVE",
"409 683 CURVE SMOOTH"
);
}
);
};
layerId = UUID0;
paths = (
{
closed = 1;
nodes = (
"416 3 LINE",
"500 -85 OFFCURVE",
"568 -124 OFFCURVE",
"639 -124 CURVE SMOOTH",
"702 -124 OFFCURVE",
"757 -98 OFFCURVE",
"798 -48 CURVE",
"784 -34 LINE",
"744 -82 OFFCURVE",
"697 -105 OFFCURVE",
"639 -105 CURVE SMOOTH",
"576 -105 OFFCURVE",
"510 -67 OFFCURVE",
"442 8 CURVE"
);
},
{
closed = 1;
nodes = (
"204 703 OFFCURVE",
"50 552 OFFCURVE",
"50 350 CURVE SMOOTH",
"50 148 OFFCURVE",
"204 -3 OFFCURVE",
"409 -3 CURVE SMOOTH",
"614 -3 OFFCURVE",
"768 148 OFFCURVE",
"768 350 CURVE SMOOTH",
"768 552 OFFCURVE",
"614 703 OFFCURVE",
"409 703 CURVE SMOOTH"
);
},
{
closed = 1;
nodes = (
"602 684 OFFCURVE",
"748 539 OFFCURVE",
"748 350 CURVE SMOOTH",
"748 161 OFFCURVE",
"602 16 OFFCURVE",
"409 16 CURVE SMOOTH",
"216 16 OFFCURVE",
"70 161 OFFCURVE",
"70 350 CURVE SMOOTH",
"70 539 OFFCURVE",
"216 684 OFFCURVE",
"409 684 CURVE SMOOTH"
);
}
);
width = 818;
},
{
anchors = (
{
name = bottom;
position = "{418, 0}";
},
{
name = center;
position = "{415, 352}";
},
{
name = ogonek;
position = "{660, 0}";
},
{
name = top;
position = "{426, 700}";
},
{
name = topleft;
position = "{30, 701}";
},
{
name = topright;
position = "{820, 724}";
}
);
background = {
paths = (
{
closed = 1;
nodes = (
"303 20 LINE",
"426 -115 OFFCURVE",
"506 -177 OFFCURVE",
"644 -177 CURVE SMOOTH",
"728 -177 OFFCURVE",
"801 -153 OFFCURVE",
"858 -88 CURVE",
"756 32 LINE",
"725 1 OFFCURVE",
"691 -13 OFFCURVE",
"659 -13 CURVE SMOOTH",
"613 -13 OFFCURVE",
"590 12 OFFCURVE",
"557 80 CURVE"
);
},
{
closed = 1;
nodes = (
"197 716 OFFCURVE",
"30 562 OFFCURVE",
"30 350 CURVE SMOOTH",
"30 138 OFFCURVE",
"197 -16 OFFCURVE",
"425 -16 CURVE SMOOTH",
"653 -16 OFFCURVE",
"820 138 OFFCURVE",
"820 350 CURVE SMOOTH",
"820 562 OFFCURVE",
"653 716 OFFCURVE",
"425 716 CURVE SMOOTH"
);
},
{
closed = 1;
nodes = (
"512 525 OFFCURVE",
"582 459 OFFCURVE",
"582 350 CURVE SMOOTH",
"582 241 OFFCURVE",
"512 175 OFFCURVE",
"425 175 CURVE SMOOTH",
"338 175 OFFCURVE",
"268 241 OFFCURVE",
"268 350 CURVE SMOOTH",
"268 459 OFFCURVE",
"338 525 OFFCURVE",
"425 525 CURVE SMOOTH"
);
}
);
};
layerId = "5DA6E103-6A94-47F2-987D-4952DB8EA68E";
paths = (
{
closed = 1;
nodes = (
"303 20 LINE",
"443 -133 OFFCURVE",
"522 -177 OFFCURVE",
"654 -177 CURVE SMOOTH",
"738 -177 OFFCURVE",
"809 -146 OFFCURVE",
"858 -88 CURVE",
"756 32 LINE",
"727 3 OFFCURVE",
"693 -13 OFFCURVE",
"659 -13 CURVE SMOOTH",
"617 -13 OFFCURVE",
"594 6 OFFCURVE",
"547 80 CURVE"
);
},
{
closed = 1;
nodes = (
"197 716 OFFCURVE",
"30 562 OFFCURVE",
"30 350 CURVE SMOOTH",
"30 138 OFFCURVE",
"197 -16 OFFCURVE",
"425 -16 CURVE SMOOTH",
"653 -16 OFFCURVE",
"820 138 OFFCURVE",
"820 350 CURVE SMOOTH",
"820 562 OFFCURVE",
"653 716 OFFCURVE",
"425 716 CURVE SMOOTH"
);
},
{
closed = 1;
nodes = (
"512 525 OFFCURVE",
"582 459 OFFCURVE",
"582 350 CURVE SMOOTH",
"582 241 OFFCURVE",
"512 175 OFFCURVE",
"425 175 CURVE SMOOTH",
"338 175 OFFCURVE",
"268 241 OFFCURVE",
"268 350 CURVE SMOOTH",
"268 459 OFFCURVE",
"338 525 OFFCURVE",
"425 525 CURVE SMOOTH"
);
}
);
width = 850;
}
);
leftKerningGroup = O;
leftMetricsKey = O;
widthMetricsKey = O;
rightKerningGroup = O;
unicode = 0051;
},
{
color = 4;
glyphname = R;
layers = (
{
anchors = (
{
name = bottom;
position = "{361, 0}";
},
{
name = top;
position = "{341, 699}";
}
);
background = {
paths = (
{
closed = 1;
nodes = (
"148 0 LINE",
"148 249 LINE",
"139 240 LINE",
"369 240 LINE SMOOTH",
"538 240 OFFCURVE",
"640 325 OFFCURVE",
"640 470 CURVE SMOOTH",
"640 615 OFFCURVE",
"538 700 OFFCURVE",
"369 700 CURVE SMOOTH",
"128 700 LINE",
"128 0 LINE"
);
},
{
closed = 1;
nodes = (
"650 0 LINE",
"467 254 LINE",
"442 254 LINE",
"625 0 LINE"
);
},
{
closed = 1;
nodes = (
"148 689 LINE",
"139 681 LINE",
"367 681 LINE SMOOTH",
"529 681 OFFCURVE",
"620 604 OFFCURVE",
"620 470 CURVE SMOOTH",
"620 336 OFFCURVE",
"529 259 OFFCURVE",
"367 259 CURVE SMOOTH",
"139 259 LINE",
"148 251 LINE"
);
}
);
};
layerId = UUID0;
paths = (
{
closed = 1;
nodes = (
"148 0 LINE",
"148 249 LINE",
"139 241 LINE",
"369 241 LINE SMOOTH",
"538 241 OFFCURVE",
"640 325 OFFCURVE",
"640 470 CURVE SMOOTH",
"640 615 OFFCURVE",
"538 700 OFFCURVE",
"369 700 CURVE SMOOTH",
"128 700 LINE",
"128 0 LINE"
);
},
{
closed = 1;
nodes = (
"650 0 LINE",
"467 254 LINE",
"442 254 LINE",
"625 0 LINE"
);
},
{
closed = 1;
nodes = (
"148 689 LINE",
"139 681 LINE",
"367 681 LINE SMOOTH",
"529 681 OFFCURVE",
"620 604 OFFCURVE",
"620 470 CURVE SMOOTH",
"620 336 OFFCURVE",
"529 259 OFFCURVE",
"367 259 CURVE SMOOTH",
"139 259 LINE",
"148 251 LINE"
);
}
);
width = 719;
},
{
anchors = (
{
name = bottom;
position = "{369, 0}";
},
{
name = top;
position = "{372, 701}";
}
);
background = {
paths = (
{
closed = 1;
nodes = (
"296 0 LINE",
"296 273 LINE",
"191 172 LINE",
"397 172 LINE SMOOTH",
"591 172 OFFCURVE",
"716 273 OFFCURVE",
"716 436 CURVE SMOOTH",
"716 599 OFFCURVE",
"591 700 OFFCURVE",
"397 700 CURVE SMOOTH",
"60 700 LINE",
"60 0 LINE"
);
},
{
closed = 1;
nodes = (
"726 0 LINE",
"552 265 LINE",
"299 265 LINE",
"469 0 LINE"
);
},
{
closed = 1;
nodes = (
"296 625 LINE",
"191 518 LINE",
"391 518 LINE SMOOTH",
"447 518 OFFCURVE",
"483 485 OFFCURVE",
"483 436 CURVE SMOOTH",
"483 387 OFFCURVE",
"447 354 OFFCURVE",
"391 354 CURVE SMOOTH",
"191 354 LINE",
"296 247 LINE"
);
}
);
};
layerId = "5DA6E103-6A94-47F2-987D-4952DB8EA68E";
paths = (
{
closed = 1;
nodes = (
"292 0 LINE",
"292 273 LINE",
"191 176 LINE",
"397 176 LINE SMOOTH",
"591 176 OFFCURVE",
"716 277 OFFCURVE",
"716 436 CURVE SMOOTH",
"716 599 OFFCURVE",
"591 700 OFFCURVE",
"397 700 CURVE SMOOTH",
"60 700 LINE",
"60 0 LINE"
);
},
{
closed = 1;
nodes = (
"731 0 LINE",
"557 255 LINE",
"307 255 LINE",
"479 0 LINE"
);
},
{
closed = 1;
nodes = (
"292 625 LINE",
"191 518 LINE",
"391 518 LINE SMOOTH",
"447 518 OFFCURVE",
"483 485 OFFCURVE",
"483 436 CURVE SMOOTH",
"483 387 OFFCURVE",
"447 354 OFFCURVE",
"391 354 CURVE SMOOTH",
"191 354 LINE",
"292 247 LINE"
);
}
);
width = 742;
}
);
leftKerningGroup = H;
leftMetricsKey = H;
rightKerningGroup = R;
unicode = 0052;
},
{
color = 4;
glyphname = S;
layers = (
{
anchors = (
{
name = bottom;
position = "{306, 0}";
},
{
name = top;
position = "{314, 700}";
}
);
background = {
paths = (
{
closed = 1;
nodes = (
"503 652 LINE",
"455 683 OFFCURVE",
"382 703 OFFCURVE",
"317 703 CURVE",
"182 703 OFFCURVE",
"94 641 OFFCURVE",
"94 547 CURVE",
"94 290 OFFCURVE",
"514 411 OFFCURVE",
"512 169 CURVE",
"512 77 OFFCURVE",
"427 17 OFFCURVE",
"295 17 CURVE",
"211 17 OFFCURVE",
"123 53 OFFCURVE",
"70 110 CURVE",
"56 96 LINE",
"114 36 OFFCURVE",
"207 -3 OFFCURVE",
"295 -3 CURVE",
"439 -3 OFFCURVE",
"532 65 OFFCURVE",
"532 169 CURVE",
"534 431 OFFCURVE",
"114 310 OFFCURVE",
"114 546 CURVE",
"114 629 OFFCURVE",
"194 683 OFFCURVE",
"317 683 CURVE",
"379 683 OFFCURVE",
"448 665 OFFCURVE",
"493 636 CURVE"
);
}
);
};
layerId = UUID0;
paths = (
{
closed = 1;
nodes = (
"517 639 LINE",
"466 678 OFFCURVE",
"389 703 OFFCURVE",
"314 703 CURVE SMOOTH",
"150 703 OFFCURVE",
"80 619 OFFCURVE",
"80 527 CURVE SMOOTH",
"80 269 OFFCURVE",
"525 407 OFFCURVE",
"525 172 CURVE SMOOTH",
"525 86 OFFCURVE",
"457 16 OFFCURVE",
"305 16 CURVE SMOOTH",
"207 16 OFFCURVE",
"118 57 OFFCURVE",
"74 109 CURVE",
"60 96 LINE",
"107 38 OFFCURVE",
"204 -3 OFFCURVE",
"306 -3 CURVE SMOOTH",
"472 -3 OFFCURVE",
"545 79 OFFCURVE",
"545 172 CURVE SMOOTH",
"545 425 OFFCURVE",
"100 290 OFFCURVE",
"100 526 CURVE SMOOTH",
"100 613 OFFCURVE",
"168 684 OFFCURVE",
"315 684 CURVE SMOOTH",
"378 684 OFFCURVE",
"450 664 OFFCURVE",
"506 623 CURVE"
);
}
);
width = 597;
},
{
anchors = (
{
name = bottom;
position = "{326, 0}";
},
{
name = top;
position = "{354, 700}";
}
);
background = {
paths = (
{
closed = 1;
nodes = (
"618 648 LINE",
"553 686 OFFCURVE",
"452 716 OFFCURVE",
"354 716 CURVE SMOOTH",
"139 716 OFFCURVE",
"30 606 OFFCURVE",
"30 477 CURVE SMOOTH",
"30 218 OFFCURVE",
"417 290 OFFCURVE",
"417 202 CURVE SMOOTH",
"417 178 OFFCURVE",
"393 164 OFFCURVE",
"326 164 CURVE SMOOTH",
"249 164 OFFCURVE",
"163 189 OFFCURVE",
"98 228 CURVE",
"22 61 LINE",
"92 15 OFFCURVE",
"207 -16 OFFCURVE",
"326 -16 CURVE SMOOTH",
"541 -16 OFFCURVE",
"650 99 OFFCURVE",
"650 223 CURVE SMOOTH",
"650 480 OFFCURVE",
"263 407 OFFCURVE",
"263 492 CURVE SMOOTH",
"263 516 OFFCURVE",
"285 536 OFFCURVE",
"354 536 CURVE SMOOTH",
"415 536 OFFCURVE",
"479 518 OFFCURVE",
"546 480 CURVE"
);
}
);
};
layerId = "5DA6E103-6A94-47F2-987D-4952DB8EA68E";
paths = (
{
closed = 1;
nodes = (
"620 655 LINE",
"547 696 OFFCURVE",
"450 716 OFFCURVE",
"356 716 CURVE SMOOTH",
"139 716 OFFCURVE",
"30 610 OFFCURVE",
"30 480 CURVE SMOOTH",
"30 219 OFFCURVE",
"417 290 OFFCURVE",
"417 202 CURVE SMOOTH",
"417 178 OFFCURVE",
"393 164 OFFCURVE",
"326 164 CURVE SMOOTH",
"249 164 OFFCURVE",
"161 189 OFFCURVE",
"95 228 CURVE",
"19 56 LINE",
"89 13 OFFCURVE",
"207 -16 OFFCURVE",
"324 -16 CURVE SMOOTH",
"541 -16 OFFCURVE",
"650 92 OFFCURVE",
"650 220 CURVE SMOOTH",
"650 478 OFFCURVE",
"263 408 OFFCURVE",
"263 492 CURVE SMOOTH",
"263 516 OFFCURVE",
"285 536 OFFCURVE",
"354 536 CURVE SMOOTH",
"415 536 OFFCURVE",
"480 519 OFFCURVE",
"549 484 CURVE"
);
}
);
width = 666;
}
);
leftKerningGroup = S;
rightKerningGroup = S;
unicode = 0053;
},
{
color = 4;
glyphname = Germandbls;
layers = (
{
background = {
paths = (
{
closed = 1;
nodes = (
"1010 0 LINE",
"1030 0 LINE",
"1030 456 LINE SMOOTH",
"1030 601 OFFCURVE",
"1125 679 OFFCURVE",
"1271 679 CURVE SMOOTH",
"1358 679 OFFCURVE",
"1420 657 OFFCURVE",
"1467 627 CURVE",
"1469 637 LINE",
"1266 385 LINE",
"1266 365 LINE",
"1271 365 LINE",
"1416 365 OFFCURVE",
"1498 299 OFFCURVE",
"1498 197 CURVE SMOOTH",
"1498 90 OFFCURVE",
"1412 20 OFFCURVE",
"1280 20 CURVE SMOOTH",
"1195 20 LINE",
"1195 0 LINE",
"1280 0 LINE SMOOTH",
"1425 0 OFFCURVE",
"1518 77 OFFCURVE",
"1518 197 CURVE SMOOTH",
"1518 299 OFFCURVE",
"1440 385 OFFCURVE",
"1272 385 CURVE",
"1281 375 LINE",
"1479 620 LINE",
"1479 640 LINE",
"1434 670 OFFCURVE",
"1366 699 OFFCURVE",
"1271 699 CURVE SMOOTH",
"1113 699 OFFCURVE",
"1010 613 OFFCURVE",
"1010 456 CURVE SMOOTH"
);
},
{
closed = 1;
nodes = (
"572 -3 OFFCURVE",
"660 68 OFFCURVE",
"660 196 CURVE SMOOTH",
"660 325 OFFCURVE",
"572 396 OFFCURVE",
"433 396 CURVE SMOOTH",
"417 396 OFFCURVE",
"389 395 OFFCURVE",
"358 386 CURVE",
"359 376 LINE",
"599 612 LINE",
"599 628 LINE",
"543 676 OFFCURVE",
"470 699 OFFCURVE",
"381 699 CURVE SMOOTH",
"212 699 OFFCURVE",
"110 595 OFFCURVE",
"110 419 CURVE SMOOTH",
"110 0 LINE",
"130 0 LINE",
"130 416 LINE SMOOTH",
"130 588 OFFCURVE",
"224 680 OFFCURVE",
"381 680 CURVE SMOOTH",
"466 680 OFFCURVE",
"534 661 OFFCURVE",
"586 615 CURVE",
"589 627 LINE",
"340 382 LINE",
"346 365 LINE",
"373 373 OFFCURVE",
"405 377 OFFCURVE",
"435 377 CURVE SMOOTH",
"561 377 OFFCURVE",
"640 313 OFFCURVE",
"640 196 CURVE SMOOTH",
"640 80 OFFCURVE",
"561 16 OFFCURVE",
"437 16 CURVE SMOOTH",
"391 16 OFFCURVE",
"348 25 OFFCURVE",
"310 44 CURVE",
"302 25 LINE",
"344 6 OFFCURVE",
"382 -3 OFFCURVE",
"436 -3 CURVE SMOOTH"
);
}
);
};
layerId = UUID0;
paths = (
{
closed = 1;
nodes = (
"572 -3 OFFCURVE",
"660 64 OFFCURVE",
"660 192 CURVE SMOOTH",
"660 320 OFFCURVE",
"571 388 OFFCURVE",
"436 388 CURVE SMOOTH",
"409 388 OFFCURVE",
"381 385 OFFCURVE",
"357 377 CURVE",
"358 367 LINE",
"599 612 LINE",
"599 628 LINE",
"543 676 OFFCURVE",
"468 699 OFFCURVE",
"381 699 CURVE SMOOTH",
"212 699 OFFCURVE",
"110 594 OFFCURVE",
"110 418 CURVE SMOOTH",
"110 0 LINE",
"130 0 LINE",
"130 416 LINE SMOOTH",
"130 588 OFFCURVE",
"222 680 OFFCURVE",
"381 680 CURVE SMOOTH",
"464 680 OFFCURVE",
"534 661 OFFCURVE",
"586 615 CURVE",
"589 627 LINE",
"339 373 LINE",
"346 357 LINE",
"372 365 OFFCURVE",
"405 369 OFFCURVE",
"437 369 CURVE SMOOTH",
"560 369 OFFCURVE",
"640 309 OFFCURVE",
"640 192 CURVE SMOOTH",
"640 76 OFFCURVE",
"561 16 OFFCURVE",
"441 16 CURVE SMOOTH",
"391 16 OFFCURVE",
"348 25 OFFCURVE",
"310 44 CURVE",
"302 25 LINE",
"344 6 OFFCURVE",
"382 -3 OFFCURVE",
"441 -3 CURVE SMOOTH"
);
}
);
width = 706;
},
{
background = {
paths = (
{
closed = 1;
nodes = (
"947 0 LINE",
"1178 0 LINE",
"1178 369 LINE SMOOTH",
"1178 468 OFFCURVE",
"1234 527 OFFCURVE",
"1330 527 CURVE SMOOTH",
"1400 527 OFFCURVE",
"1443 501 OFFCURVE",
"1477 468 CURVE",
"1457 616 LINE",
"1290 410 LINE",
"1290 290 LINE",
"1306 290 LINE SMOOTH",
"1361 290 OFFCURVE",
"1393 268 OFFCURVE",
"1393 231 CURVE SMOOTH",
"1393 193 OFFCURVE",
"1360 170 OFFCURVE",
"1306 170 CURVE SMOOTH",
"1265 170 LINE",
"1265 0 LINE",
"1347 0 LINE SMOOTH",
"1539 0 OFFCURVE",
"1633 84 OFFCURVE",
"1633 208 CURVE SMOOTH",
"1633 332 OFFCURVE",
"1539 410 OFFCURVE",
"1387 410 CURVE",
"1444 320 LINE",
"1569 482 LINE",
"1569 641 LINE",
"1500 684 OFFCURVE",
"1410 711 OFFCURVE",
"1309 711 CURVE SMOOTH",
"1081 711 OFFCURVE",
"947 577 OFFCURVE",
"947 349 CURVE SMOOTH"
);
},
{
closed = 1;
nodes = (
"621 -16 OFFCURVE",
"748 67 OFFCURVE",
"748 219 CURVE SMOOTH",
"748 365 OFFCURVE",
"621 448 OFFCURVE",
"473 448 CURVE SMOOTH",
"452 448 OFFCURVE",
"429 447 OFFCURVE",
"411 444 CURVE",
"508 320 LINE",
"694 505 LINE",
"694 640 LINE",
"617 692 OFFCURVE",
"525 716 OFFCURVE",
"415 716 CURVE SMOOTH",
"188 716 OFFCURVE",
"47 586 OFFCURVE",
"47 379 CURVE SMOOTH",
"47 0 LINE",
"283 0 LINE",
"283 374 LINE SMOOTH",
"283 476 OFFCURVE",
"332 532 OFFCURVE",
"431 532 CURVE SMOOTH",
"496 532 OFFCURVE",
"547 517 OFFCURVE",
"599 477 CURVE",
"584 625 LINE",
"337 380 LINE",
"377 280 LINE",
"393 285 OFFCURVE",
"414 288 OFFCURVE",
"433 288 CURVE SMOOTH",
"481 288 OFFCURVE",
"510 264 OFFCURVE",
"510 231 CURVE SMOOTH",
"510 198 OFFCURVE",
"481 174 OFFCURVE",
"433 174 CURVE SMOOTH",
"404 174 OFFCURVE",
"375 183 OFFCURVE",
"351 193 CURVE",
"316 7 LINE",
"360 -8 OFFCURVE",
"410 -16 OFFCURVE",
"463 -16 CURVE SMOOTH"
);
}
);
};
guideLines = (
{
angle = 49.4672;
position = "{304, 308}";
}
);
layerId = "5DA6E103-6A94-47F2-987D-4952DB8EA68E";
paths = (
{
closed = 1;
nodes = (
"643 -16 OFFCURVE",
"768 68 OFFCURVE",
"768 211 CURVE SMOOTH",
"768 354 OFFCURVE",
"641 438 OFFCURVE",
"503 438 CURVE SMOOTH",
"474 438 OFFCURVE",
"450 435 OFFCURVE",
"429 430 CURVE",
"517 308 LINE",
"694 515 LINE",
"694 650 LINE",
"627 692 OFFCURVE",
"515 716 OFFCURVE",
"427 716 CURVE SMOOTH",
"183 716 OFFCURVE",
"47 586 OFFCURVE",
"47 379 CURVE SMOOTH",
"47 0 LINE",
"283 0 LINE",
"283 374 LINE SMOOTH",
"283 476 OFFCURVE",
"332 536 OFFCURVE",
"430 536 CURVE SMOOTH",
"496 536 OFFCURVE",
"547 517 OFFCURVE",
"599 487 CURVE",
"584 635 LINE",
"351 363 LINE",
"391 268 LINE",
"408 274 OFFCURVE",
"430 278 OFFCURVE",
"453 278 CURVE SMOOTH",
"505 278 OFFCURVE",
"530 258 OFFCURVE",
"530 226 CURVE SMOOTH",
"530 194 OFFCURVE",
"505 174 OFFCURVE",
"450 174 CURVE SMOOTH",
"423 174 OFFCURVE",
"389 182 OFFCURVE",
"365 193 CURVE",
"333 7 LINE",
"374 -8 OFFCURVE",
"424 -16 OFFCURVE",
"490 -16 CURVE SMOOTH"
);
}
);
width = 779;
},
{
associatedMasterId = UUID0;
layerId = "36AED164-4DA3-4DF9-8210-990F56BE0807";
name = "Light Aug 5 16, 19:29";
paths = (
{
closed = 1;
nodes = (
"60 0 LINE",
"80 0 LINE",
"80 456 LINE SMOOTH",
"80 601 OFFCURVE",
"175 679 OFFCURVE",
"321 679 CURVE SMOOTH",
"405 679 OFFCURVE",
"468 655 OFFCURVE",
"513 630 CURVE",
"316 385 LINE",
"316 365 LINE",
"321 365 LINE",
"466 365 OFFCURVE",
"548 299 OFFCURVE",
"548 197 CURVE SMOOTH",
"548 90 OFFCURVE",
"462 20 OFFCURVE",
"330 20 CURVE SMOOTH",
"245 20 LINE",
"245 0 LINE",
"330 0 LINE SMOOTH",
"475 0 OFFCURVE",
"568 77 OFFCURVE",
"568 197 CURVE SMOOTH",
"568 299 OFFCURVE",
"490 385 OFFCURVE",
"322 385 CURVE",
"334 375 LINE",
"532 620 LINE",
"532 640 LINE",
"484 672 OFFCURVE",
"417 699 OFFCURVE",
"321 699 CURVE SMOOTH",
"163 699 OFFCURVE",
"60 613 OFFCURVE",
"60 456 CURVE SMOOTH"
);
}
);
width = 600;
}
);
leftKerningGroup = Germandbls;
leftMetricsKey = "=|U";
rightKerningGroup = Germandbls;
unicode = 1E9E;
},
{
color = 4;
glyphname = Schwa;
layers = (
{
anchors = (
{
name = bottom;
position = "{399, 0}";
},
{
name = top;
position = "{399, 700}";
}
);
background = {
paths = (
{
closed = 1;
nodes = (
"1591 -3 OFFCURVE",
"1748 157 OFFCURVE",
"1748 351 CURVE SMOOTH",
"1748 544 OFFCURVE",
"1591 703 OFFCURVE",
"1399 703 CURVE SMOOTH",
"1292 703 OFFCURVE",
"1196 657 OFFCURVE",
"1130 583 CURVE",
"1143 568 LINE",
"1206 639 OFFCURVE",
"1297 683 OFFCURVE",
"1399 683 CURVE SMOOTH",
"1580 683 OFFCURVE",
"1728 533 OFFCURVE",
"1728 350 CURVE",
"1050 350 LINE",
"1050 157 OFFCURVE",
"1207 -3 OFFCURVE",
"1399 -3 CURVE SMOOTH"
);
},
{
closed = 1;
nodes = (
"1225 17 OFFCURVE",
"1081 157 OFFCURVE",
"1071 330 CURVE",
"1727 330 LINE",
"1717 157 OFFCURVE",
"1573 17 OFFCURVE",
"1399 17 CURVE SMOOTH"
);
},
{
closed = 1;
nodes = (
"728 162 OFFCURVE",
"578 16 OFFCURVE",
"399 16 CURVE SMOOTH",
"210 16 OFFCURVE",
"70 161 OFFCURVE",
"70 350 CURVE",
"62 341 LINE",
"733 341 LINE",
"733 360 LINE",
"50 360 LINE",
"50 350 LINE",
"50 148 OFFCURVE",
"198 -3 OFFCURVE",
"399 -3 CURVE SMOOTH",
"593 -3 OFFCURVE",
"748 157 OFFCURVE",
"748 351 CURVE SMOOTH",
"748 552 OFFCURVE",
"594 703 OFFCURVE",
"389 703 CURVE SMOOTH",
"295 703 OFFCURVE",
"210 675 OFFCURVE",
"147 618 CURVE",
"158 603 LINE",
"225 661 OFFCURVE",
"302 684 OFFCURVE",
"389 684 CURVE SMOOTH",
"582 684 OFFCURVE",
"728 539 OFFCURVE",
"728 351 CURVE SMOOTH"
);
}
);
};
layerId = UUID0;
paths = (
{
closed = 1;
nodes = (
"593 -3 OFFCURVE",
"748 157 OFFCURVE",
"748 351 CURVE SMOOTH",
"748 552 OFFCURVE",
"594 703 OFFCURVE",
"389 703 CURVE SMOOTH",
"295 703 OFFCURVE",
"210 675 OFFCURVE",
"147 618 CURVE",
"158 603 LINE",
"225 661 OFFCURVE",
"302 684 OFFCURVE",
"389 684 CURVE SMOOTH",
"581 684 OFFCURVE",
"728 539 OFFCURVE",
"728 351 CURVE SMOOTH",
"728 349 LINE SMOOTH",
"728 162 OFFCURVE",
"578 16 OFFCURVE",
"399 16 CURVE SMOOTH",
"210 16 OFFCURVE",
"70 161 OFFCURVE",
"70 350 CURVE",
"62 341 LINE",
"733 341 LINE",
"733 360 LINE",
"50 360 LINE",
"50 350 LINE SMOOTH",
"50 148 OFFCURVE",
"198 -3 OFFCURVE",
"399 -3 CURVE SMOOTH"
);
}
);
width = 798;
},
{
anchors = (
{
name = bottom;
position = "{410, 0}";
},
{
name = top;
position = "{410, 700}";
}
);
background = {
paths = (
{
closed = 1;
nodes = (
"1534 -16 OFFCURVE",
"1692 140 OFFCURVE",
"1692 352 CURVE SMOOTH",
"1692 563 OFFCURVE",
"1534 716 OFFCURVE",
"1317 716 CURVE SMOOTH",
"1200 716 OFFCURVE",
"1099 674 OFFCURVE",
"1031 603 CURVE",
"1190 438 LINE",
"1216 490 OFFCURVE",
"1265 523 OFFCURVE",
"1320 523 CURVE SMOOTH",
"1386 523 OFFCURVE",
"1435 473 OFFCURVE",
"1449 398 CURVE",
"942 398 LINE",
"942 147 OFFCURVE",
"1090 -16 OFFCURVE",
"1317 -16 CURVE SMOOTH"
);
},
{
closed = 1;
nodes = (
"1261 177 OFFCURVE",
"1216 214 OFFCURVE",
"1194 271 CURVE",
"1442 271 LINE",
"1423 214 OFFCURVE",
"1382 177 OFFCURVE",
"1320 177 CURVE SMOOTH"
);
},
{
closed = 1;
nodes = (
"887 124 LINE",
"956 34 OFFCURVE",
"1064 -16 OFFCURVE",
"1201 -16 CURVE SMOOTH",
"1426 -16 OFFCURVE",
"1591 135 OFFCURVE",
"1591 350 CURVE SMOOTH",
"1591 565 OFFCURVE",
"1426 716 OFFCURVE",
"1201 716 CURVE SMOOTH",
"1064 716 OFFCURVE",
"956 666 OFFCURVE",
"887 576 CURVE",
"1036 443 LINE",
"1077 495 OFFCURVE",
"1126 525 OFFCURVE",
"1189 525 CURVE SMOOTH",
"1287 525 OFFCURVE",
"1353 457 OFFCURVE",
"1353 350 CURVE SMOOTH",
"1353 243 OFFCURVE",
"1287 175 OFFCURVE",
"1189 175 CURVE SMOOTH",
"1126 175 OFFCURVE",
"1077 205 OFFCURVE",
"1036 257 CURVE"
);
},
{
closed = 1;
nodes = (
"552 241 OFFCURVE",
"490 175 OFFCURVE",
"410 175 CURVE SMOOTH",
"331 175 OFFCURVE",
"268 241 OFFCURVE",
"268 350 CURVE",
"192 271 LINE",
"577 271 LINE",
"577 398 LINE",
"30 398 LINE",
"30 350 LINE SMOOTH",
"30 138 OFFCURVE",
"185 -16 OFFCURVE",
"410 -16 CURVE SMOOTH",
"629 -16 OFFCURVE",
"790 138 OFFCURVE",
"790 350 CURVE SMOOTH",
"790 565 OFFCURVE",
"625 716 OFFCURVE",
"400 716 CURVE SMOOTH",
"263 716 OFFCURVE",
"151 666 OFFCURVE",
"80 576 CURVE",
"229 443 LINE",
"272 495 OFFCURVE",
"323 525 OFFCURVE",
"388 525 CURVE SMOOTH",
"486 525 OFFCURVE",
"552 457 OFFCURVE",
"552 350 CURVE SMOOTH"
);
}
);
};
layerId = "5DA6E103-6A94-47F2-987D-4952DB8EA68E";
paths = (
{
closed = 1;
nodes = (
"629 -16 OFFCURVE",
"790 133 OFFCURVE",
"790 350 CURVE SMOOTH",
"790 565 OFFCURVE",
"625 716 OFFCURVE",
"390 716 CURVE SMOOTH",
"263 716 OFFCURVE",
"136 658 OFFCURVE",
"70 586 CURVE",
"209 443 LINE",
"252 495 OFFCURVE",
"333 525 OFFCURVE",
"388 525 CURVE SMOOTH",
"486 525 OFFCURVE",
"552 457 OFFCURVE",
"552 360 CURVE SMOOTH",
"552 312 LINE SMOOTH",
"552 215 OFFCURVE",
"504 157 OFFCURVE",
"410 157 CURVE SMOOTH",
"316 157 OFFCURVE",
"268 215 OFFCURVE",
"268 312 CURVE",
"192 253 LINE",
"577 253 LINE",
"577 398 LINE",
"30 398 LINE",
"30 360 LINE SMOOTH",
"30 133 OFFCURVE",
"185 -16 OFFCURVE",
"410 -16 CURVE SMOOTH"
);
}
);
width = 820;
},
{
associatedMasterId = UUID0;
layerId = "36F04124-8610-48E4-81FD-B0A3EC08BAC9";
name = "Light Aug 5 16, 18:01";
paths = (
{
closed = 1;
nodes = (
"703 316 LINE",
"703 344 LINE",
"50 344 LINE",
"50 138 OFFCURVE",
"181 -10 OFFCURVE",
"379 -10 CURVE SMOOTH",
"575 -10 OFFCURVE",
"720 138 OFFCURVE",
"720 344 CURVE SMOOTH",
"720 551 OFFCURVE",
"575 699 OFFCURVE",
"379 699 CURVE SMOOTH",
"269 699 OFFCURVE",
"173 657 OFFCURVE",
"109 588 CURVE",
"128 568 LINE",
"187 634 OFFCURVE",
"276 671 OFFCURVE",
"379 671 CURVE SMOOTH",
"561 671 OFFCURVE",
"692 537 OFFCURVE",
"692 344 CURVE SMOOTH",
"692 152 OFFCURVE",
"561 18 OFFCURVE",
"379 18 CURVE SMOOTH",
"203 18 OFFCURVE",
"90 140 OFFCURVE",
"77 316 CURVE"
);
}
);
width = 770;
},
{
associatedMasterId = "5DA6E103-6A94-47F2-987D-4952DB8EA68E";
layerId = "8851A81C-4DFF-413A-BD74-FFCFF4D28745";
name = "Bold Aug 5 16, 18:27";
paths = (
{
closed = 1;
nodes = (
"617 -10 OFFCURVE",
"775 143 OFFCURVE",
"775 351 CURVE SMOOTH",
"775 558 OFFCURVE",
"617 708 OFFCURVE",
"400 708 CURVE SMOOTH",
"283 708 OFFCURVE",
"182 667 OFFCURVE",
"114 598 CURVE",
"273 433 LINE",
"299 483 OFFCURVE",
"348 515 OFFCURVE",
"403 515 CURVE SMOOTH",
"483 515 OFFCURVE",
"537 446 OFFCURVE",
"537 350 CURVE SMOOTH",
"537 254 OFFCURVE",
"492 183 OFFCURVE",
"403 183 CURVE SMOOTH",
"318 183 OFFCURVE",
"263 254 OFFCURVE",
"263 350 CURVE SMOOTH",
"263 397 LINE",
"25 397 LINE",
"25 150 OFFCURVE",
"173 -10 OFFCURVE",
"400 -10 CURVE SMOOTH"
);
},
{
closed = 1;
nodes = (
"600 271 LINE",
"600 397 LINE",
"117 397 LINE",
"107 271 LINE"
);
}
);
width = 800;
}
);
leftKerningGroup = O;
leftMetricsKey = O;
rightKerningGroup = O;
rightMetricsKey = O;
unicode = 018F;
},
{
color = 4;
glyphname = T;
layers = (
{
anchors = (
{
name = bottom;
position = "{273, 0}";
},
{
name = center;
position = "{273, 350}";
},
{
name = top;
position = "{273, 700}";
}
);
background = {
paths = (
{
closed = 1;
nodes = (
"23 680 LINE",
"263 680 LINE",
"263 0 LINE",
"283 0 LINE",
"283 680 LINE",
"523 680 LINE",
"523 699 LINE",
"23 699 LINE"
);
},
{
closed = 1;
nodes = (
"-2 0 LINE",
"18 0 LINE",
"18 346 LINE",
"528 346 LINE",
"528 0 LINE",
"548 0 LINE",
"548 700 LINE",
"528 700 LINE",
"528 365 LINE",
"18 365 LINE",
"18 700 LINE",
"-2 700 LINE"
);
}
);
};
layerId = UUID0;
paths = (
{
closed = 1;
nodes = (
"3 681 LINE",
"263 681 LINE",
"263 0 LINE",
"283 0 LINE",
"283 681 LINE",
"543 681 LINE",
"543 700 LINE",
"3 700 LINE"
);
}
);
width = 546;
},
{
anchors = (
{
name = bottom;
position = "{326, 0}";
},
{
name = center;
position = "{326, 300}";
},
{
name = top;
position = "{343, 700}";
}
);
background = {
paths = (
{
closed = 1;
nodes = (
"11 518 LINE",
"210 518 LINE",
"210 0 LINE",
"442 0 LINE",
"442 518 LINE",
"642 518 LINE",
"642 701 LINE",
"11 701 LINE"
);
},
{
closed = 1;
nodes = (
"-18 0 LINE",
"218 0 LINE",
"218 258 LINE",
"436 258 LINE",
"436 0 LINE",
"672 0 LINE",
"672 700 LINE",
"436 700 LINE",
"436 452 LINE",
"218 452 LINE",
"218 700 LINE",
"-18 700 LINE"
);
}
);
};
layerId = "5DA6E103-6A94-47F2-987D-4952DB8EA68E";
paths = (
{
closed = 1;
nodes = (
"5 517 LINE",
"210 517 LINE",
"210 0 LINE",
"446 0 LINE",
"446 517 LINE",
"651 517 LINE",
"651 700 LINE",
"5 700 LINE"
);
}
);
width = 656;
}
);
leftKerningGroup = T;
rightKerningGroup = T;
rightMetricsKey = "=|";
unicode = 0054;
},
{
color = 4;
glyphname = U;
layers = (
{
anchors = (
{
name = bottom;
position = "{379, 0}";
},
{
name = ogonek;
position = "{566, 0}";
},
{
name = top;
position = "{380, 700}";
},
{
name = topright;
position = "{640, 700}";
}
);
background = {
paths = (
{
closed = 1;
nodes = (
"830 699 LINE",
"810 699 LINE",
"810 281 LINE SMOOTH",
"810 100 OFFCURVE",
"911 -3 OFFCURVE",
"1087 -3 CURVE SMOOTH",
"1263 -3 OFFCURVE",
"1364 100 OFFCURVE",
"1364 281 CURVE SMOOTH",
"1364 699 LINE",
"1344 699 LINE",
"1344 281 LINE SMOOTH",
"1344 113 OFFCURVE",
"1250 17 OFFCURVE",
"1087 17 CURVE SMOOTH",
"924 17 OFFCURVE",
"830 113 OFFCURVE",
"830 281 CURVE SMOOTH"
);
},
{
closed = 1;
nodes = (
"130 700 LINE",
"110 700 LINE",
"110 283 LINE SMOOTH",
"110 95 OFFCURVE",
"213 -3 OFFCURVE",
"380 -3 CURVE SMOOTH",
"547 -3 OFFCURVE",
"650 95 OFFCURVE",
"650 283 CURVE SMOOTH",
"650 700 LINE",
"630 700 LINE",
"630 285 LINE SMOOTH",
"630 109 OFFCURVE",
"539 16 OFFCURVE",
"380 16 CURVE SMOOTH",
"221 16 OFFCURVE",
"130 109 OFFCURVE",
"130 285 CURVE SMOOTH"
);
}
);
};
layerId = UUID0;
paths = (
{
closed = 1;
nodes = (
"130 700 LINE",
"110 700 LINE",
"110 293 LINE SMOOTH",
"110 95 OFFCURVE",
"213 -3 OFFCURVE",
"380 -3 CURVE SMOOTH",
"547 -3 OFFCURVE",
"650 95 OFFCURVE",
"650 293 CURVE SMOOTH",
"650 700 LINE",
"630 700 LINE",
"630 294 LINE SMOOTH",
"630 107 OFFCURVE",
"539 16 OFFCURVE",
"380 16 CURVE SMOOTH",
"221 16 OFFCURVE",
"130 107 OFFCURVE",
"130 294 CURVE SMOOTH"
);
}
);
width = 760;
},
{
anchors = (
{
name = bottom;
position = "{388, 0}";
},
{
name = ogonek;
position = "{616, 0}";
},
{
name = top;
position = "{388, 700}";
},
{
name = topright;
position = "{638, 700}";
}
);
background = {
paths = (
{
closed = 1;
nodes = (
"1079 701 LINE",
"847 701 LINE",
"847 291 LINE SMOOTH",
"847 106 OFFCURVE",
"979 -16 OFFCURVE",
"1180 -16 CURVE SMOOTH",
"1379 -16 OFFCURVE",
"1508 105 OFFCURVE",
"1508 291 CURVE SMOOTH",
"1508 701 LINE",
"1276 701 LINE",
"1276 291 LINE SMOOTH",
"1276 224 OFFCURVE",
"1237 177 OFFCURVE",
"1181 177 CURVE SMOOTH",
"1123 177 OFFCURVE",
"1079 226 OFFCURVE",
"1079 291 CURVE SMOOTH"
);
},
{
closed = 1;
nodes = (
"283 700 LINE",
"47 700 LINE",
"47 295 LINE SMOOTH",
"47 105 OFFCURVE",
"173 -16 OFFCURVE",
"388 -16 CURVE SMOOTH",
"603 -16 OFFCURVE",
"729 105 OFFCURVE",
"729 295 CURVE SMOOTH",
"729 700 LINE",
"497 700 LINE",
"497 300 LINE SMOOTH",
"497 216 OFFCURVE",
"455 175 OFFCURVE",
"390 175 CURVE SMOOTH",
"325 175 OFFCURVE",
"283 218 OFFCURVE",
"283 300 CURVE SMOOTH"
);
}
);
};
layerId = "5DA6E103-6A94-47F2-987D-4952DB8EA68E";
paths = (
{
closed = 1;
nodes = (
"283 700 LINE",
"47 700 LINE",
"47 315 LINE SMOOTH",
"47 105 OFFCURVE",
"173 -16 OFFCURVE",
"388 -16 CURVE SMOOTH",
"603 -16 OFFCURVE",
"729 105 OFFCURVE",
"729 315 CURVE SMOOTH",
"729 700 LINE",
"497 700 LINE",
"497 322 LINE SMOOTH",
"497 215 OFFCURVE",
"456 175 OFFCURVE",
"390 175 CURVE SMOOTH",
"324 175 OFFCURVE",
"283 215 OFFCURVE",
"283 322 CURVE SMOOTH"
);
}
);
width = 776;
}
);
leftKerningGroup = U;
rightKerningGroup = U;
rightMetricsKey = "=|";
unicode = 0055;
},
{
color = 4;
glyphname = V;
layers = (
{
background = {
paths = (
{
closed = 1;
nodes = (
"670 700 LINE",
"647 700 LINE",
"330 16 LINE",
"340 16 LINE",
"23 700 LINE",
"0 700 LINE",
"325 0 LINE",
"345 0 LINE"
);
}
);
};
layerId = UUID0;
paths = (
{
closed = 1;
nodes = (
"660 700 LINE",
"637 700 LINE",
"330 16 LINE",
"340 16 LINE",
"33 700 LINE",
"10 700 LINE",
"325 0 LINE",
"345 0 LINE"
);
}
);
width = 670;
},
{
background = {
paths = (
{
closed = 1;
nodes = (
"803 700 LINE",
"573 700 LINE",
"325 109 LINE",
"470 109 LINE",
"229 700 LINE",
"-21 700 LINE",
"275 0 LINE",
"507 0 LINE"
);
}
);
};
guideLines = (
{
angle = 113.6122;
position = "{366, 350}";
}
);
layerId = "5DA6E103-6A94-47F2-987D-4952DB8EA68E";
paths = (
{
closed = 1;
nodes = (
"803 700 LINE",
"571 700 LINE",
"323 109 LINE",
"474 109 LINE",
"233 700 LINE",
"-21 700 LINE",
"275 0 LINE",
"507 0 LINE"
);
}
);
width = 782;
}
);
leftKerningGroup = V;
rightKerningGroup = V;
rightMetricsKey = "=|";
unicode = 0056;
},
{
color = 4;
glyphname = W;
layers = (
{
anchors = (
{
name = bottom;
position = "{528, 0}";
},
{
name = top;
position = "{528, 699}";
}
);
background = {
paths = (
{
closed = 1;
nodes = (
"569 700 LINE",
"548 700 LINE",
"301 16 LINE",
"312 16 LINE",
"65 700 LINE",
"43 700 LINE",
"296 0 LINE",
"316 0 LINE"
);
},
{
closed = 1;
nodes = (
"1073 700 LINE",
"1052 700 LINE",
"805 16 LINE",
"816 16 LINE",
"569 700 LINE",
"557 700 LINE",
"553 684 LINE",
"800 0 LINE",
"820 0 LINE"
);
}
);
};
layerId = UUID0;
paths = (
{
closed = 1;
nodes = (
"808 16 LINE",
"818 16 LINE",
"568 700 LINE",
"548 700 LINE",
"298 16 LINE",
"309 16 LINE",
"65 700 LINE",
"43 700 LINE",
"293 0 LINE",
"313 0 LINE",
"560 678 LINE",
"556 678 LINE",
"803 0 LINE",
"823 0 LINE",
"1073 700 LINE",
"1052 700 LINE"
);
}
);
width = 1116;
},
{
anchors = (
{
name = bottom;
position = "{587, 0}";
},
{
name = top;
position = "{613, 700}";
}
);
background = {
paths = (
{
closed = 1;
nodes = (
"797 109 LINE",
"920 109 LINE",
"734 700 LINE",
"511 700 LINE",
"312 109 LINE",
"440 109 LINE",
"246 700 LINE",
"0 700 LINE",
"237 0 LINE",
"490 0 LINE",
"651 484 LINE",
"583 484 LINE",
"736 0 LINE",
"989 0 LINE",
"1226 700 LINE",
"999 700 LINE"
);
}
);
};
layerId = "5DA6E103-6A94-47F2-987D-4952DB8EA68E";
paths = (
{
closed = 1;
nodes = (
"800 109 LINE",
"923 109 LINE",
"734 700 LINE",
"511 700 LINE",
"309 109 LINE",
"437 109 LINE",
"246 700 LINE",
"0 700 LINE",
"234 0 LINE",
"487 0 LINE",
"651 484 LINE",
"583 484 LINE",
"739 0 LINE",
"992 0 LINE",
"1226 700 LINE",
"999 700 LINE"
);
}
);
width = 1226;
},
{
anchors = (
{
name = bottom;
position = "{561, 0}";
},
{
name = top;
position = "{561, 701}";
}
);
associatedMasterId = "5DA6E103-6A94-47F2-987D-4952DB8EA68E";
layerId = "EEA8680D-1FF3-40CE-9363-051D7C06078A";
name = "Nov 24 16, 19:29";
paths = (
{
closed = 1;
nodes = (
"222 0 LINE",
"461 0 LINE",
"561 419 LINE",
"658 0 LINE",
"897 0 LINE",
"1126 701 LINE",
"889 701 LINE",
"785 241 LINE",
"679 701 LINE",
"453 701 LINE",
"349 241 LINE",
"243 701 LINE",
"-5 701 LINE"
);
}
);
width = 1121;
},
{
anchors = (
{
name = bottom;
position = "{518, 0}";
},
{
name = top;
position = "{518, 700}";
}
);
associatedMasterId = UUID0;
layerId = "E72032C1-AF8F-44ED-9FB4-9F328EEA5C08";
name = "Nov 24 16, 19:29";
paths = (
{
closed = 1;
nodes = (
"235.462 0 LINE",
"357.077 0 LINE",
"524.923 554.692 LINE",
"690.846 0 LINE",
"812.462 0 LINE",
"1045.77 699.923 LINE",
"924 699.923 LINE",
"755.385 123.615 LINE",
"585.308 699.923 LINE",
"469 700 LINE",
"300 123.615 LINE",
"129.923 699.923 LINE",
"3.077 699.923 LINE"
);
}
);
width = 1036;
}
);
leftKerningGroup = V;
rightKerningGroup = V;
rightMetricsKey = "=|";
unicode = 0057;
},
{
color = 4;
glyphname = X;
layers = (
{
background = {
paths = (
{
closed = 1;
nodes = (
"896 362 LINE",
"635 0 LINE",
"659 0 LINE",
"908 346 LINE",
"1158 0 LINE",
"1182 0 LINE",
"920 362 LINE",
"1163 699 LINE",
"1139 699 LINE",
"908 379 LINE",
"678 699 LINE",
"654 699 LINE"
);
},
{
closed = 1;
nodes = (
"566 700 LINE",
"542 700 LINE",
"15 0 LINE",
"39 0 LINE"
);
},
{
closed = 1;
nodes = (
"60 700 LINE",
"35 700 LINE",
"561 0 LINE",
"586 0 LINE"
);
}
);
};
layerId = UUID0;
paths = (
{
closed = 1;
nodes = (
"586 0 LINE",
"313 362 LINE",
"301 377 LINE",
"60 700 LINE",
"35 700 LINE",
"288 362 LINE",
"300 347 LINE",
"561 0 LINE"
);
},
{
closed = 1;
nodes = (
"39 0 LINE",
"300 347 LINE",
"313 362 LINE",
"566 700 LINE",
"542 700 LINE",
"301 377 LINE",
"288 362 LINE",
"15 0 LINE"
);
}
);
width = 601;
},
{
background = {
paths = (
{
closed = 1;
nodes = (
"1650 700 LINE",
"1401 700 LINE",
"887 0 LINE",
"1146 0 LINE"
);
},
{
closed = 1;
nodes = (
"1396 0 LINE",
"1665 0 LINE",
"1164 700 LINE",
"902 700 LINE"
);
},
{
closed = 1;
nodes = (
"765 0 LINE",
"506 362 LINE",
"379 524 LINE",
"264 700 LINE",
"2 700 LINE",
"247 354 LINE",
"377 186 LINE",
"498 0 LINE"
);
},
{
closed = 1;
nodes = (
"259 0 LINE",
"377 186 LINE",
"506 362 LINE",
"750 700 LINE",
"499 700 LINE",
"379 524 LINE",
"247 354 LINE",
"-7 0 LINE"
);
}
);
};
layerId = "5DA6E103-6A94-47F2-987D-4952DB8EA68E";
paths = (
{
closed = 1;
nodes = (
"768 0 LINE",
"510 362 LINE",
"383 524 LINE",
"264 700 LINE",
"-1 700 LINE",
"243 354 LINE",
"377 187 LINE",
"498 0 LINE"
);
},
{
closed = 1;
nodes = (
"259 0 LINE",
"377 187 LINE",
"510 362 LINE",
"753 700 LINE",
"499 700 LINE",
"383 524 LINE",
"243 354 LINE",
"-10 0 LINE"
);
}
);
width = 759;
},
{
associatedMasterId = UUID0;
background = {
paths = (
{
closed = 0;
nodes = (
"551 699 LINE",
"47 0 LINE"
);
},
{
closed = 0;
nodes = (
"66 699 LINE",
"570 0 LINE"
);
}
);
};
layerId = "BC3F43BB-9F1F-4863-A9A9-2B20CB3BE0AF";
name = "Light Mar 13 12, 18:48";
paths = (
{
closed = 1;
nodes = (
"35 0 LINE",
"59 0 LINE",
"563 699 LINE",
"539 699 LINE"
);
},
{
closed = 1;
nodes = (
"558 0 LINE",
"582 0 LINE",
"78 699 LINE",
"54 699 LINE"
);
}
);
width = 617;
}
);
leftKerningGroup = X;
rightKerningGroup = X;
unicode = 0058;
},
{
color = 4;
glyphname = Y;
layers = (
{
anchors = (
{
name = bottom;
position = "{335, 0}";
},
{
name = top;
position = "{335, 700}";
}
);
background = {
paths = (
{
closed = 1;
nodes = (
"1002 258 LINE",
"1008 258 LINE",
"1296 699 LINE",
"1272 699 LINE",
"1005 289 LINE",
"734 699 LINE",
"710 699 LINE"
);
},
{
closed = 1;
nodes = (
"995 0 LINE",
"1015 0 LINE",
"1015 277 LINE",
"995 277 LINE"
);
},
{
closed = 1;
nodes = (
"325 0 LINE",
"345 0 LINE",
"345 197 LINE",
"325 197 LINE"
);
},
{
closed = 1;
nodes = (
"660 700 LINE",
"637 700 LINE",
"330 206 LINE",
"340 206 LINE",
"33 700 LINE",
"10 700 LINE",
"325 190 LINE",
"345 190 LINE"
);
}
);
};
layerId = UUID0;
paths = (
{
closed = 1;
nodes = (
"345 0 LINE",
"345 195 LINE",
"340 180 LINE",
"660 700 LINE",
"637 700 LINE",
"331 203 LINE",
"339 203 LINE",
"33 700 LINE",
"10 700 LINE",
"330 180 LINE",
"325 195 LINE",
"325 0 LINE"
);
}
);
width = 670;
},
{
anchors = (
{
name = bottom;
position = "{383, 0}";
},
{
name = top;
position = "{383, 700}";
}
);
background = {
paths = (
{
closed = 1;
nodes = (
"265 0 LINE",
"501 0 LINE",
"501 257 LINE",
"265 257 LINE"
);
},
{
closed = 1;
nodes = (
"795 700 LINE",
"563 700 LINE",
"315 289 LINE",
"466 289 LINE",
"225 700 LINE",
"-29 700 LINE",
"267 200 LINE",
"499 200 LINE"
);
}
);
};
layerId = "5DA6E103-6A94-47F2-987D-4952DB8EA68E";
paths = (
{
closed = 1;
nodes = (
"501 0 LINE",
"501 257 LINE",
"449 116 LINE",
"795 700 LINE",
"564 700 LINE",
"317 287 LINE",
"468 287 LINE",
"223 700 LINE",
"-29 700 LINE",
"319 116 LINE",
"265 257 LINE",
"265 0 LINE"
);
}
);
width = 766;
}
);
leftKerningGroup = V;
rightKerningGroup = V;
rightMetricsKey = "=|";
unicode = 0059;
},
{
color = 4;
glyphname = Z;
layers = (
{
anchors = (
{
name = bottom;
position = "{330, 0}";
},
{
name = top;
position = "{336, 700}";
}
);
background = {
paths = (
{
closed = 1;
nodes = (
"771 679 LINE",
"1280 679 LINE",
"757 25 LINE",
"757 0 LINE",
"1303 0 LINE",
"1303 20 LINE",
"777 20 LINE",
"1300 674 LINE",
"1300 699 LINE",
"771 699 LINE"
);
},
{
closed = 1;
nodes = (
"53 0 LINE",
"73 0 LINE",
"73 346 LINE",
"583 346 LINE",
"583 0 LINE",
"603 0 LINE",
"603 700 LINE",
"583 700 LINE",
"583 365 LINE",
"73 365 LINE",
"73 700 LINE",
"53 700 LINE"
);
}
);
};
layerId = UUID0;
paths = (
{
closed = 1;
nodes = (
"53 681 LINE",
"566 681 LINE",
"565 688 LINE",
"53 15 LINE",
"53 0 LINE",
"603 0 LINE",
"603 19 LINE",
"75 19 LINE",
"76 12 LINE",
"588 685 LINE",
"588 700 LINE",
"53 700 LINE"
);
}
);
width = 638;
},
{
anchors = (
{
name = bottom;
position = "{350, 0}";
},
{
name = top;
position = "{348, 700}";
}
);
background = {
paths = (
{
closed = 1;
nodes = (
"40 523 LINE",
"355 523 LINE",
"28 145 LINE",
"28 0 LINE",
"671 0 LINE",
"671 178 LINE",
"337 178 LINE",
"664 556 LINE",
"664 701 LINE",
"40 701 LINE"
);
}
);
};
layerId = "5DA6E103-6A94-47F2-987D-4952DB8EA68E";
paths = (
{
closed = 1;
nodes = (
"39 518 LINE",
"448 518 LINE",
"419 600 LINE",
"28 145 LINE",
"28 0 LINE",
"671 0 LINE",
"671 183 LINE",
"236 183 LINE",
"265 101 LINE",
"656 556 LINE",
"656 701 LINE",
"39 701 LINE"
);
}
);
width = 679;
}
);
leftKerningGroup = Z;
rightKerningGroup = Z;
unicode = 005A;
},
{
color = 4;
glyphname = A.ss01;
layers = (
{
anchors = (
{
name = bottom;
position = "{387, 0}";
},
{
name = ogonek;
position = "{660, 0}";
},
{
name = top;
position = "{385, 700}";
},
{
name = topleft;
position = "{74, 700}";
}
);
background = {
paths = (
{
closed = 1;
nodes = (
"110 0 LINE",
"130 0 LINE",
"130 346 LINE",
"640 346 LINE",
"640 0 LINE",
"660 0 LINE",
"660 700 LINE",
"640 700 LINE",
"640 365 LINE",
"130 365 LINE",
"130 700 LINE",
"110 700 LINE"
);
}
);
};
layerId = UUID0;
paths = (
{
closed = 1;
nodes = (
"130 0 LINE",
"130 409 LINE SMOOTH",
"130 593 OFFCURVE",
"226 684 OFFCURVE",
"385 684 CURVE SMOOTH",
"544 684 OFFCURVE",
"640 593 OFFCURVE",
"640 409 CURVE SMOOTH",
"640 0 LINE",
"660 0 LINE",
"660 407 LINE SMOOTH",
"660 605 OFFCURVE",
"552 703 OFFCURVE",
"385 703 CURVE SMOOTH",
"218 703 OFFCURVE",
"110 605 OFFCURVE",
"110 407 CURVE SMOOTH",
"110 0 LINE"
);
},
{
closed = 1;
nodes = (
"649 231 LINE",
"649 250 LINE",
"124 250 LINE",
"124 231 LINE"
);
}
);
width = 770;
},
{
anchors = (
{
name = bottom;
position = "{388, 0}";
},
{
name = ogonek;
position = "{729, 0}";
},
{
name = top;
position = "{388, 700}";
},
{
name = topleft;
position = "{47, 700}";
}
);
background = {
paths = (
{
closed = 1;
nodes = (
"47 0 LINE",
"283 0 LINE",
"283 258 LINE",
"501 258 LINE",
"501 0 LINE",
"737 0 LINE",
"737 700 LINE",
"501 700 LINE",
"501 452 LINE",
"283 452 LINE",
"283 700 LINE",
"47 700 LINE"
);
}
);
};
layerId = "5DA6E103-6A94-47F2-987D-4952DB8EA68E";
paths = (
{
closed = 1;
nodes = (
"283 0 LINE",
"283 393 LINE SMOOTH",
"283 483 OFFCURVE",
"328 525 OFFCURVE",
"392 525 CURVE SMOOTH",
"456 525 OFFCURVE",
"501 483 OFFCURVE",
"501 393 CURVE SMOOTH",
"501 0 LINE",
"737 0 LINE",
"737 373 LINE SMOOTH",
"737 592 OFFCURVE",
"596 716 OFFCURVE",
"392 716 CURVE SMOOTH",
"188 716 OFFCURVE",
"47 592 OFFCURVE",
"47 373 CURVE SMOOTH",
"47 0 LINE"
);
},
{
closed = 1;
nodes = (
"585 141 LINE",
"585 319 LINE",
"195 319 LINE",
"195 141 LINE"
);
}
);
width = 784;
}
);
leftKerningGroup = A.ss01;
leftMetricsKey = U;
rightKerningGroup = A.ss01;
rightMetricsKey = "=|";
},
{
color = 4;
glyphname = E.ss01;
layers = (
{
anchors = (
{
name = bottom;
position = "{317, 0}";
},
{
name = ogonek;
position = "{518, 0}";
},
{
name = top;
position = "{320, 700}";
},
{
name = topleft;
position = "{68, 700}";
}
);
background = {
paths = (
{
closed = 1;
nodes = (
"1131 361 LINE",
"1131 381 LINE",
"1022 381 LINE SMOOTH",
"902 381 OFFCURVE",
"815 443 OFFCURVE",
"815 530 CURVE SMOOTH",
"815 618 OFFCURVE",
"901 683 OFFCURVE",
"1020 683 CURVE SMOOTH",
"1074 683 OFFCURVE",
"1140 669 OFFCURVE",
"1176 650 CURVE",
"1186 668 LINE",
"1146 688 OFFCURVE",
"1076 703 OFFCURVE",
"1020 703 CURVE SMOOTH",
"890 703 OFFCURVE",
"795 630 OFFCURVE",
"795 530 CURVE SMOOTH",
"795 451 OFFCURVE",
"862 384 OFFCURVE",
"954 371 CURVE",
"845 359 OFFCURVE",
"765 282 OFFCURVE",
"765 188 CURVE SMOOTH",
"765 78 OFFCURVE",
"872 -3 OFFCURVE",
"1018 -3 CURVE SMOOTH",
"1085 -3 OFFCURVE",
"1170 18 OFFCURVE",
"1218 46 CURVE",
"1208 64 LINE",
"1158 37 OFFCURVE",
"1078 17 OFFCURVE",
"1018 17 CURVE SMOOTH",
"883 17 OFFCURVE",
"785 89 OFFCURVE",
"785 188 CURVE SMOOTH",
"785 288 OFFCURVE",
"885 361 OFFCURVE",
"1022 361 CURVE SMOOTH"
);
},
{
closed = 1;
nodes = (
"459 346 LINE",
"459 365 LINE",
"326 365 LINE SMOOTH",
"193 365 OFFCURVE",
"115 419 OFFCURVE",
"115 523 CURVE SMOOTH",
"115 613 OFFCURVE",
"188 684 OFFCURVE",
"330 684 CURVE SMOOTH",
"393 684 OFFCURVE",
"465 664 OFFCURVE",
"521 623 CURVE",
"532 639 LINE",
"481 678 OFFCURVE",
"404 703 OFFCURVE",
"329 703 CURVE SMOOTH",
"170 703 OFFCURVE",
"95 619 OFFCURVE",
"95 523 CURVE SMOOTH",
"95 406 OFFCURVE",
"186 350 OFFCURVE",
"312 350 CURVE",
"307 363 LINE",
"151 363 OFFCURVE",
"65 301 OFFCURVE",
"65 183 CURVE SMOOTH",
"65 79 OFFCURVE",
"148 -3 OFFCURVE",
"314 -3 CURVE SMOOTH",
"426 -3 OFFCURVE",
"523 38 OFFCURVE",
"570 96 CURVE",
"556 109 LINE",
"512 57 OFFCURVE",
"425 16 OFFCURVE",
"315 16 CURVE SMOOTH",
"163 16 OFFCURVE",
"85 86 OFFCURVE",
"85 183 CURVE SMOOTH",
"85 296 OFFCURVE",
"157 346 OFFCURVE",
"314 346 CURVE SMOOTH"
);
}
);
};
layerId = UUID0;
paths = (
{
closed = 1;
nodes = (
"469 346 LINE",
"469 365 LINE",
"305 365 LINE SMOOTH",
"187 365 OFFCURVE",
"115 421 OFFCURVE",
"115 520 CURVE SMOOTH",
"115 613 OFFCURVE",
"190 684 OFFCURVE",
"340 684 CURVE SMOOTH",
"417 684 OFFCURVE",
"487 664 OFFCURVE",
"546 627 CURVE",
"556 643 LINE",
"502 681 OFFCURVE",
"421 703 OFFCURVE",
"339 703 CURVE SMOOTH",
"178 703 OFFCURVE",
"95 621 OFFCURVE",
"95 521 CURVE SMOOTH",
"95 416 OFFCURVE",
"170 349 OFFCURVE",
"300 349 CURVE",
"296 362 LINE",
"165 362 OFFCURVE",
"65 301 OFFCURVE",
"65 184 CURVE SMOOTH",
"65 76 OFFCURVE",
"152 -3 OFFCURVE",
"324 -3 CURVE SMOOTH",
"440 -3 OFFCURVE",
"537 32 OFFCURVE",
"590 92 CURVE",
"575 105 LINE",
"524 49 OFFCURVE",
"433 16 OFFCURVE",
"325 16 CURVE SMOOTH",
"163 16 OFFCURVE",
"85 85 OFFCURVE",
"85 185 CURVE SMOOTH",
"85 295 OFFCURVE",
"177 346 OFFCURVE",
"306 346 CURVE SMOOTH"
);
}
);
width = 593;
},
{
anchors = (
{
name = bottom;
position = "{384, 0}";
},
{
name = ogonek;
position = "{663, 0}";
},
{
name = top;
position = "{364, 700}";
},
{
name = topleft;
position = "{-7, 700}";
}
);
background = {
paths = (
{
closed = 1;
nodes = (
"1539 272 LINE",
"1539 440 LINE",
"1346 440 LINE SMOOTH",
"1313 440 OFFCURVE",
"1279 454 OFFCURVE",
"1279 484 CURVE SMOOTH",
"1279 514 OFFCURVE",
"1314 533 OFFCURVE",
"1380 533 CURVE SMOOTH",
"1441 533 OFFCURVE",
"1510 518 OFFCURVE",
"1567 494 CURVE",
"1640 663 LINE",
"1576 696 OFFCURVE",
"1466 719 OFFCURVE",
"1360 719 CURVE SMOOTH",
"1173 719 OFFCURVE",
"1060 647 OFFCURVE",
"1060 529 CURVE SMOOTH",
"1060 459 OFFCURVE",
"1098 400 OFFCURVE",
"1161 370 CURVE",
"1069 339 OFFCURVE",
"1017 275 OFFCURVE",
"1017 191 CURVE SMOOTH",
"1017 62 OFFCURVE",
"1142 -16 OFFCURVE",
"1339 -16 CURVE SMOOTH",
"1462 -16 OFFCURVE",
"1587 14 OFFCURVE",
"1667 62 CURVE",
"1580 229 LINE",
"1528 198 OFFCURVE",
"1430 170 OFFCURVE",
"1361 170 CURVE SMOOTH",
"1302 170 OFFCURVE",
"1257 192 OFFCURVE",
"1257 226 CURVE SMOOTH",
"1257 256 OFFCURVE",
"1292 272 OFFCURVE",
"1346 272 CURVE SMOOTH"
);
},
{
closed = 1;
nodes = (
"1249 268 LINE",
"1249 438 LINE",
"1050 438 LINE SMOOTH",
"1007 438 OFFCURVE",
"988 455 OFFCURVE",
"988 481 CURVE SMOOTH",
"988 513 OFFCURVE",
"1020 536 OFFCURVE",
"1088 536 CURVE SMOOTH",
"1142 536 OFFCURVE",
"1203 526 OFFCURVE",
"1268 496 CURVE",
"1332 663 LINE",
"1264 697 OFFCURVE",
"1162 716 OFFCURVE",
"1064 716 CURVE SMOOTH",
"876 716 OFFCURVE",
"750 628 OFFCURVE",
"750 505 CURVE SMOOTH",
"750 404 OFFCURVE",
"839 333 OFFCURVE",
"967 333 CURVE",
"967 385 LINE",
"803 385 OFFCURVE",
"717 303 OFFCURVE",
"717 195 CURVE SMOOTH",
"717 69 OFFCURVE",
"850 -16 OFFCURVE",
"1054 -16 CURVE SMOOTH",
"1165 -16 OFFCURVE",
"1280 9 OFFCURVE",
"1362 50 CURVE",
"1293 217 LINE",
"1233 183 OFFCURVE",
"1148 164 OFFCURVE",
"1075 164 CURVE SMOOTH",
"985 164 OFFCURVE",
"955 190 OFFCURVE",
"955 221 CURVE SMOOTH",
"955 251 OFFCURVE",
"979 268 OFFCURVE",
"1024 268 CURVE SMOOTH"
);
},
{
closed = 1;
nodes = (
"542 268 LINE",
"542 438 LINE",
"355 438 LINE SMOOTH",
"308 438 OFFCURVE",
"288 455 OFFCURVE",
"288 480 CURVE SMOOTH",
"288 512 OFFCURVE",
"324 536 OFFCURVE",
"397 536 CURVE SMOOTH",
"454 536 OFFCURVE",
"515 525 OFFCURVE",
"578 498 CURVE",
"638 665 LINE",
"569 697 OFFCURVE",
"466 716 OFFCURVE",
"379 716 CURVE SMOOTH",
"173 716 OFFCURVE",
"50 625 OFFCURVE",
"50 500 CURVE SMOOTH",
"50 401 OFFCURVE",
"138 333 OFFCURVE",
"264 333 CURVE",
"259 385 LINE",
"117 385 OFFCURVE",
"22 314 OFFCURVE",
"22 202 CURVE SMOOTH",
"22 74 OFFCURVE",
"152 -16 OFFCURVE",
"369 -16 CURVE SMOOTH",
"475 -16 OFFCURVE",
"588 10 OFFCURVE",
"659 50 CURVE",
"593 217 LINE",
"533 184 OFFCURVE",
"450 164 OFFCURVE",
"383 164 CURVE SMOOTH",
"297 164 OFFCURVE",
"260 190 OFFCURVE",
"260 223 CURVE SMOOTH",
"260 251 OFFCURVE",
"285 268 OFFCURVE",
"337 268 CURVE SMOOTH"
);
}
);
};
layerId = "5DA6E103-6A94-47F2-987D-4952DB8EA68E";
paths = (
{
closed = 1;
nodes = (
"559 266 LINE",
"559 440 LINE",
"355 440 LINE SMOOTH",
"309 440 OFFCURVE",
"288 454 OFFCURVE",
"288 480 CURVE SMOOTH",
"288 509 OFFCURVE",
"319 536 OFFCURVE",
"421 536 CURVE SMOOTH",
"482 536 OFFCURVE",
"543 523 OFFCURVE",
"602 498 CURVE",
"665 670 LINE",
"595 698 OFFCURVE",
"500 716 OFFCURVE",
"403 716 CURVE SMOOTH",
"156 716 OFFCURVE",
"50 602 OFFCURVE",
"50 488 CURVE SMOOTH",
"50 399 OFFCURVE",
"119 333 OFFCURVE",
"264 333 CURVE",
"259 385 LINE",
"108 385 OFFCURVE",
"22 315 OFFCURVE",
"22 212 CURVE SMOOTH",
"22 85 OFFCURVE",
"143 -16 OFFCURVE",
"389 -16 CURVE SMOOTH",
"499 -16 OFFCURVE",
"611 8 OFFCURVE",
"685 45 CURVE",
"617 216 LINE",
"547 185 OFFCURVE",
"464 164 OFFCURVE",
"407 164 CURVE SMOOTH",
"294 164 OFFCURVE",
"260 189 OFFCURVE",
"260 221 CURVE SMOOTH",
"260 250 OFFCURVE",
"287 266 OFFCURVE",
"337 266 CURVE SMOOTH"
);
}
);
width = 683;
},
{
anchors = (
{
name = bottom;
position = "{328, 0}";
},
{
name = ogonek;
position = "{614, 0}";
},
{
name = top;
position = "{336, 701}";
},
{
name = topleft;
position = "{-5, 701}";
}
);
associatedMasterId = "5DA6E103-6A94-47F2-987D-4952DB8EA68E";
background = {
paths = (
{
closed = 1;
nodes = (
"497 271 LINE",
"497 438 LINE",
"315 438 LINE SMOOTH",
"290 438 OFFCURVE",
"274 456 OFFCURVE",
"274 476 CURVE SMOOTH",
"274 508 OFFCURVE",
"313 525 OFFCURVE",
"366 525 CURVE SMOOTH",
"413 525 OFFCURVE",
"466 511 OFFCURVE",
"519 487 CURVE",
"592 656 LINE",
"535 688 OFFCURVE",
"430 711 OFFCURVE",
"336 711 CURVE SMOOTH",
"167 711 OFFCURVE",
"55 637 OFFCURVE",
"55 520 CURVE SMOOTH",
"55 457 OFFCURVE",
"87 396 OFFCURVE",
"137 369 CURVE",
"63 340 OFFCURVE",
"15 270 OFFCURVE",
"15 193 CURVE SMOOTH",
"15 69 OFFCURVE",
"139 -10 OFFCURVE",
"314 -10 CURVE SMOOTH",
"427 -10 OFFCURVE",
"546 23 OFFCURVE",
"615 67 CURVE",
"528 234 LINE",
"496 211 OFFCURVE",
"415 176 OFFCURVE",
"348 176 CURVE SMOOTH",
"296 176 OFFCURVE",
"255 197 OFFCURVE",
"255 230 CURVE SMOOTH",
"255 255 OFFCURVE",
"279 271 OFFCURVE",
"315 271 CURVE SMOOTH"
);
}
);
};
layerId = "E00D325B-A1B5-48B2-B215-FF596AA4E03F";
name = "Nov 24 16, 19:27";
paths = (
{
closed = 1;
nodes = (
"497 271 LINE",
"497 438 LINE",
"315 438 LINE SMOOTH",
"290 438 OFFCURVE",
"274 456 OFFCURVE",
"274 476 CURVE SMOOTH",
"274 508 OFFCURVE",
"313 525 OFFCURVE",
"366 525 CURVE SMOOTH",
"413 525 OFFCURVE",
"466 511 OFFCURVE",
"519 487 CURVE",
"592 656 LINE",
"535 688 OFFCURVE",
"430 711 OFFCURVE",
"336 711 CURVE SMOOTH",
"167 711 OFFCURVE",
"55 637 OFFCURVE",
"55 520 CURVE SMOOTH",
"55 457 OFFCURVE",
"87 396 OFFCURVE",
"137 369 CURVE",
"63 340 OFFCURVE",
"15 270 OFFCURVE",
"15 193 CURVE SMOOTH",
"15 69 OFFCURVE",
"139 -10 OFFCURVE",
"314 -10 CURVE SMOOTH",
"427 -10 OFFCURVE",
"546 23 OFFCURVE",
"615 67 CURVE",
"528 234 LINE",
"496 211 OFFCURVE",
"415 176 OFFCURVE",
"348 176 CURVE SMOOTH",
"296 176 OFFCURVE",
"255 197 OFFCURVE",
"255 230 CURVE SMOOTH",
"255 255 OFFCURVE",
"279 271 OFFCURVE",
"315 271 CURVE SMOOTH"
);
}
);
width = 625;
},
{
anchors = (
{
name = bottom;
position = "{320, 0}";
},
{
name = ogonek;
position = "{551, 0}";
},
{
name = top;
position = "{327, 700}";
},
{
name = topleft;
position = "{15, 700}";
}
);
associatedMasterId = UUID0;
layerId = "9CC0DFF3-E6C8-4C2E-95C2-CC9105E0D14C";
name = "Nov 24 16, 19:28";
paths = (
{
closed = 1;
nodes = (
"461 314 LINE",
"461 414 LINE",
"319 414 LINE SMOOTH",
"241 414 OFFCURVE",
"188 458 OFFCURVE",
"188 515 CURVE SMOOTH",
"188 575 OFFCURVE",
"250 606 OFFCURVE",
"333 606 CURVE SMOOTH",
"385 606 OFFCURVE",
"449 594 OFFCURVE",
"496 573 CURVE",
"535 660 LINE",
"485 687 OFFCURVE",
"397 705 OFFCURVE",
"327 705 CURVE SMOOTH",
"179 705 OFFCURVE",
"77 631 OFFCURVE",
"77 526 CURVE SMOOTH",
"77 451 OFFCURVE",
"128 389 OFFCURVE",
"200 370 CURVE",
"104 349 OFFCURVE",
"42 274 OFFCURVE",
"42 190 CURVE SMOOTH",
"42 75 OFFCURVE",
"157 -5 OFFCURVE",
"315 -5 CURVE SMOOTH",
"405 -5 OFFCURVE",
"505 22 OFFCURVE",
"563 57 CURVE",
"517 144 LINE",
"474 119 OFFCURVE",
"389 94 OFFCURVE",
"320 94 CURVE SMOOTH",
"232 94 OFFCURVE",
"163 134 OFFCURVE",
"163 201 CURVE SMOOTH",
"163 266 OFFCURVE",
"228 314 OFFCURVE",
"319 314 CURVE SMOOTH"
);
}
);
width = 581;
}
);
leftKerningGroup = E.ss01;
rightKerningGroup = E.ss01;
},
{
color = 4;
glyphname = F.ss01;
layers = (
{
background = {
paths = (
{
closed = 1;
nodes = (
"1212 0 LINE",
"1231 0 LINE",
"1231 502 LINE SMOOTH",
"1231 609 OFFCURVE",
"1299 679 OFFCURVE",
"1403 679 CURVE SMOOTH",
"1457 679 OFFCURVE",
"1522 663 OFFCURVE",
"1568 639 CURVE",
"1577 659 LINE",
"1527 683 OFFCURVE",
"1463 699 OFFCURVE",
"1403 699 CURVE SMOOTH",
"1287 699 OFFCURVE",
"1212 622 OFFCURVE",
"1212 502 CURVE SMOOTH"
);
},
{
closed = 1;
nodes = (
"1227 322 LINE",
"1525 322 LINE",
"1525 342 LINE",
"1227 342 LINE"
);
},
{
closed = 1;
nodes = (
"110 0 LINE",
"130 0 LINE",
"130 487 LINE SMOOTH",
"130 615 OFFCURVE",
"206 684 OFFCURVE",
"344 684 CURVE SMOOTH",
"409 684 OFFCURVE",
"472 668 OFFCURVE",
"527 627 CURVE",
"542 642 LINE",
"485 684 OFFCURVE",
"416 703 OFFCURVE",
"350 703 CURVE SMOOTH",
"196 703 OFFCURVE",
"110 627 OFFCURVE",
"110 490 CURVE SMOOTH"
);
},
{
closed = 1;
nodes = (
"726 326 LINE",
"1043 326 LINE",
"1043 345 LINE",
"726 345 LINE"
);
}
);
};
layerId = UUID0;
paths = (
{
closed = 1;
nodes = (
"130 0 LINE",
"130 486 LINE SMOOTH",
"130 609 OFFCURVE",
"200 684 OFFCURVE",
"345 684 CURVE SMOOTH",
"409 684 OFFCURVE",
"475 667 OFFCURVE",
"527 626 CURVE",
"540 642 LINE",
"487 684 OFFCURVE",
"415 703 OFFCURVE",
"346 703 CURVE SMOOTH",
"185 703 OFFCURVE",
"110 615 OFFCURVE",
"110 490 CURVE SMOOTH",
"110 0 LINE"
);
},
{
closed = 1;
nodes = (
"473 326 LINE",
"473 345 LINE",
"126 345 LINE",
"126 326 LINE"
);
}
);
width = 551;
},
{
background = {
paths = (
{
closed = 1;
nodes = (
"47 0 LINE",
"283 0 LINE",
"283 419 LINE SMOOTH",
"283 490 OFFCURVE",
"323 525 OFFCURVE",
"405 525 CURVE SMOOTH",
"438 525 OFFCURVE",
"488 516 OFFCURVE",
"524 495 CURVE",
"592 673 LINE",
"543 700 OFFCURVE",
"470 716 OFFCURVE",
"372 716 CURVE SMOOTH",
"163 716 OFFCURVE",
"47 593 OFFCURVE",
"47 400 CURVE SMOOTH"
);
},
{
closed = 1;
nodes = (
"192 224 LINE",
"531 224 LINE",
"531 402 LINE",
"192 402 LINE"
);
}
);
};
layerId = "5DA6E103-6A94-47F2-987D-4952DB8EA68E";
paths = (
{
closed = 1;
nodes = (
"283 0 LINE",
"283 419 LINE SMOOTH",
"283 490 OFFCURVE",
"326 525 OFFCURVE",
"415 525 CURVE SMOOTH",
"451 525 OFFCURVE",
"505 516 OFFCURVE",
"544 495 CURVE",
"612 673 LINE",
"561 700 OFFCURVE",
"486 716 OFFCURVE",
"404 716 CURVE SMOOTH",
"167 716 OFFCURVE",
"47 593 OFFCURVE",
"47 400 CURVE SMOOTH",
"47 0 LINE"
);
},
{
closed = 1;
nodes = (
"531 224 LINE",
"531 402 LINE",
"192 402 LINE",
"192 224 LINE"
);
}
);
width = 602;
}
);
leftKerningGroup = F.ss01;
leftMetricsKey = U;
rightKerningGroup = F.ss01;
},
{
color = 4;
glyphname = G.ss01;
layers = (
{
anchors = (
{
name = bottom;
position = "{380, 0}";
},
{
name = top;
position = "{380, 699}";
}
);
background = {
paths = (
{
closed = 1;
nodes = (
"1307 -3 OFFCURVE",
"1393 27 OFFCURVE",
"1453 87 CURVE",
"1441 102 LINE",
"1380 40 OFFCURVE",
"1300 16 OFFCURVE",
"1212 16 CURVE SMOOTH",
"1016 16 OFFCURVE",
"870 161 OFFCURVE",
"870 350 CURVE SMOOTH",
"870 539 OFFCURVE",
"1016 684 OFFCURVE",
"1212 684 CURVE SMOOTH",
"1300 684 OFFCURVE",
"1377 661 OFFCURVE",
"1441 600 CURVE",
"1453 614 LINE",
"1393 674 OFFCURVE",
"1307 703 OFFCURVE",
"1212 703 CURVE SMOOTH",
"1004 703 OFFCURVE",
"850 552 OFFCURVE",
"850 350 CURVE SMOOTH",
"850 148 OFFCURVE",
"1004 -3 OFFCURVE",
"1212 -3 CURVE SMOOTH"
);
},
{
closed = 1;
nodes = (
"1453 0 LINE",
"1453 343 LINE",
"1434 343 LINE",
"1434 85 LINE",
"1434 81 LINE",
"1434 0 LINE"
);
},
{
closed = 1;
nodes = (
"200 703 OFFCURVE",
"50 552 OFFCURVE",
"50 350 CURVE SMOOTH",
"50 148 OFFCURVE",
"200 -3 OFFCURVE",
"399 -3 CURVE SMOOTH",
"598 -3 OFFCURVE",
"748 148 OFFCURVE",
"748 350 CURVE SMOOTH",
"748 552 OFFCURVE",
"598 703 OFFCURVE",
"399 703 CURVE SMOOTH"
);
},
{
closed = 1;
nodes = (
"586 684 OFFCURVE",
"728 539 OFFCURVE",
"728 350 CURVE SMOOTH",
"728 161 OFFCURVE",
"586 16 OFFCURVE",
"399 16 CURVE SMOOTH",
"212 16 OFFCURVE",
"70 161 OFFCURVE",
"70 350 CURVE SMOOTH",
"70 539 OFFCURVE",
"212 684 OFFCURVE",
"399 684 CURVE SMOOTH"
);
}
);
};
layerId = UUID0;
paths = (
{
closed = 1;
nodes = (
"489 -3 OFFCURVE",
"581 29 OFFCURVE",
"648 99 CURVE",
"641 120 LINE",
"575 48 OFFCURVE",
"485 16 OFFCURVE",
"399 16 CURVE SMOOTH",
"231 16 OFFCURVE",
"70 140 OFFCURVE",
"70 350 CURVE SMOOTH",
"70 539 OFFCURVE",
"216 684 OFFCURVE",
"412 684 CURVE SMOOTH",
"500 684 OFFCURVE",
"577 661 OFFCURVE",
"641 600 CURVE",
"653 614 LINE",
"593 674 OFFCURVE",
"507 703 OFFCURVE",
"412 703 CURVE SMOOTH",
"204 703 OFFCURVE",
"50 552 OFFCURVE",
"50 350 CURVE SMOOTH",
"50 123 OFFCURVE",
"224 -3 OFFCURVE",
"399 -3 CURVE SMOOTH"
);
},
{
closed = 1;
nodes = (
"653 0 LINE",
"653 343 LINE",
"634 343 LINE",
"634 100 LINE",
"634 96 LINE",
"634 0 LINE"
);
}
);
width = 763;
},
{
anchors = (
{
name = bottom;
position = "{417, 3}";
},
{
name = top;
position = "{421, 701}";
}
);
layerId = "5DA6E103-6A94-47F2-987D-4952DB8EA68E";
paths = (
{
closed = 1;
nodes = (
"517 -16 OFFCURVE",
"616 40 OFFCURVE",
"664 189 CURVE",
"564 251 LINE",
"537 197 OFFCURVE",
"480 171 OFFCURVE",
"417 171 CURVE SMOOTH",
"334 171 OFFCURVE",
"268 222 OFFCURVE",
"268 338 CURVE SMOOTH",
"268 454 OFFCURVE",
"334 521 OFFCURVE",
"438 521 CURVE SMOOTH",
"500 521 OFFCURVE",
"551 495 OFFCURVE",
"595 444 CURVE",
"746 577 LINE",
"675 664 OFFCURVE",
"564 712 OFFCURVE",
"426 712 CURVE SMOOTH",
"195 712 OFFCURVE",
"30 561 OFFCURVE",
"30 338 CURVE SMOOTH",
"30 110 OFFCURVE",
"189 -16 OFFCURVE",
"384 -16 CURVE SMOOTH"
);
},
{
closed = 1;
nodes = (
"726 0 LINE",
"726 365 LINE",
"521 365 LINE",
"521 115 LINE",
"572 90 LINE",
"572 0 LINE"
);
}
);
width = 753;
}
);
leftKerningGroup = O;
leftMetricsKey = O;
rightKerningGroup = G;
},
{
color = 4;
glyphname = I.ss01;
layers = (
{
anchors = (
{
name = bottom;
position = "{224, 0}";
},
{
name = ogonek;
position = "{234, 0}";
},
{
name = top;
position = "{224, 700}";
},
{
name = topleft;
position = "{20, 700}";
}
);
layerId = UUID0;
paths = (
{
closed = 1;
nodes = (
"60 681 LINE",
"388 681 LINE",
"388 700 LINE",
"60 700 LINE"
);
},
{
closed = 1;
nodes = (
"60 0 LINE",
"388 0 LINE",
"388 19 LINE",
"60 19 LINE"
);
},
{
closed = 1;
nodes = (
"214 10 LINE",
"234 10 LINE",
"234 690 LINE",
"214 690 LINE"
);
}
);
width = 448;
},
{
anchors = (
{
name = bottom;
position = "{262, 0}";
},
{
name = ogonek;
position = "{380, 0}";
},
{
name = top;
position = "{262, 700}";
},
{
name = topleft;
position = "{-16, 700}";
}
);
layerId = "5DA6E103-6A94-47F2-987D-4952DB8EA68E";
paths = (
{
closed = 1;
nodes = (
"39 522 LINE",
"485 522 LINE",
"485 700 LINE",
"39 700 LINE"
);
},
{
closed = 1;
nodes = (
"39 0 LINE",
"485 0 LINE",
"485 178 LINE",
"39 178 LINE"
);
},
{
closed = 1;
nodes = (
"144 20 LINE",
"380 20 LINE",
"380 681 LINE",
"144 681 LINE"
);
}
);
width = 524;
}
);
leftKerningGroup = I.ss01;
rightKerningGroup = I.ss01;
},
{
color = 4;
glyphname = J.ss01;
layers = (
{
anchors = (
{
name = top;
position = "{210, 700}";
}
);
background = {
paths = (
{
closed = 1;
nodes = (
"350 699 LINE",
"69 699 LINE",
"69 679 LINE",
"331 679 LINE",
"331 97 LINE",
"331 -18 OFFCURVE",
"277 -80 OFFCURVE",
"179 -80 CURVE",
"116 -80 OFFCURVE",
"60 -48 OFFCURVE",
"19 12 CURVE",
"5 -2 LINE",
"49 -65 OFFCURVE",
"111 -100 OFFCURVE",
"179 -100 CURVE",
"290 -100 OFFCURVE",
"350 -30 OFFCURVE",
"350 97 CURVE"
);
}
);
};
layerId = UUID0;
paths = (
{
closed = 1;
nodes = (
"351 700 LINE",
"69 700 LINE",
"69 681 LINE",
"331 681 LINE",
"331 96 LINE SMOOTH",
"331 -26 OFFCURVE",
"282 -84 OFFCURVE",
"180 -84 CURVE SMOOTH",
"114 -84 OFFCURVE",
"57 -51 OFFCURVE",
"19 8 CURVE",
"5 -4 LINE",
"42 -66 OFFCURVE",
"108 -103 OFFCURVE",
"179 -103 CURVE SMOOTH",
"293 -103 OFFCURVE",
"351 -37 OFFCURVE",
"351 94 CURVE SMOOTH"
);
}
);
width = 474;
},
{
anchors = (
{
name = top;
position = "{302, 700}";
}
);
background = {
paths = (
{
closed = 1;
nodes = (
"527 701 LINE",
"56 701 LINE",
"56 518 LINE",
"295 518 LINE",
"295 142 LINE SMOOTH",
"295 102 OFFCURVE",
"273 83 OFFCURVE",
"241 83 CURVE SMOOTH",
"206 83 OFFCURVE",
"150 107 OFFCURVE",
"95 162 CURVE",
"-10 12 LINE",
"61 -66 OFFCURVE",
"150 -110 OFFCURVE",
"263 -110 CURVE SMOOTH",
"424 -110 OFFCURVE",
"527 -20 OFFCURVE",
"527 137 CURVE SMOOTH"
);
}
);
};
layerId = "5DA6E103-6A94-47F2-987D-4952DB8EA68E";
paths = (
{
closed = 1;
nodes = (
"537 700 LINE",
"66 700 LINE",
"66 522 LINE",
"304 522 LINE",
"304 160 LINE SMOOTH",
"304 103 OFFCURVE",
"277 75 OFFCURVE",
"228 75 CURVE SMOOTH",
"189 75 OFFCURVE",
"154 94 OFFCURVE",
"117 138 CURVE",
"-10 -12 LINE",
"48 -80 OFFCURVE",
"139 -116 OFFCURVE",
"248 -116 CURVE SMOOTH",
"436 -116 OFFCURVE",
"537 -22 OFFCURVE",
"537 170 CURVE SMOOTH"
);
}
);
width = 595;
}
);
leftKerningGroup = J.ss01;
leftMetricsKey = J;
rightKerningGroup = J.ss01;
rightMetricsKey = J;
},
{
color = 4;
glyphname = M.ss01;
layers = (
{
anchors = (
{
name = bottom;
position = "{558, 0}";
},
{
name = top;
position = "{138, 699}";
}
);
layerId = UUID0;
paths = (
{
closed = 1;
nodes = (
"128 0 LINE",
"148 0 LINE",
"148 464 LINE",
"148 481 LINE",
"148 700 LINE",
"128 700 LINE"
);
},
{
closed = 1;
nodes = (
"548 0 LINE",
"568 0 LINE",
"568 442 LINE SMOOTH",
"568 615 OFFCURVE",
"483 703 OFFCURVE",
"349 703 CURVE SMOOTH",
"215 703 OFFCURVE",
"130 615 OFFCURVE",
"130 412 CURVE SMOOTH",
"130 300 LINE",
"148 300 LINE",
"148 421 LINE SMOOTH",
"148 603 OFFCURVE",
"221 684 OFFCURVE",
"348 684 CURVE SMOOTH",
"476 684 OFFCURVE",
"548 604 OFFCURVE",
"548 441 CURVE SMOOTH"
);
},
{
closed = 1;
nodes = (
"968 0 LINE",
"988 0 LINE",
"988 442 LINE SMOOTH",
"988 615 OFFCURVE",
"903 703 OFFCURVE",
"769 703 CURVE SMOOTH",
"635 703 OFFCURVE",
"548 615 OFFCURVE",
"548 415 CURVE SMOOTH",
"548 330 LINE",
"568 330 LINE",
"568 421 LINE SMOOTH",
"568 603 OFFCURVE",
"641 684 OFFCURVE",
"768 684 CURVE SMOOTH",
"896 684 OFFCURVE",
"968 604 OFFCURVE",
"968 441 CURVE SMOOTH"
);
}
);
width = 1098;
},
{
anchors = (
{
name = bottom;
position = "{584, 0}";
},
{
name = top;
position = "{176, 701}";
}
);
background = {
paths = (
{
closed = 1;
nodes = (
"476 0 LINE",
"711 0 LINE",
"711 458 LINE SMOOTH",
"711 615 OFFCURVE",
"622 716 OFFCURVE",
"487 716 CURVE SMOOTH",
"337 716 OFFCURVE",
"242 592 OFFCURVE",
"242 400 CURVE",
"292 395 LINE",
"292 463 OFFCURVE",
"331 508 OFFCURVE",
"389 508 CURVE SMOOTH",
"445 508 OFFCURVE",
"476 467 OFFCURVE",
"476 402 CURVE SMOOTH"
);
},
{
closed = 1;
nodes = (
"895 0 LINE",
"1130 0 LINE",
"1130 458 LINE SMOOTH",
"1130 615 OFFCURVE",
"1041 716 OFFCURVE",
"906 716 CURVE SMOOTH",
"756 716 OFFCURVE",
"661 592 OFFCURVE",
"661 400 CURVE",
"711 395 LINE",
"711 463 OFFCURVE",
"750 508 OFFCURVE",
"808 508 CURVE SMOOTH",
"864 508 OFFCURVE",
"895 467 OFFCURVE",
"895 402 CURVE SMOOTH"
);
},
{
closed = 1;
nodes = (
"60 0 LINE",
"292 0 LINE",
"292 701 LINE",
"60 701 LINE"
);
}
);
};
layerId = "5DA6E103-6A94-47F2-987D-4952DB8EA68E";
paths = (
{
closed = 1;
nodes = (
"60 0 LINE",
"296 0 LINE",
"296 522 LINE",
"289 551 LINE",
"289 700 LINE",
"60 700 LINE"
);
},
{
closed = 1;
nodes = (
"466 0 LINE",
"702 0 LINE",
"702 425 LINE SMOOTH",
"702 615 OFFCURVE",
"614 716 OFFCURVE",
"471 716 CURVE SMOOTH",
"312 716 OFFCURVE",
"234 602 OFFCURVE",
"234 415 CURVE SMOOTH",
"234 300 LINE",
"296 300 LINE",
"296 410 LINE SMOOTH",
"296 495 OFFCURVE",
"335 525 OFFCURVE",
"384 525 CURVE SMOOTH",
"433 525 OFFCURVE",
"466 496 OFFCURVE",
"466 418 CURVE SMOOTH"
);
},
{
closed = 1;
nodes = (
"872 0 LINE",
"1108 0 LINE",
"1108 425 LINE SMOOTH",
"1108 615 OFFCURVE",
"1014 716 OFFCURVE",
"859 716 CURVE SMOOTH",
"704 716 OFFCURVE",
"598 612 OFFCURVE",
"598 425 CURVE SMOOTH",
"598 300 LINE",
"702 300 LINE",
"702 410 LINE SMOOTH",
"702 495 OFFCURVE",
"741 525 OFFCURVE",
"790 525 CURVE SMOOTH",
"839 525 OFFCURVE",
"872 496 OFFCURVE",
"872 418 CURVE SMOOTH"
);
}
);
width = 1155;
}
);
leftKerningGroup = M.ss01;
leftMetricsKey = H;
rightKerningGroup = M.ss01;
rightMetricsKey = U;
},
{
color = 4;
glyphname = N.ss01;
layers = (
{
anchors = (
{
name = bottom;
position = "{396, 0}";
},
{
name = top;
position = "{398, 700}";
}
);
background = {
paths = (
{
closed = 1;
nodes = (
"662 0 LINE",
"682 0 LINE",
"682 449 LINE SMOOTH",
"682 596 OFFCURVE",
"577 703 OFFCURVE",
"432 703 CURVE SMOOTH",
"257 703 OFFCURVE",
"129 584 OFFCURVE",
"129 429 CURVE",
"147 429 LINE",
"147 572 OFFCURVE",
"267 683 OFFCURVE",
"432 683 CURVE SMOOTH",
"565 683 OFFCURVE",
"662 584 OFFCURVE",
"662 449 CURVE SMOOTH"
);
},
{
closed = 1;
nodes = (
"128 0 LINE",
"148 0 LINE",
"148 699 LINE",
"128 699 LINE"
);
}
);
};
layerId = UUID0;
paths = (
{
closed = 1;
nodes = (
"128 0 LINE",
"148 0 LINE",
"148 464 LINE",
"148 481 LINE",
"148 700 LINE",
"128 700 LINE"
);
},
{
closed = 1;
nodes = (
"648 0 LINE",
"668 0 LINE",
"668 422 LINE SMOOTH",
"668 605 OFFCURVE",
"565 703 OFFCURVE",
"399 703 CURVE SMOOTH",
"233 703 OFFCURVE",
"130 605 OFFCURVE",
"130 402 CURVE SMOOTH",
"130 300 LINE",
"148 300 LINE",
"148 401 LINE SMOOTH",
"148 593 OFFCURVE",
"239 684 OFFCURVE",
"398 684 CURVE SMOOTH",
"557 684 OFFCURVE",
"648 594 OFFCURVE",
"648 421 CURVE SMOOTH"
);
}
);
width = 778;
},
{
anchors = (
{
name = bottom;
position = "{391, 0}";
},
{
name = top;
position = "{411, 701}";
}
);
background = {
paths = (
{
closed = 1;
nodes = (
"496 0 LINE",
"731 0 LINE",
"731 458 LINE SMOOTH",
"731 615 OFFCURVE",
"639 716 OFFCURVE",
"496 716 CURVE SMOOTH",
"342 716 OFFCURVE",
"242 592 OFFCURVE",
"242 400 CURVE",
"292 395 LINE",
"292 464 OFFCURVE",
"335 508 OFFCURVE",
"403 508 CURVE SMOOTH",
"460 508 OFFCURVE",
"496 466 OFFCURVE",
"496 402 CURVE SMOOTH"
);
},
{
closed = 1;
nodes = (
"60 0 LINE",
"292 0 LINE",
"292 700 LINE",
"60 700 LINE"
);
}
);
};
layerId = "5DA6E103-6A94-47F2-987D-4952DB8EA68E";
paths = (
{
closed = 1;
nodes = (
"60 0 LINE",
"296 0 LINE",
"296 522 LINE",
"289 551 LINE",
"289 700 LINE",
"60 700 LINE"
);
},
{
closed = 1;
nodes = (
"510 0 LINE",
"746 0 LINE",
"746 405 LINE SMOOTH",
"746 605 OFFCURVE",
"650 716 OFFCURVE",
"485 716 CURVE SMOOTH",
"320 716 OFFCURVE",
"224 592 OFFCURVE",
"224 395 CURVE SMOOTH",
"224 300 LINE",
"296 300 LINE",
"296 390 LINE SMOOTH",
"296 483 OFFCURVE",
"345 525 OFFCURVE",
"406 525 CURVE SMOOTH",
"469 525 OFFCURVE",
"510 486 OFFCURVE",
"510 398 CURVE SMOOTH"
);
}
);
width = 793;
}
);
leftKerningGroup = N.ss01;
leftMetricsKey = H;
rightKerningGroup = N.ss01;
rightMetricsKey = U;
},
{
glyphname = Eng.ss01;
layers = (
{
anchors = (
{
name = bottom;
position = "{396, 0}";
},
{
name = ogonek;
position = "{206, 10}";
},
{
name = top;
position = "{396, 699}";
}
);
layerId = UUID0;
paths = (
{
closed = 1;
nodes = (
"662 0 LINE",
"682 0 LINE",
"682 445 LINE",
"682 592 OFFCURVE",
"577 699 OFFCURVE",
"432 699 CURVE",
"257 695 OFFCURVE",
"129 580 OFFCURVE",
"129 425 CURVE",
"147 425 LINE",
"147 568 OFFCURVE",
"267 675 OFFCURVE",
"432 679 CURVE",
"565 679 OFFCURVE",
"662 580 OFFCURVE",
"662 445 CURVE"
);
},
{
closed = 1;
nodes = (
"662 3 LINE",
"662 -114 OFFCURVE",
"608 -176 OFFCURVE",
"510 -176 CURVE SMOOTH",
"447 -176 OFFCURVE",
"391 -144 OFFCURVE",
"350 -84 CURVE",
"336 -98 LINE",
"380 -161 OFFCURVE",
"442 -196 OFFCURVE",
"510 -196 CURVE SMOOTH",
"621 -196 OFFCURVE",
"682 -126 OFFCURVE",
"682 0 CURVE"
);
},
{
closed = 1;
nodes = (
"128 0 LINE",
"148 0 LINE",
"148 699 LINE",
"128 699 LINE"
);
}
);
width = 792;
},
{
anchors = (
{
name = bottom;
position = "{391, 0}";
},
{
name = ogonek;
position = "{309, 10}";
},
{
name = top;
position = "{411, 701}";
}
);
layerId = "5DA6E103-6A94-47F2-987D-4952DB8EA68E";
paths = (
{
closed = 1;
nodes = (
"496 0 LINE",
"731 0 LINE",
"731 443 LINE SMOOTH",
"731 600 OFFCURVE",
"639 701 OFFCURVE",
"496 701 CURVE SMOOTH",
"342 701 OFFCURVE",
"242 577 OFFCURVE",
"242 385 CURVE",
"292 380 LINE",
"292 449 OFFCURVE",
"335 493 OFFCURVE",
"403 493 CURVE SMOOTH",
"460 493 OFFCURVE",
"496 451 OFFCURVE",
"496 387 CURVE SMOOTH"
);
},
{
closed = 1;
nodes = (
"496 12 LINE",
"496 -17 OFFCURVE",
"481 -32 OFFCURVE",
"452 -32 CURVE SMOOTH",
"431 -32 OFFCURVE",
"403 -25 OFFCURVE",
"369 -10 CURVE",
"298 -185 LINE",
"348 -211 OFFCURVE",
"403 -225 OFFCURVE",
"467 -225 CURVE SMOOTH",
"620 -225 OFFCURVE",
"722 -143 OFFCURVE",
"731 0 CURVE"
);
},
{
closed = 1;
nodes = (
"60 0 LINE",
"292 0 LINE",
"292 701 LINE",
"60 701 LINE"
);
}
);
width = 771;
}
);
leftKerningGroup = H;
leftMetricsKey = H;
rightKerningGroup = H;
},
{
color = 4;
glyphname = Q.ss01;
layers = (
{
background = {
paths = (
{
closed = 1;
nodes = (
"399 -135 LINE",
"419 -135 LINE",
"419 224 LINE",
"399 224 LINE"
);
},
{
closed = 1;
nodes = (
"212 703 OFFCURVE",
"50 544 OFFCURVE",
"50 351 CURVE SMOOTH",
"50 157 OFFCURVE",
"212 -3 OFFCURVE",
"409 -3 CURVE SMOOTH",
"606 -3 OFFCURVE",
"768 157 OFFCURVE",
"768 351 CURVE SMOOTH",
"768 544 OFFCURVE",
"606 703 OFFCURVE",
"409 703 CURVE SMOOTH"
);
},
{
closed = 1;
nodes = (
"595 683 OFFCURVE",
"748 533 OFFCURVE",
"748 351 CURVE SMOOTH",
"748 168 OFFCURVE",
"595 17 OFFCURVE",
"409 17 CURVE SMOOTH",
"223 17 OFFCURVE",
"70 168 OFFCURVE",
"70 351 CURVE SMOOTH",
"70 533 OFFCURVE",
"223 683 OFFCURVE",
"409 683 CURVE SMOOTH"
);
}
);
};
layerId = UUID0;
paths = (
{
closed = 1;
nodes = (
"614 -3 OFFCURVE",
"768 148 OFFCURVE",
"768 350 CURVE SMOOTH",
"768 552 OFFCURVE",
"614 703 OFFCURVE",
"409 703 CURVE SMOOTH",
"204 703 OFFCURVE",
"50 552 OFFCURVE",
"50 350 CURVE SMOOTH",
"50 148 OFFCURVE",
"204 -3 OFFCURVE",
"409 -3 CURVE SMOOTH"
);
},
{
closed = 1;
nodes = (
"419 -135 LINE",
"419 1 LINE",
"419 10 LINE",
"419 205 LINE",
"399 205 LINE",
"399 10 LINE",
"399 1 LINE",
"399 -135 LINE"
);
},
{
closed = 1;
nodes = (
"216 16 OFFCURVE",
"70 161 OFFCURVE",
"70 350 CURVE SMOOTH",
"70 539 OFFCURVE",
"216 684 OFFCURVE",
"409 684 CURVE SMOOTH",
"602 684 OFFCURVE",
"748 539 OFFCURVE",
"748 350 CURVE SMOOTH",
"748 161 OFFCURVE",
"602 16 OFFCURVE",
"409 16 CURVE SMOOTH"
);
}
);
width = 818;
},
{
background = {
paths = (
{
closed = 1;
nodes = (
"340 -116 LINE",
"510 -116 LINE",
"510 314 LINE",
"340 314 LINE"
);
},
{
closed = 1;
nodes = (
"197 716 OFFCURVE",
"30 562 OFFCURVE",
"30 350 CURVE SMOOTH",
"30 138 OFFCURVE",
"197 -16 OFFCURVE",
"425 -16 CURVE SMOOTH",
"653 -16 OFFCURVE",
"820 138 OFFCURVE",
"820 350 CURVE SMOOTH",
"820 562 OFFCURVE",
"653 716 OFFCURVE",
"425 716 CURVE SMOOTH"
);
},
{
closed = 1;
nodes = (
"512 525 OFFCURVE",
"582 459 OFFCURVE",
"582 350 CURVE SMOOTH",
"582 241 OFFCURVE",
"512 175 OFFCURVE",
"425 175 CURVE SMOOTH",
"338 175 OFFCURVE",
"268 241 OFFCURVE",
"268 350 CURVE SMOOTH",
"268 459 OFFCURVE",
"338 525 OFFCURVE",
"425 525 CURVE SMOOTH"
);
}
);
};
layerId = "5DA6E103-6A94-47F2-987D-4952DB8EA68E";
paths = (
{
closed = 1;
nodes = (
"653 -16 OFFCURVE",
"820 138 OFFCURVE",
"820 350 CURVE SMOOTH",
"820 562 OFFCURVE",
"653 716 OFFCURVE",
"425 716 CURVE SMOOTH",
"197 716 OFFCURVE",
"30 562 OFFCURVE",
"30 350 CURVE SMOOTH",
"30 138 OFFCURVE",
"197 -16 OFFCURVE",
"425 -16 CURVE SMOOTH"
);
},
{
closed = 1;
nodes = (
"543 -135 LINE",
"543 25 LINE",
"533 92 LINE",
"533 315 LINE",
"316 315 LINE",
"316 92 LINE",
"307 25 LINE",
"307 -135 LINE"
);
},
{
closed = 1;
nodes = (
"324 175 OFFCURVE",
"268 237 OFFCURVE",
"268 350 CURVE SMOOTH",
"268 459 OFFCURVE",
"338 525 OFFCURVE",
"425 525 CURVE SMOOTH",
"512 525 OFFCURVE",
"582 459 OFFCURVE",
"582 350 CURVE SMOOTH",
"582 237 OFFCURVE",
"526 175 OFFCURVE",
"425 175 CURVE SMOOTH"
);
}
);
width = 850;
},
{
associatedMasterId = UUID0;
background = {
paths = (
{
closed = 1;
nodes = (
"629 -3 OFFCURVE",
"783 148 OFFCURVE",
"783 350 CURVE SMOOTH",
"783 552 OFFCURVE",
"629 703 OFFCURVE",
"424 703 CURVE SMOOTH",
"219 703 OFFCURVE",
"65 552 OFFCURVE",
"65 350 CURVE SMOOTH",
"65 148 OFFCURVE",
"219 -3 OFFCURVE",
"424 -3 CURVE SMOOTH"
);
},
{
closed = 1;
nodes = (
"434 -135 LINE",
"434 1 LINE",
"434 10 LINE",
"434 204 LINE",
"414 204 LINE",
"414 10 LINE",
"414 1 LINE",
"414 -135 LINE"
);
},
{
closed = 1;
nodes = (
"231 16 OFFCURVE",
"85 161 OFFCURVE",
"85 350 CURVE SMOOTH",
"85 539 OFFCURVE",
"231 684 OFFCURVE",
"424 684 CURVE SMOOTH",
"617 684 OFFCURVE",
"763 539 OFFCURVE",
"763 350 CURVE SMOOTH",
"763 161 OFFCURVE",
"617 16 OFFCURVE",
"424 16 CURVE SMOOTH"
);
}
);
};
layerId = "83CCAB4E-7646-4F0C-B28F-F16420267D06";
name = "Regular [170]";
paths = (
{
closed = 1;
nodes = (
"659 -13 OFFCURVE",
"823 140 OFFCURVE",
"823 350 CURVE SMOOTH",
"823 560 OFFCURVE",
"659 713 OFFCURVE",
"436 713 CURVE SMOOTH",
"214 713 OFFCURVE",
"50 560 OFFCURVE",
"50 350 CURVE SMOOTH",
"50 140 OFFCURVE",
"214 -13 OFFCURVE",
"436 -13 CURVE SMOOTH"
);
},
{
closed = 1;
nodes = (
"529 -135 LINE",
"529 50 LINE",
"345 50 LINE",
"345 -135 LINE"
);
},
{
closed = 1;
nodes = (
"326 141 OFFCURVE",
"238 208 OFFCURVE",
"238 350 CURVE SMOOTH",
"238 476 OFFCURVE",
"326 559 OFFCURVE",
"437 559 CURVE SMOOTH",
"549 559 OFFCURVE",
"636 476 OFFCURVE",
"636 350 CURVE SMOOTH",
"636 208 OFFCURVE",
"549 141 OFFCURVE",
"437 141 CURVE SMOOTH"
);
}
);
width = 873;
},
{
associatedMasterId = "5DA6E103-6A94-47F2-987D-4952DB8EA68E";
background = {
paths = (
{
closed = 1;
nodes = (
"340 -116 LINE",
"510 -116 LINE",
"510 314 LINE",
"340 314 LINE"
);
},
{
closed = 1;
nodes = (
"197 716 OFFCURVE",
"30 562 OFFCURVE",
"30 350 CURVE SMOOTH",
"30 138 OFFCURVE",
"197 -16 OFFCURVE",
"425 -16 CURVE SMOOTH",
"653 -16 OFFCURVE",
"820 138 OFFCURVE",
"820 350 CURVE SMOOTH",
"820 562 OFFCURVE",
"653 716 OFFCURVE",
"425 716 CURVE SMOOTH"
);
},
{
closed = 1;
nodes = (
"512 525 OFFCURVE",
"582 459 OFFCURVE",
"582 350 CURVE SMOOTH",
"582 241 OFFCURVE",
"512 175 OFFCURVE",
"425 175 CURVE SMOOTH",
"338 175 OFFCURVE",
"268 241 OFFCURVE",
"268 350 CURVE SMOOTH",
"268 459 OFFCURVE",
"338 525 OFFCURVE",
"425 525 CURVE SMOOTH"
);
}
);
};
layerId = "BEABF591-5BC0-4CE5-A354-4906D5D47A10";
name = "Bold [170]";
paths = (
{
closed = 1;
nodes = (
"653 -16 OFFCURVE",
"820 138 OFFCURVE",
"820 350 CURVE SMOOTH",
"820 562 OFFCURVE",
"653 716 OFFCURVE",
"425 716 CURVE SMOOTH",
"197 716 OFFCURVE",
"30 562 OFFCURVE",
"30 350 CURVE SMOOTH",
"30 138 OFFCURVE",
"197 -16 OFFCURVE",
"425 -16 CURVE SMOOTH"
);
},
{
closed = 1;
nodes = (
"543 -135 LINE",
"543 65 LINE",
"307 65 LINE",
"307 -135 LINE"
);
},
{
closed = 1;
nodes = (
"338 175 OFFCURVE",
"268 241 OFFCURVE",
"268 350 CURVE SMOOTH",
"268 459 OFFCURVE",
"338 525 OFFCURVE",
"425 525 CURVE SMOOTH",
"512 525 OFFCURVE",
"582 459 OFFCURVE",
"582 350 CURVE SMOOTH",
"582 241 OFFCURVE",
"512 175 OFFCURVE",
"425 175 CURVE SMOOTH"
);
}
);
width = 850;
}
);
leftKerningGroup = O;
leftMetricsKey = O;
rightKerningGroup = O;
rightMetricsKey = O;
},
{
color = 4;
glyphname = Schwa.ss01;
layers = (
{
anchors = (
{
name = bottom;
position = "{399, 0}";
},
{
name = top;
position = "{399, 700}";
}
);
background = {
paths = (
{
closed = 1;
nodes = (
"593 -3 OFFCURVE",
"748 157 OFFCURVE",
"748 351 CURVE SMOOTH",
"748 552 OFFCURVE",
"594 703 OFFCURVE",
"389 703 CURVE SMOOTH",
"295 703 OFFCURVE",
"210 675 OFFCURVE",
"147 618 CURVE",
"158 603 LINE",
"225 661 OFFCURVE",
"302 684 OFFCURVE",
"389 684 CURVE SMOOTH",
"581 684 OFFCURVE",
"728 539 OFFCURVE",
"728 351 CURVE SMOOTH",
"728 349 LINE SMOOTH",
"728 162 OFFCURVE",
"578 16 OFFCURVE",
"399 16 CURVE SMOOTH",
"210 16 OFFCURVE",
"70 161 OFFCURVE",
"70 350 CURVE",
"62 341 LINE",
"733 341 LINE",
"733 360 LINE",
"50 360 LINE",
"50 350 LINE SMOOTH",
"50 148 OFFCURVE",
"198 -3 OFFCURVE",
"399 -3 CURVE SMOOTH"
);
}
);
};
layerId = UUID0;
paths = (
{
closed = 1;
nodes = (
"593 -3 OFFCURVE",
"748 157 OFFCURVE",
"748 351 CURVE SMOOTH",
"748 552 OFFCURVE",
"594 703 OFFCURVE",
"389 703 CURVE SMOOTH",
"295 703 OFFCURVE",
"210 675 OFFCURVE",
"147 618 CURVE",
"158 603 LINE",
"225 661 OFFCURVE",
"302 684 OFFCURVE",
"389 684 CURVE SMOOTH",
"581 684 OFFCURVE",
"728 539 OFFCURVE",
"728 351 CURVE SMOOTH",
"728 349 LINE SMOOTH",
"728 162 OFFCURVE",
"578 16 OFFCURVE",
"399 16 CURVE SMOOTH",
"269 16 OFFCURVE",
"162 84 OFFCURVE",
"107 191 CURVE",
"101 184 LINE",
"723 444 LINE",
"716 461 LINE",
"82 196 LINE",
"136 76 OFFCURVE",
"254 -3 OFFCURVE",
"399 -3 CURVE SMOOTH"
);
}
);
width = 798;
},
{
anchors = (
{
name = bottom;
position = "{410, 0}";
},
{
name = top;
position = "{410, 700}";
}
);
background = {
paths = (
{
closed = 1;
nodes = (
"629 -16 OFFCURVE",
"790 133 OFFCURVE",
"790 350 CURVE SMOOTH",
"790 565 OFFCURVE",
"625 716 OFFCURVE",
"390 716 CURVE SMOOTH",
"263 716 OFFCURVE",
"136 658 OFFCURVE",
"70 586 CURVE",
"209 443 LINE",
"252 495 OFFCURVE",
"333 525 OFFCURVE",
"388 525 CURVE SMOOTH",
"486 525 OFFCURVE",
"552 457 OFFCURVE",
"552 360 CURVE SMOOTH",
"552 312 LINE SMOOTH",
"552 215 OFFCURVE",
"504 157 OFFCURVE",
"410 157 CURVE SMOOTH",
"316 157 OFFCURVE",
"268 215 OFFCURVE",
"268 312 CURVE",
"192 253 LINE",
"577 253 LINE",
"577 398 LINE",
"30 398 LINE",
"30 360 LINE SMOOTH",
"30 133 OFFCURVE",
"185 -16 OFFCURVE",
"410 -16 CURVE SMOOTH"
);
}
);
};
layerId = "5DA6E103-6A94-47F2-987D-4952DB8EA68E";
paths = (
{
closed = 1;
nodes = (
"629 -16 OFFCURVE",
"790 133 OFFCURVE",
"790 350 CURVE SMOOTH",
"790 565 OFFCURVE",
"625 716 OFFCURVE",
"390 716 CURVE SMOOTH",
"263 716 OFFCURVE",
"136 658 OFFCURVE",
"70 586 CURVE",
"209 443 LINE",
"252 495 OFFCURVE",
"333 525 OFFCURVE",
"388 525 CURVE SMOOTH",
"486 525 OFFCURVE",
"552 457 OFFCURVE",
"552 360 CURVE SMOOTH",
"552 312 LINE SMOOTH",
"552 215 OFFCURVE",
"504 157 OFFCURVE",
"410 157 CURVE SMOOTH",
"306 157 OFFCURVE",
"268 215 OFFCURVE",
"278 312 CURVE",
"202 173 LINE",
"612 341 LINE",
"563 469 LINE",
"41 259 LINE",
"80 90 OFFCURVE",
"220 -16 OFFCURVE",
"410 -16 CURVE SMOOTH"
);
}
);
width = 820;
},
{
associatedMasterId = UUID0;
layerId = "22C34E66-4953-4804-87D8-92558BDB1580";
name = "Light Aug 5 16, 19:20";
paths = (
{
closed = 1;
nodes = (
"583 0 OFFCURVE",
"740 158 OFFCURVE",
"740 350 CURVE SMOOTH",
"740 542 OFFCURVE",
"583 699 OFFCURVE",
"391 699 CURVE SMOOTH",
"284 699 OFFCURVE",
"188 653 OFFCURVE",
"122 580 CURVE",
"135 565 LINE",
"198 635 OFFCURVE",
"289 679 OFFCURVE",
"391 679 CURVE SMOOTH",
"572 679 OFFCURVE",
"720 531 OFFCURVE",
"720 350 CURVE",
"42 350 LINE",
"42 158 OFFCURVE",
"199 0 OFFCURVE",
"391 0 CURVE SMOOTH"
);
},
{
closed = 1;
nodes = (
"217 20 OFFCURVE",
"73 158 OFFCURVE",
"63 330 CURVE",
"719 330 LINE",
"709 158 OFFCURVE",
"565 20 OFFCURVE",
"391 20 CURVE SMOOTH"
);
}
);
width = 790;
},
{
associatedMasterId = UUID0;
layerId = "24EE93CF-33EA-4C8B-81E7-985CA2F69EC9";
name = "Regular Aug 9 16, 01:32";
paths = (
{
closed = 1;
nodes = (
"591 -5 OFFCURVE",
"746 151 OFFCURVE",
"746 350 CURVE SMOOTH",
"746 549 OFFCURVE",
"591 703 OFFCURVE",
"391 703 CURVE SMOOTH",
"265 703 OFFCURVE",
"175 655 OFFCURVE",
"105 578 CURVE",
"190 502 LINE",
"236 564 OFFCURVE",
"310 603 OFFCURVE",
"392 603 CURVE SMOOTH",
"514 603 OFFCURVE",
"615 507 OFFCURVE",
"629 380 CURVE",
"30 380 LINE",
"30 155 OFFCURVE",
"177 -5 OFFCURVE",
"391 -5 CURVE SMOOTH"
);
},
{
closed = 1;
nodes = (
"273.093 95 OFFCURVE",
"184.609 168.982 OFFCURVE",
"158.168 279 CURVE",
"623 279 LINE",
"595 169 OFFCURVE",
"505 95 OFFCURVE",
"392 95 CURVE SMOOTH"
);
}
);
width = 600;
},
{
associatedMasterId = "5DA6E103-6A94-47F2-987D-4952DB8EA68E";
layerId = "E7572D53-6796-4B1D-B1DC-FBF113D1B585";
name = "Bold Aug 9 16, 01:48";
paths = (
{
closed = 1;
nodes = (
"617 -10 OFFCURVE",
"775 143 OFFCURVE",
"775 351 CURVE SMOOTH",
"775 558 OFFCURVE",
"617 708 OFFCURVE",
"400 708 CURVE SMOOTH",
"283 708 OFFCURVE",
"182 667 OFFCURVE",
"114 598 CURVE",
"273 433 LINE",
"299 483 OFFCURVE",
"348 515 OFFCURVE",
"403 515 CURVE SMOOTH",
"469.217 515 OFFCURVE",
"517.621 467.728 OFFCURVE",
"532.334 397 CURVE",
"25 397 LINE",
"25 150 OFFCURVE",
"173 -10 OFFCURVE",
"400 -10 CURVE SMOOTH"
);
},
{
closed = 1;
nodes = (
"343.719 183 OFFCURVE",
"299.029 217.535 OFFCURVE",
"277.413 271 CURVE",
"524.669 271 LINE",
"505.74 217.535 OFFCURVE",
"465.071 183 OFFCURVE",
"403 183 CURVE SMOOTH"
);
}
);
width = 800;
}
);
leftKerningGroup = Schwa.ss01;
widthMetricsKey = Schwa;
rightKerningGroup = Schwa.ss01;
rightMetricsKey = O;
},
{
color = 4;
glyphname = T.ss01;
layers = (
{
anchors = (
{
name = bottom;
position = "{273, 0}";
},
{
name = center;
position = "{273, 350}";
},
{
name = top;
position = "{273, 699}";
}
);
background = {
paths = (
{
closed = 1;
nodes = (
"850 624 LINE",
"925 662 OFFCURVE",
"1015 683 OFFCURVE",
"1100 683 CURVE SMOOTH",
"1187 683 OFFCURVE",
"1278 662 OFFCURVE",
"1352 624 CURVE",
"1360 640 LINE",
"1283 681 OFFCURVE",
"1191 703 OFFCURVE",
"1100 703 CURVE SMOOTH",
"1010 703 OFFCURVE",
"918 681 OFFCURVE",
"842 641 CURVE"
);
},
{
closed = 1;
nodes = (
"1091 0 LINE",
"1111 0 LINE",
"1111 690 LINE",
"1091 690 LINE"
);
},
{
closed = 1;
nodes = (
"3 681 LINE",
"263 681 LINE",
"263 0 LINE",
"283 0 LINE",
"283 681 LINE",
"543 681 LINE",
"543 700 LINE",
"3 700 LINE"
);
}
);
};
layerId = UUID0;
paths = (
{
closed = 1;
nodes = (
"96 664 OFFCURVE",
"187 684 OFFCURVE",
"272 684 CURVE SMOOTH",
"357 684 OFFCURVE",
"451 664 OFFCURVE",
"533 615 CURVE",
"543 631 LINE",
"456 682 OFFCURVE",
"362 703 OFFCURVE",
"272 703 CURVE SMOOTH",
"182 703 OFFCURVE",
"90 682 OFFCURVE",
"3 631 CURVE",
"13 615 LINE"
);
},
{
closed = 1;
nodes = (
"283 0 LINE",
"283 690 LINE",
"263 690 LINE",
"263 0 LINE"
);
}
);
width = 546;
},
{
anchors = (
{
name = bottom;
position = "{355, 0}";
},
{
name = center;
position = "{354, 300}";
},
{
name = top;
position = "{360, 701}";
}
);
background = {
paths = (
{
closed = 1;
nodes = (
"695 461 LINE",
"775 501 OFFCURVE",
"872 526 OFFCURVE",
"977 526 CURVE SMOOTH",
"1081 526 OFFCURVE",
"1177 502 OFFCURVE",
"1261 461 CURVE",
"1319 631 LINE",
"1219 686 OFFCURVE",
"1100 716 OFFCURVE",
"977 716 CURVE SMOOTH",
"854 716 OFFCURVE",
"735 686 OFFCURVE",
"637 632 CURVE"
);
},
{
closed = 1;
nodes = (
"862 0 LINE",
"1094 0 LINE",
"1094 606 LINE",
"862 606 LINE"
);
},
{
closed = 1;
nodes = (
"32 517 LINE",
"237 517 LINE",
"237 0 LINE",
"473 0 LINE",
"473 517 LINE",
"678 517 LINE",
"678 700 LINE",
"32 700 LINE"
);
}
);
};
layerId = "5DA6E103-6A94-47F2-987D-4952DB8EA68E";
paths = (
{
closed = 1;
nodes = (
"157 502 OFFCURVE",
"244 528 OFFCURVE",
"355 528 CURVE SMOOTH",
"466 528 OFFCURVE",
"553 502 OFFCURVE",
"637 455 CURVE",
"715 623 LINE",
"614 684 OFFCURVE",
"486 716 OFFCURVE",
"355 716 CURVE SMOOTH",
"224 716 OFFCURVE",
"96 684 OFFCURVE",
"-5 623 CURVE",
"73 455 LINE"
);
},
{
closed = 1;
nodes = (
"473 0 LINE",
"473 606 LINE",
"237 606 LINE",
"237 0 LINE"
);
}
);
width = 710;
}
);
leftKerningGroup = T;
rightKerningGroup = T;
},
{
color = 4;
glyphname = U.ss01;
layers = (
{
anchors = (
{
name = bottom;
position = "{396, 0}";
},
{
name = ogonek;
position = "{650, 0}";
},
{
name = top;
position = "{380, 700}";
},
{
name = topright;
position = "{644, 699}";
}
);
background = {
paths = (
{
closed = 1;
nodes = (
"130 699 LINE",
"110 699 LINE",
"110 254 LINE",
"110 105 OFFCURVE",
"215 -3 OFFCURVE",
"360 -3 CURVE",
"535 1 OFFCURVE",
"663 117 OFFCURVE",
"663 274 CURVE",
"645 274 LINE",
"645 129 OFFCURVE",
"525 21 OFFCURVE",
"360 17 CURVE",
"227 17 OFFCURVE",
"130 117 OFFCURVE",
"130 253 CURVE"
);
},
{
closed = 1;
nodes = (
"664 699 LINE",
"644 699 LINE",
"644 0 LINE",
"664 0 LINE"
);
}
);
};
layerId = UUID0;
paths = (
{
closed = 1;
nodes = (
"650 700 LINE",
"630 700 LINE",
"630 236 LINE",
"630 219 LINE",
"630 0 LINE",
"650 0 LINE"
);
},
{
closed = 1;
nodes = (
"130 700 LINE",
"110 700 LINE",
"110 278 LINE SMOOTH",
"110 95 OFFCURVE",
"213 -3 OFFCURVE",
"379 -3 CURVE SMOOTH",
"545 -3 OFFCURVE",
"648 95 OFFCURVE",
"648 298 CURVE SMOOTH",
"648 400 LINE",
"630 400 LINE",
"630 299 LINE SMOOTH",
"630 107 OFFCURVE",
"539 16 OFFCURVE",
"380 16 CURVE SMOOTH",
"221 16 OFFCURVE",
"130 106 OFFCURVE",
"130 279 CURVE SMOOTH"
);
}
);
width = 778;
},
{
anchors = (
{
name = bottom;
position = "{368, 0}";
},
{
name = ogonek;
position = "{629, 0}";
},
{
name = top;
position = "{390, 700}";
},
{
name = topright;
position = "{628, 700}";
}
);
background = {
paths = (
{
closed = 1;
nodes = (
"262 701 LINE",
"27 701 LINE",
"27 250 LINE SMOOTH",
"27 88 OFFCURVE",
"119 -16 OFFCURVE",
"262 -16 CURVE SMOOTH",
"416 -16 OFFCURVE",
"516 112 OFFCURVE",
"516 308 CURVE",
"466 315 LINE",
"466 241 OFFCURVE",
"423 192 OFFCURVE",
"355 192 CURVE SMOOTH",
"298 192 OFFCURVE",
"262 237 OFFCURVE",
"262 305 CURVE SMOOTH"
);
},
{
closed = 1;
nodes = (
"698 701 LINE",
"466 701 LINE",
"466 0 LINE",
"698 0 LINE"
);
}
);
};
layerId = "5DA6E103-6A94-47F2-987D-4952DB8EA68E";
paths = (
{
closed = 1;
nodes = (
"733 700 LINE",
"497 700 LINE",
"497 178 LINE",
"504 149 LINE",
"504 0 LINE",
"733 0 LINE"
);
},
{
closed = 1;
nodes = (
"283 700 LINE",
"47 700 LINE",
"47 295 LINE SMOOTH",
"47 95 OFFCURVE",
"143 -16 OFFCURVE",
"318 -16 CURVE SMOOTH",
"473 -16 OFFCURVE",
"569 108 OFFCURVE",
"569 305 CURVE SMOOTH",
"569 400 LINE",
"497 400 LINE",
"497 310 LINE SMOOTH",
"497 217 OFFCURVE",
"448 175 OFFCURVE",
"387 175 CURVE SMOOTH",
"324 175 OFFCURVE",
"283 214 OFFCURVE",
"283 302 CURVE SMOOTH"
);
}
);
width = 793;
}
);
leftKerningGroup = U.ss01;
leftMetricsKey = U;
rightKerningGroup = U.ss01;
rightMetricsKey = H;
},
{
glyphname = W.ss01;
layers = (
{
anchors = (
{
name = top;
position = "{601, 699}";
}
);
layerId = UUID0;
paths = (
{
closed = 1;
nodes = (
"1092 699 LINE",
"1072 699 LINE",
"1072 231 LINE SMOOTH",
"1072 101 OFFCURVE",
"983 17 OFFCURVE",
"845 17 CURVE SMOOTH",
"704 17 OFFCURVE",
"612 101 OFFCURVE",
"612 231 CURVE SMOOTH",
"612 699 LINE",
"592 699 LINE",
"592 231 LINE SMOOTH",
"592 101 OFFCURVE",
"500 17 OFFCURVE",
"357 17 CURVE SMOOTH",
"219 17 OFFCURVE",
"130 101 OFFCURVE",
"130 231 CURVE SMOOTH",
"130 699 LINE",
"110 699 LINE",
"110 231 LINE SMOOTH",
"110 89 OFFCURVE",
"207 -3 OFFCURVE",
"357 -3 CURVE SMOOTH",
"478 -3 OFFCURVE",
"574 58 OFFCURVE",
"602 152 CURVE",
"629 58 OFFCURVE",
"724 -3 OFFCURVE",
"845 -3 CURVE SMOOTH",
"995 -3 OFFCURVE",
"1092 89 OFFCURVE",
"1092 231 CURVE SMOOTH"
);
}
);
width = 1202;
},
{
anchors = (
{
name = top;
position = "{567, 701}";
}
);
layerId = "5DA6E103-6A94-47F2-987D-4952DB8EA68E";
paths = (
{
closed = 1;
nodes = (
"1094 701 LINE",
"862 701 LINE",
"862 282 LINE SMOOTH",
"862 222 OFFCURVE",
"827 178 OFFCURVE",
"776 178 CURVE SMOOTH",
"725 178 OFFCURVE",
"683 222 OFFCURVE",
"683 282 CURVE SMOOTH",
"683 701 LINE",
"451 701 LINE",
"451 282 LINE SMOOTH",
"451 222 OFFCURVE",
"413 178 OFFCURVE",
"363 178 CURVE SMOOTH",
"312 178 OFFCURVE",
"272 222 OFFCURVE",
"272 282 CURVE SMOOTH",
"272 701 LINE",
"40 701 LINE",
"40 282 LINE SMOOTH",
"40 110 OFFCURVE",
"161 -15 OFFCURVE",
"325 -15 CURVE SMOOTH",
"427 -15 OFFCURVE",
"520 35 OFFCURVE",
"568 103 CURVE",
"617 35 OFFCURVE",
"712 -15 OFFCURVE",
"813 -15 CURVE SMOOTH",
"975 -15 OFFCURVE",
"1094 110 OFFCURVE",
"1094 282 CURVE SMOOTH"
);
}
);
width = 1134;
},
{
anchors = (
{
name = top;
position = "{577, 701}";
}
);
associatedMasterId = "5DA6E103-6A94-47F2-987D-4952DB8EA68E";
layerId = "5736FB6A-3A4C-416F-9852-EE589884CE68";
name = "Nov 24 16, 19:29";
paths = (
{
closed = 1;
nodes = (
"1114 701 LINE",
"882 701 LINE",
"882 287 LINE SMOOTH",
"882 227 OFFCURVE",
"845 183 OFFCURVE",
"791 183 CURVE SMOOTH",
"737 183 OFFCURVE",
"693 227 OFFCURVE",
"693 287 CURVE SMOOTH",
"693 701 LINE",
"461 701 LINE",
"461 287 LINE SMOOTH",
"460 227 OFFCURVE",
"421 183 OFFCURVE",
"368 183 CURVE SMOOTH",
"314 183 OFFCURVE",
"272 227 OFFCURVE",
"272 287 CURVE SMOOTH",
"272 701 LINE",
"40 701 LINE",
"40 287 LINE SMOOTH",
"40 115 OFFCURVE",
"163 -10 OFFCURVE",
"330 -10 CURVE SMOOTH",
"435 -10 OFFCURVE",
"529 40 OFFCURVE",
"578 108 CURVE",
"628 40 OFFCURVE",
"724 -10 OFFCURVE",
"828 -10 CURVE SMOOTH",
"993 -10 OFFCURVE",
"1114 115 OFFCURVE",
"1114 287 CURVE SMOOTH"
);
}
);
width = 1154;
},
{
anchors = (
{
name = top;
position = "{589.632, 699.947}";
}
);
associatedMasterId = UUID0;
layerId = "F8D9EDC4-1158-4674-8F43-97B1FD0772EE";
name = "Nov 24 16, 19:29";
paths = (
{
closed = 1;
nodes = (
"1102.16 699.923 LINE",
"984.308 699.923 LINE",
"984.308 258.462 LINE SMOOTH",
"984.308 160.769 OFFCURVE",
"919.307 95.231 OFFCURVE",
"820.077 95.231 CURVE SMOOTH",
"719.231 95.231 OFFCURVE",
"649.385 160.769 OFFCURVE",
"649.385 258.462 CURVE SMOOTH",
"649.385 699.923 LINE",
"531.538 699.923 LINE",
"531.538 258.462 LINE SMOOTH",
"531.077 160.769 OFFCURVE",
"463.539 95.231 OFFCURVE",
"362.077 95.231 CURVE SMOOTH",
"262.846 95.231 OFFCURVE",
"195.538 160.769 OFFCURVE",
"195.538 258.462 CURVE SMOOTH",
"195.538 699.923 LINE",
"77.692 699.923 LINE",
"77.692 258.462 LINE SMOOTH",
"77.692 102.615 OFFCURVE",
"186.692 -5 OFFCURVE",
"344.538 -5 CURVE SMOOTH",
"458.154 -5 OFFCURVE",
"553.231 51.308 OFFCURVE",
"590.923 133.308 CURVE",
"628.539 51.308 OFFCURVE",
"724 -5 OFFCURVE",
"837.154 -5 CURVE SMOOTH",
"994.077 -5 OFFCURVE",
"1102.16 102.615 OFFCURVE",
"1102.16 258.462 CURVE SMOOTH"
);
}
);
width = 1179;
}
);
leftKerningGroup = W.ss01;
leftMetricsKey = U;
rightKerningGroup = W.ss01;
rightMetricsKey = U;
},
{
glyphname = Y.ss01;
layers = (
{
anchors = (
{
name = bottom;
position = "{387, -95}";
},
{
name = top;
position = "{367, 699}";
}
);
layerId = UUID0;
paths = (
{
closed = 1;
nodes = (
"130 699 LINE",
"110 699 LINE",
"110 414 LINE",
"110 267 OFFCURVE",
"212 160 OFFCURVE",
"353 160 CURVE",
"510 163 OFFCURVE",
"624 278 OFFCURVE",
"624 434 CURVE",
"606 434 LINE",
"606 290 OFFCURVE",
"499 183 OFFCURVE",
"353 180 CURVE",
"224 180 OFFCURVE",
"130 279 OFFCURVE",
"130 414 CURVE"
);
},
{
closed = 1;
nodes = (
"624 699 LINE",
"605 699 LINE",
"605 147 LINE",
"605 16 OFFCURVE",
"507 -80 OFFCURVE",
"373 -80 CURVE",
"277 -80 OFFCURVE",
"173 -34 OFFCURVE",
"127 28 CURVE",
"112 14 LINE",
"159 -52 OFFCURVE",
"269 -100 OFFCURVE",
"373 -100 CURVE",
"518 -100 OFFCURVE",
"624 4 OFFCURVE",
"624 147 CURVE"
);
}
);
width = 734;
},
{
anchors = (
{
name = bottom;
position = "{387, -95}";
},
{
name = top;
position = "{373, 701}";
}
);
layerId = "5DA6E103-6A94-47F2-987D-4952DB8EA68E";
paths = (
{
closed = 1;
nodes = (
"272 701 LINE",
"40 701 LINE",
"40 423 LINE SMOOTH",
"40 259 OFFCURVE",
"136 152 OFFCURVE",
"280 152 CURVE SMOOTH",
"430 152 OFFCURVE",
"524 267 OFFCURVE",
"524 448 CURVE",
"474 448 LINE",
"474 388 OFFCURVE",
"433 350 OFFCURVE",
"371 350 CURVE SMOOTH",
"310 350 OFFCURVE",
"272 387 OFFCURVE",
"272 445 CURVE SMOOTH"
);
},
{
closed = 1;
nodes = (
"706 701 LINE",
"474 701 LINE",
"474 202 LINE SMOOTH",
"474 130 OFFCURVE",
"417 83 OFFCURVE",
"330 83 CURVE",
"269 83 OFFCURVE",
"193 105 OFFCURVE",
"136 139 CURVE",
"50 -17 LINE",
"126 -73 OFFCURVE",
"246 -110 OFFCURVE",
"361 -110 CURVE SMOOTH",
"569 -110 OFFCURVE",
"706 11 OFFCURVE",
"706 197 CURVE SMOOTH"
);
}
);
width = 746;
}
);
leftKerningGroup = Y.ss01;
leftMetricsKey = U;
rightKerningGroup = Y.ss01;
rightMetricsKey = U;
},
{
glyphname = Z.ss01;
layers = (
{
anchors = (
{
name = bottom;
position = "{325, 0}";
},
{
name = top;
position = "{331, 699}";
}
);
layerId = UUID0;
paths = (
{
closed = 1;
nodes = (
"66 679 LINE",
"575 679 LINE",
"52 25 LINE",
"52 0 LINE",
"598 0 LINE",
"598 20 LINE",
"72 20 LINE",
"595 674 LINE",
"595 699 LINE",
"66 699 LINE"
);
},
{
closed = 1;
nodes = (
"116 342 LINE",
"327 342 LINE",
"327 362 LINE",
"116 362 LINE"
);
},
{
closed = 1;
nodes = (
"323 339 LINE",
"535 339 LINE",
"535 359 LINE",
"323 359 LINE"
);
}
);
width = 650;
},
{
anchors = (
{
name = bottom;
position = "{342, 0}";
},
{
name = top;
position = "{344, 701}";
}
);
layerId = "5DA6E103-6A94-47F2-987D-4952DB8EA68E";
paths = (
{
closed = 1;
nodes = (
"32 523 LINE",
"347 523 LINE",
"20 145 LINE",
"20 0 LINE",
"663 0 LINE",
"663 178 LINE",
"329 178 LINE",
"656 556 LINE",
"656 701 LINE",
"32 701 LINE"
);
},
{
closed = 1;
nodes = (
"68 297 LINE",
"360 297 LINE",
"360 436 LINE",
"68 436 LINE"
);
},
{
closed = 1;
nodes = (
"330 277 LINE",
"605 277 LINE",
"605 416 LINE",
"330 416 LINE"
);
}
);
width = 683;
}
);
leftKerningGroup = Z.ss01;
leftMetricsKey = Z;
rightKerningGroup = Z.ss01;
rightMetricsKey = Z;
},
{
glyphname = a;
layers = (
{
anchors = (
{
name = bottom;
position = "{285, 0}";
},
{
name = ogonek;
position = "{469, 0}";
},
{
name = top;
position = "{275, 517}";
}
);
background = {
anchors = (
{
name = bottom;
position = "{285, 0}";
},
{
name = ogonek;
position = "{469, 0}";
},
{
name = top;
position = "{275, 517}";
}
);
paths = (
{
closed = 1;
nodes = (
"458 262 LINE",
"458 282 LINE",
"255 282 LINE SMOOTH",
"137 282 OFFCURVE",
"63 233 OFFCURVE",
"63 149 CURVE SMOOTH",
"63 63 OFFCURVE",
"131 0 OFFCURVE",
"231 0 CURVE SMOOTH",
"338 0 OFFCURVE",
"424 47 OFFCURVE",
"467 156 CURVE",
"449 164 LINE",
"408 61 OFFCURVE",
"333 20 OFFCURVE",
"232 20 CURVE SMOOTH",
"141 20 OFFCURVE",
"83 73 OFFCURVE",
"83 149 CURVE SMOOTH",
"83 221 OFFCURVE",
"145 262 OFFCURVE",
"255 262 CURVE SMOOTH"
);
},
{
closed = 1;
nodes = (
"449 0 LINE",
"469 0 LINE",
"467 345 LINE",
"466 450 OFFCURVE",
"402 517 OFFCURVE",
"283 517 CURVE SMOOTH",
"210 517 OFFCURVE",
"148 487 OFFCURVE",
"90 441 CURVE",
"102 425 LINE",
"158 469 OFFCURVE",
"214 497 OFFCURVE",
"283 497 CURVE SMOOTH",
"392 497 OFFCURVE",
"446 440 OFFCURVE",
"447 345 CURVE"
);
}
);
};
layerId = UUID0;
paths = (
{
closed = 1;
nodes = (
"458 262 LINE",
"458 282 LINE",
"255 282 LINE SMOOTH",
"137 282 OFFCURVE",
"63 233 OFFCURVE",
"63 149 CURVE SMOOTH",
"63 63 OFFCURVE",
"131 0 OFFCURVE",
"231 0 CURVE SMOOTH",
"338 0 OFFCURVE",
"424 47 OFFCURVE",
"467 156 CURVE",
"449 164 LINE",
"408 61 OFFCURVE",
"333 20 OFFCURVE",
"232 20 CURVE SMOOTH",
"141 20 OFFCURVE",
"83 73 OFFCURVE",
"83 149 CURVE SMOOTH",
"83 221 OFFCURVE",
"145 262 OFFCURVE",
"255 262 CURVE SMOOTH"
);
},
{
closed = 1;
nodes = (
"449 0 LINE",
"469 0 LINE",
"467 345 LINE",
"466 450 OFFCURVE",
"402 517 OFFCURVE",
"283 517 CURVE SMOOTH",
"210 517 OFFCURVE",
"148 487 OFFCURVE",
"90 441 CURVE",
"102 425 LINE",
"158 469 OFFCURVE",
"214 497 OFFCURVE",
"283 497 CURVE SMOOTH",
"392 497 OFFCURVE",
"446 440 OFFCURVE",
"447 345 CURVE"
);
}
);
width = 562;
},
{
anchors = (
{
name = bottom;
position = "{285, 0}";
},
{
name = ogonek;
position = "{516, 0}";
},
{
name = top;
position = "{308, 547}";
}
);
layerId = "5DA6E103-6A94-47F2-987D-4952DB8EA68E";
paths = (
{
closed = 1;
nodes = (
"371 225 LINE",
"371 329 LINE",
"227 329 LINE SMOOTH",
"88 327 OFFCURVE",
"15 270 OFFCURVE",
"15 162 CURVE SMOOTH",
"15 58 OFFCURVE",
"82 -10 OFFCURVE",
"198 -10 CURVE SMOOTH",
"291 -10 OFFCURVE",
"352 34 OFFCURVE",
"378 109 CURVE",
"352 175 LINE",
"334 148 OFFCURVE",
"305 133 OFFCURVE",
"276 133 CURVE SMOOTH",
"244 133 OFFCURVE",
"226 151 OFFCURVE",
"226 181 CURVE SMOOTH",
"226 210 OFFCURVE",
"243 225 OFFCURVE",
"274 225 CURVE SMOOTH"
);
},
{
closed = 1;
nodes = (
"352 0 LINE",
"573 0 LINE",
"573 354 LINE SMOOTH",
"573 483 OFFCURVE",
"479 557 OFFCURVE",
"321 557 CURVE SMOOTH",
"240 557 OFFCURVE",
"144 538 OFFCURVE",
"51 504 CURVE",
"101 354 LINE",
"163 377 OFFCURVE",
"226 389 OFFCURVE",
"267 389 CURVE SMOOTH",
"323 389 OFFCURVE",
"352 366 OFFCURVE",
"352 327 CURVE"
);
}
);
width = 613;
}
);
leftKerningGroup = a;
rightKerningGroup = n;
unicode = 0061;
},
{
glyphname = ae;
layers = (
{
anchors = (
{
name = top;
position = "{494, 517}";
}
);
background = {
paths = (
{
closed = 1;
nodes = (
"567 20 OFFCURVE",
"470 118 OFFCURVE",
"470 259 CURVE",
"940 259 LINE",
"940 409 OFFCURVE",
"843 517 OFFCURVE",
"700 517 CURVE SMOOTH",
"591 517 OFFCURVE",
"503 455 OFFCURVE",
"467 359 CURVE",
"461 456 OFFCURVE",
"397 517 OFFCURVE",
"283 517 CURVE SMOOTH",
"209 517 OFFCURVE",
"148 487 OFFCURVE",
"89 441 CURVE",
"101 425 LINE",
"158 469 OFFCURVE",
"213 497 OFFCURVE",
"283 497 CURVE SMOOTH",
"392 497 OFFCURVE",
"447 440 OFFCURVE",
"448 345 CURVE SMOOTH",
"449 282 LINE",
"256 282 LINE SMOOTH",
"138 282 OFFCURVE",
"63 233 OFFCURVE",
"63 149 CURVE SMOOTH",
"63 63 OFFCURVE",
"132 0 OFFCURVE",
"232 0 CURVE SMOOTH",
"339 0 OFFCURVE",
"424 46 OFFCURVE",
"469 155 CURVE",
"505 61 OFFCURVE",
"593 0 OFFCURVE",
"700 0 CURVE SMOOTH",
"780 0 OFFCURVE",
"849 30 OFFCURVE",
"897 81 CURVE",
"883 95 LINE",
"839 47 OFFCURVE",
"775 20 OFFCURVE",
"700 20 CURVE SMOOTH"
);
},
{
closed = 1;
nodes = (
"827 497 OFFCURVE",
"911 408 OFFCURVE",
"920 279 CURVE",
"471 279 LINE",
"479 408 OFFCURVE",
"573 497 OFFCURVE",
"700 497 CURVE SMOOTH"
);
},
{
closed = 1;
nodes = (
"142 20 OFFCURVE",
"83 73 OFFCURVE",
"83 149 CURVE SMOOTH",
"83 221 OFFCURVE",
"146 262 OFFCURVE",
"256 262 CURVE SMOOTH",
"450 262 LINE",
"450 259 LINE SMOOTH",
"450 232 OFFCURVE",
"453 207 OFFCURVE",
"460 184 CURVE",
"414 62 OFFCURVE",
"336 20 OFFCURVE",
"232 20 CURVE SMOOTH"
);
}
);
};
layerId = UUID0;
paths = (
{
closed = 1;
nodes = (
"470 259 LINE",
"940 259 LINE",
"940 411 OFFCURVE",
"841 517 OFFCURVE",
"700 517 CURVE SMOOTH",
"593 517 OFFCURVE",
"504 457 OFFCURVE",
"467 359 CURVE",
"461 459 OFFCURVE",
"393 517 OFFCURVE",
"283 517 CURVE SMOOTH",
"217 517 OFFCURVE",
"156 493 OFFCURVE",
"89 441 CURVE",
"101 425 LINE",
"166 475 OFFCURVE",
"221 497 OFFCURVE",
"283 497 CURVE SMOOTH",
"389 497 OFFCURVE",
"447 443 OFFCURVE",
"448 345 CURVE SMOOTH",
"449 282 LINE",
"256 282 LINE SMOOTH",
"136 282 OFFCURVE",
"63 232 OFFCURVE",
"63 149 CURVE SMOOTH",
"63 62 OFFCURVE",
"133 0 OFFCURVE",
"232 0 CURVE SMOOTH",
"342 0 OFFCURVE",
"418 54 OFFCURVE",
"462 160 CURVE",
"497 67 OFFCURVE",
"591 0 OFFCURVE",
"700 0 CURVE SMOOTH",
"778 0 OFFCURVE",
"848 29 OFFCURVE",
"897 81 CURVE",
"883 95 LINE",
"838 46 OFFCURVE",
"774 20 OFFCURVE",
"700 20 CURVE SMOOTH",
"578 20 OFFCURVE",
"470 120 OFFCURVE",
"470 232 CURVE SMOOTH"
);
},
{
closed = 1;
nodes = (
"450 262 LINE",
"450 184 LINE SMOOTH",
"406 68 OFFCURVE",
"342 20 OFFCURVE",
"232 20 CURVE SMOOTH",
"143 20 OFFCURVE",
"83 72 OFFCURVE",
"83 149 CURVE SMOOTH",
"83 221 OFFCURVE",
"146 262 OFFCURVE",
"256 262 CURVE SMOOTH"
);
},
{
closed = 1;
nodes = (
"471 279 LINE",
"479 408 OFFCURVE",
"573 497 OFFCURVE",
"700 497 CURVE SMOOTH",
"824 497 OFFCURVE",
"911 411 OFFCURVE",
"920 279 CURVE"
);
}
);
width = 988;
},
{
anchors = (
{
name = top;
position = "{481, 547}";
}
);
layerId = "5DA6E103-6A94-47F2-987D-4952DB8EA68E";
paths = (
{
closed = 1;
nodes = (
"585 223 LINE",
"942 223 LINE",
"954 425 OFFCURVE",
"842 555 OFFCURVE",
"650 555 CURVE SMOOTH",
"589 555 OFFCURVE",
"538 540 OFFCURVE",
"497 512 CURVE",
"454 542 OFFCURVE",
"395 557 OFFCURVE",
"322 557 CURVE SMOOTH",
"241 557 OFFCURVE",
"145 538 OFFCURVE",
"51 504 CURVE",
"101 354 LINE",
"163 377 OFFCURVE",
"227 389 OFFCURVE",
"269 389 CURVE SMOOTH",
"320 389 OFFCURVE",
"349 370 OFFCURVE",
"354 338 CURVE SMOOTH",
"355 329 LINE",
"228 329 LINE SMOOTH",
"89 327 OFFCURVE",
"15 270 OFFCURVE",
"15 162 CURVE SMOOTH",
"15 58 OFFCURVE",
"91 -11 OFFCURVE",
"220 -11 CURVE SMOOTH",
"322 -11 OFFCURVE",
"395 27 OFFCURVE",
"436 93 CURVE",
"480 29 OFFCURVE",
"554 -8 OFFCURVE",
"656 -8 CURVE SMOOTH",
"763 -8 OFFCURVE",
"847 28 OFFCURVE",
"905 92 CURVE",
"788 207 LINE",
"754 175 OFFCURVE",
"715 158 OFFCURVE",
"676 158 CURVE SMOOTH",
"634 158 OFFCURVE",
"600 178 OFFCURVE",
"587 217 CURVE SMOOTH"
);
},
{
closed = 1;
nodes = (
"355 225 LINE",
"355 175 LINE",
"336 148 OFFCURVE",
"306 133 OFFCURVE",
"277 133 CURVE SMOOTH",
"245 133 OFFCURVE",
"226 151 OFFCURVE",
"226 181 CURVE SMOOTH",
"226 210 OFFCURVE",
"244 225 OFFCURVE",
"275 225 CURVE SMOOTH"
);
},
{
closed = 1;
nodes = (
"580 327 LINE",
"589 373 OFFCURVE",
"613 405 OFFCURVE",
"652 405 CURVE SMOOTH",
"692 405 OFFCURVE",
"720 372 OFFCURVE",
"717 327 CURVE"
);
}
);
width = 958;
},
{
anchors = (
{
name = top;
position = "{481, 547}";
}
);
associatedMasterId = "5DA6E103-6A94-47F2-987D-4952DB8EA68E";
layerId = "D5581161-1054-4A72-98C1-0512677BA3E4";
name = "Bold Dec 28 15, 16:31";
paths = (
{
closed = 1;
nodes = (
"547 327 LINE",
"547 223 LINE",
"942 223 LINE",
"954 425 OFFCURVE",
"842 555 OFFCURVE",
"650 555 CURVE SMOOTH",
"485 555 OFFCURVE",
"388 444 OFFCURVE",
"388 271 CURVE SMOOTH",
"388 102 OFFCURVE",
"480 -8 OFFCURVE",
"656 -8 CURVE SMOOTH",
"763 -8 OFFCURVE",
"847 28 OFFCURVE",
"905 92 CURVE",
"788 207 LINE",
"754 175 OFFCURVE",
"715 158 OFFCURVE",
"676 158 CURVE SMOOTH",
"615 158 OFFCURVE",
"576 202 OFFCURVE",
"576 284 CURVE SMOOTH",
"576 352 OFFCURVE",
"602 405 OFFCURVE",
"652 405 CURVE SMOOTH",
"692 405 OFFCURVE",
"720 372 OFFCURVE",
"717 327 CURVE"
);
},
{
closed = 1;
nodes = (
"374 225 LINE",
"374 329 LINE",
"228 329 LINE SMOOTH",
"89 327 OFFCURVE",
"15 270 OFFCURVE",
"15 162 CURVE SMOOTH",
"15 58 OFFCURVE",
"91 -11 OFFCURVE",
"220 -11 CURVE SMOOTH",
"339 -11 OFFCURVE",
"418 41 OFFCURVE",
"454 127 CURVE",
"355 175 LINE",
"336 148 OFFCURVE",
"306 133 OFFCURVE",
"277 133 CURVE SMOOTH",
"245 133 OFFCURVE",
"226 151 OFFCURVE",
"226 181 CURVE SMOOTH",
"226 210 OFFCURVE",
"244 225 OFFCURVE",
"275 225 CURVE SMOOTH"
);
},
{
closed = 1;
nodes = (
"355 114 LINE",
"576 114 LINE",
"576 354 LINE SMOOTH",
"576 483 OFFCURVE",
"481 557 OFFCURVE",
"322 557 CURVE SMOOTH",
"241 557 OFFCURVE",
"145 538 OFFCURVE",
"51 504 CURVE",
"101 354 LINE",
"163 377 OFFCURVE",
"227 389 OFFCURVE",
"269 389 CURVE SMOOTH",
"325 389 OFFCURVE",
"355 366 OFFCURVE",
"355 327 CURVE"
);
}
);
width = 958;
},
{
anchors = (
{
name = top;
position = "{494, 517}";
}
);
associatedMasterId = UUID0;
layerId = "7C7E88ED-44EE-476D-B2AE-5E89E54DD887";
name = "Light Dec 28 15, 16:31";
paths = (
{
closed = 1;
nodes = (
"462 279 LINE",
"462 259 LINE",
"940 259 LINE",
"940 409 OFFCURVE",
"843 517 OFFCURVE",
"700 517 CURVE SMOOTH",
"557 517 OFFCURVE",
"450 409 OFFCURVE",
"450 259 CURVE SMOOTH",
"450 108 OFFCURVE",
"557 0 OFFCURVE",
"700 0 CURVE SMOOTH",
"780 0 OFFCURVE",
"849 30 OFFCURVE",
"897 81 CURVE",
"883 95 LINE",
"839 47 OFFCURVE",
"775 20 OFFCURVE",
"700 20 CURVE SMOOTH",
"567 20 OFFCURVE",
"470 118 OFFCURVE",
"470 259 CURVE SMOOTH",
"470 399 OFFCURVE",
"567 497 OFFCURVE",
"700 497 CURVE SMOOTH",
"827 497 OFFCURVE",
"911 408 OFFCURVE",
"920 279 CURVE"
);
},
{
closed = 1;
nodes = (
"460 262 LINE",
"460 282 LINE",
"256 282 LINE",
"138 282 OFFCURVE",
"63 233 OFFCURVE",
"63 149 CURVE",
"63 63 OFFCURVE",
"132 0 OFFCURVE",
"232 0 CURVE",
"341 0 OFFCURVE",
"427 48 OFFCURVE",
"471 161 CURVE",
"465 199 LINE",
"420 65 OFFCURVE",
"340 20 OFFCURVE",
"232 20 CURVE",
"142 20 OFFCURVE",
"83 73 OFFCURVE",
"83 149 CURVE",
"83 221 OFFCURVE",
"146 262 OFFCURVE",
"256 262 CURVE"
);
},
{
closed = 1;
nodes = (
"450 259 LINE",
"470 259 LINE",
"468 345 LINE",
"467 450 OFFCURVE",
"402 517 OFFCURVE",
"283 517 CURVE",
"209 517 OFFCURVE",
"148 487 OFFCURVE",
"89 441 CURVE",
"101 425 LINE",
"158 469 OFFCURVE",
"213 497 OFFCURVE",
"283 497 CURVE",
"392 497 OFFCURVE",
"447 440 OFFCURVE",
"448 345 CURVE"
);
}
);
width = 988;
},
{
anchors = (
{
name = top;
position = "{488, 531}";
}
);
associatedMasterId = UUID0;
layerId = "25B3BCFD-08DD-49E9-8DD1-89DB015187C0";
name = "Regular Dec 28 15, 16:31";
paths = (
{
closed = 1;
nodes = (
"501 301 LINE",
"501 242 LINE",
"941 242 LINE",
"947 416 OFFCURVE",
"843 535 OFFCURVE",
"677 535 CURVE SMOOTH",
"524 535 OFFCURVE",
"422 425 OFFCURVE",
"422 265 CURVE SMOOTH",
"422 105 OFFCURVE",
"522 -4 OFFCURVE",
"680 -4 CURVE SMOOTH",
"772 -4 OFFCURVE",
"848 29 OFFCURVE",
"901 86 CURVE",
"839 147 LINE",
"800 106 OFFCURVE",
"747 84 OFFCURVE",
"689 84 CURVE SMOOTH",
"589 84 OFFCURVE",
"519 157 OFFCURVE",
"519 271 CURVE SMOOTH",
"519 377 OFFCURVE",
"583 455 OFFCURVE",
"678 455 CURVE SMOOTH",
"765 455 OFFCURVE",
"823 391 OFFCURVE",
"826 301 CURVE"
);
},
{
closed = 1;
nodes = (
"420 245 LINE",
"420 304 LINE",
"243 304 LINE",
"116 303 OFFCURVE",
"41 250 OFFCURVE",
"41 155 CURVE",
"41 61 OFFCURVE",
"113 -5 OFFCURVE",
"227 -5 CURVE",
"340 -5 OFFCURVE",
"423 45 OFFCURVE",
"463 145 CURVE",
"414 188 LINE",
"381 103 OFFCURVE",
"324 72 OFFCURVE",
"253 72 CURVE",
"190 72 OFFCURVE",
"149 109 OFFCURVE",
"149 164 CURVE",
"149 216 OFFCURVE",
"191 245 OFFCURVE",
"265 245 CURVE"
);
},
{
closed = 1;
nodes = (
"406 132 LINE",
"519 132 LINE",
"518 349 LINE",
"517 465 OFFCURVE",
"439 535 OFFCURVE",
"301 535 CURVE",
"224 535 OFFCURVE",
"147 511 OFFCURVE",
"72 470 CURVE",
"101 392 LINE",
"160 427 OFFCURVE",
"220 447 OFFCURVE",
"277 447 CURVE",
"361 447 OFFCURVE",
"405 406 OFFCURVE",
"405 337 CURVE"
);
}
);
width = 974;
},
{
anchors = (
{
name = top;
position = "{481, 547}";
}
);
associatedMasterId = "5DA6E103-6A94-47F2-987D-4952DB8EA68E";
layerId = "B101E7D7-4702-4121-973B-F9A3B0E1C3AA";
name = "Bold Dec 28 15, 16:31";
paths = (
{
closed = 1;
nodes = (
"547 327 LINE",
"547 223 LINE",
"942 223 LINE",
"954 425 OFFCURVE",
"842 555 OFFCURVE",
"650 555 CURVE SMOOTH",
"485 555 OFFCURVE",
"388 444 OFFCURVE",
"388 271 CURVE SMOOTH",
"388 102 OFFCURVE",
"480 -8 OFFCURVE",
"656 -8 CURVE SMOOTH",
"763 -8 OFFCURVE",
"847 28 OFFCURVE",
"905 92 CURVE",
"788 207 LINE",
"754 175 OFFCURVE",
"715 158 OFFCURVE",
"676 158 CURVE SMOOTH",
"615 158 OFFCURVE",
"576 202 OFFCURVE",
"576 284 CURVE SMOOTH",
"576 352 OFFCURVE",
"602 405 OFFCURVE",
"652 405 CURVE SMOOTH",
"692 405 OFFCURVE",
"720 372 OFFCURVE",
"717 327 CURVE"
);
},
{
closed = 1;
nodes = (
"374 225 LINE",
"374 329 LINE",
"228 329 LINE SMOOTH",
"89 327 OFFCURVE",
"15 270 OFFCURVE",
"15 162 CURVE SMOOTH",
"15 58 OFFCURVE",
"91 -11 OFFCURVE",
"220 -11 CURVE SMOOTH",
"339 -11 OFFCURVE",
"418 41 OFFCURVE",
"454 127 CURVE",
"355 175 LINE",
"336 148 OFFCURVE",
"306 133 OFFCURVE",
"277 133 CURVE SMOOTH",
"245 133 OFFCURVE",
"226 151 OFFCURVE",
"226 181 CURVE SMOOTH",
"226 210 OFFCURVE",
"244 225 OFFCURVE",
"275 225 CURVE SMOOTH"
);
},
{
closed = 1;
nodes = (
"355 114 LINE",
"576 114 LINE",
"576 354 LINE SMOOTH",
"576 483 OFFCURVE",
"481 557 OFFCURVE",
"322 557 CURVE SMOOTH",
"241 557 OFFCURVE",
"145 538 OFFCURVE",
"51 504 CURVE",
"101 354 LINE",
"163 377 OFFCURVE",
"227 389 OFFCURVE",
"269 389 CURVE SMOOTH",
"325 389 OFFCURVE",
"355 366 OFFCURVE",
"355 327 CURVE"
);
}
);
width = 958;
},
{
anchors = (
{
name = top;
position = "{494, 517}";
}
);
associatedMasterId = UUID0;
layerId = "356C851E-97E8-477F-8BB1-BAEAF2ADFEC0";
name = "Light Dec 28 15, 16:32";
paths = (
{
closed = 1;
nodes = (
"462 279 LINE",
"462 259 LINE",
"940 259 LINE",
"940 409 OFFCURVE",
"843 517 OFFCURVE",
"700 517 CURVE SMOOTH",
"557 517 OFFCURVE",
"450 409 OFFCURVE",
"450 259 CURVE SMOOTH",
"450 108 OFFCURVE",
"557 0 OFFCURVE",
"700 0 CURVE SMOOTH",
"780 0 OFFCURVE",
"849 30 OFFCURVE",
"897 81 CURVE",
"883 95 LINE",
"839 47 OFFCURVE",
"775 20 OFFCURVE",
"700 20 CURVE SMOOTH",
"567 20 OFFCURVE",
"470 118 OFFCURVE",
"470 259 CURVE SMOOTH",
"470 399 OFFCURVE",
"567 497 OFFCURVE",
"700 497 CURVE SMOOTH",
"827 497 OFFCURVE",
"911 408 OFFCURVE",
"920 279 CURVE"
);
},
{
closed = 1;
nodes = (
"460 262 LINE",
"460 282 LINE",
"256 282 LINE",
"138 282 OFFCURVE",
"63 233 OFFCURVE",
"63 149 CURVE",
"63 63 OFFCURVE",
"132 0 OFFCURVE",
"232 0 CURVE",
"341 0 OFFCURVE",
"427 48 OFFCURVE",
"471 161 CURVE",
"465 199 LINE",
"420 65 OFFCURVE",
"340 20 OFFCURVE",
"232 20 CURVE",
"142 20 OFFCURVE",
"83 73 OFFCURVE",
"83 149 CURVE",
"83 221 OFFCURVE",
"146 262 OFFCURVE",
"256 262 CURVE"
);
},
{
closed = 1;
nodes = (
"450 259 LINE",
"470 259 LINE",
"468 345 LINE",
"467 450 OFFCURVE",
"402 517 OFFCURVE",
"283 517 CURVE",
"209 517 OFFCURVE",
"148 487 OFFCURVE",
"89 441 CURVE",
"101 425 LINE",
"158 469 OFFCURVE",
"213 497 OFFCURVE",
"283 497 CURVE",
"392 497 OFFCURVE",
"447 440 OFFCURVE",
"448 345 CURVE"
);
}
);
width = 988;
}
);
leftKerningGroup = a;
rightKerningGroup = e;
unicode = 00E6;
},
{
glyphname = b;
layers = (
{
layerId = UUID0;
paths = (
{
closed = 1;
nodes = (
"221 517 OFFCURVE",
"115 408 OFFCURVE",
"115 258 CURVE",
"115 109 OFFCURVE",
"221 0 OFFCURVE",
"366 0 CURVE SMOOTH",
"511 0 OFFCURVE",
"617 109 OFFCURVE",
"617 258 CURVE SMOOTH",
"617 408 OFFCURVE",
"511 517 OFFCURVE",
"366 517 CURVE SMOOTH"
);
},
{
closed = 1;
nodes = (
"500 497 OFFCURVE",
"597 396 OFFCURVE",
"597 258 CURVE SMOOTH",
"597 120 OFFCURVE",
"500 20 OFFCURVE",
"366 20 CURVE SMOOTH",
"232 20 OFFCURVE",
"135 120 OFFCURVE",
"135 258 CURVE SMOOTH",
"135 396 OFFCURVE",
"232 497 OFFCURVE",
"366 497 CURVE SMOOTH"
);
},
{
closed = 1;
nodes = (
"115 0 LINE",
"135 0 LINE",
"135 742 LINE",
"115 742 LINE"
);
}
);
width = 669;
},
{
layerId = "5DA6E103-6A94-47F2-987D-4952DB8EA68E";
paths = (
{
closed = 1;
nodes = (
"298 555 OFFCURVE",
"217 443 OFFCURVE",
"217 271 CURVE",
"217 102 OFFCURVE",
"301 -8 OFFCURVE",
"430 -8 CURVE SMOOTH",
"579 -8 OFFCURVE",
"675 101 OFFCURVE",
"675 270 CURVE SMOOTH",
"675 443 OFFCURVE",
"576 555 OFFCURVE",
"424 555 CURVE SMOOTH"
);
},
{
closed = 1;
nodes = (
"416 382 OFFCURVE",
"448 340 OFFCURVE",
"448 276 CURVE SMOOTH",
"448 212 OFFCURVE",
"416 170 OFFCURVE",
"366 170 CURVE SMOOTH",
"317 170 OFFCURVE",
"285 212 OFFCURVE",
"285 276 CURVE SMOOTH",
"285 340 OFFCURVE",
"317 382 OFFCURVE",
"366 382 CURVE SMOOTH"
);
},
{
closed = 1;
nodes = (
"60 0 LINE",
"285 0 LINE",
"285 742 LINE",
"60 742 LINE"
);
}
);
width = 690;
}
);
leftKerningGroup = h;
rightKerningGroup = o;
unicode = 0062;
},
{
glyphname = c;
layers = (
{
anchors = (
{
name = bottom;
position = "{289, 0}";
},
{
name = top;
position = "{279, 517}";
}
);
layerId = UUID0;
paths = (
{
closed = 1;
nodes = (
"479 448 LINE",
"434 491 OFFCURVE",
"372 517 OFFCURVE",
"303 517 CURVE SMOOTH",
"159 517 OFFCURVE",
"52 409 OFFCURVE",
"52 259 CURVE SMOOTH",
"52 108 OFFCURVE",
"159 0 OFFCURVE",
"303 0 CURVE SMOOTH",
"379 0 OFFCURVE",
"445 30 OFFCURVE",
"490 81 CURVE",
"477 95 LINE",
"435 47 OFFCURVE",
"374 20 OFFCURVE",
"303 20 CURVE SMOOTH",
"169 20 OFFCURVE",
"71 118 OFFCURVE",
"71 259 CURVE SMOOTH",
"71 399 OFFCURVE",
"169 497 OFFCURVE",
"303 497 CURVE SMOOTH",
"368 497 OFFCURVE",
"423 473 OFFCURVE",
"466 434 CURVE"
);
}
);
width = 557;
},
{
anchors = (
{
name = bottom;
position = "{290, 0}";
},
{
name = top;
position = "{298, 547}";
}
);
layerId = "5DA6E103-6A94-47F2-987D-4952DB8EA68E";
paths = (
{
closed = 1;
nodes = (
"563 397 LINE",
"518 497 OFFCURVE",
"423 555 OFFCURVE",
"304 555 CURVE SMOOTH",
"129 555 OFFCURVE",
"15 443 OFFCURVE",
"15 271 CURVE SMOOTH",
"15 102 OFFCURVE",
"128 -8 OFFCURVE",
"302 -8 CURVE SMOOTH",
"427 -8 OFFCURVE",
"523 48 OFFCURVE",
"563 145 CURVE",
"381 229 LINE",
"369 188 OFFCURVE",
"346 170 OFFCURVE",
"314 170 CURVE SMOOTH",
"270 170 OFFCURVE",
"242 210 OFFCURVE",
"242 272 CURVE SMOOTH",
"242 333 OFFCURVE",
"270 373 OFFCURVE",
"314 373 CURVE SMOOTH",
"346 373 OFFCURVE",
"370 354 OFFCURVE",
"384 321 CURVE"
);
}
);
width = 561;
}
);
leftKerningGroup = o;
rightKerningGroup = c;
unicode = 0063;
},
{
glyphname = d;
layers = (
{
anchors = (
{
name = bottom;
position = "{330, 0}";
},
{
name = center;
position = "{496, 609}";
},
{
name = topright;
position = "{658, 742}";
}
);
layerId = UUID0;
paths = (
{
closed = 1;
nodes = (
"159 519 OFFCURVE",
"52 409 OFFCURVE",
"52 258 CURVE SMOOTH",
"52 108 OFFCURVE",
"159 -2 OFFCURVE",
"305 -2 CURVE SMOOTH",
"451 -2 OFFCURVE",
"558 108 OFFCURVE",
"558 258 CURVE",
"558 409 OFFCURVE",
"451 519 OFFCURVE",
"305 519 CURVE SMOOTH"
);
},
{
closed = 1;
nodes = (
"440 499 OFFCURVE",
"538 397 OFFCURVE",
"538 258 CURVE SMOOTH",
"538 119 OFFCURVE",
"440 18 OFFCURVE",
"305 18 CURVE SMOOTH",
"170 18 OFFCURVE",
"72 119 OFFCURVE",
"72 258 CURVE SMOOTH",
"72 397 OFFCURVE",
"170 499 OFFCURVE",
"305 499 CURVE SMOOTH"
);
},
{
closed = 1;
nodes = (
"538 0 LINE",
"558 0 LINE",
"558 742 LINE",
"538 742 LINE"
);
}
);
width = 673;
},
{
anchors = (
{
name = bottom;
position = "{354, 0}";
},
{
name = center;
position = "{505, 630}";
},
{
name = topright;
position = "{700, 742}";
}
);
layerId = "5DA6E103-6A94-47F2-987D-4952DB8EA68E";
paths = (
{
closed = 1;
nodes = (
"111 555 OFFCURVE",
"15 446 OFFCURVE",
"15 277 CURVE SMOOTH",
"15 104 OFFCURVE",
"114 -8 OFFCURVE",
"266 -8 CURVE SMOOTH",
"392 -8 OFFCURVE",
"473 104 OFFCURVE",
"473 276 CURVE",
"473 445 OFFCURVE",
"389 555 OFFCURVE",
"260 555 CURVE SMOOTH"
);
},
{
closed = 1;
nodes = (
"373 377 OFFCURVE",
"405 335 OFFCURVE",
"405 271 CURVE SMOOTH",
"405 207 OFFCURVE",
"373 165 OFFCURVE",
"324 165 CURVE SMOOTH",
"274 165 OFFCURVE",
"242 207 OFFCURVE",
"242 271 CURVE SMOOTH",
"242 335 OFFCURVE",
"274 377 OFFCURVE",
"324 377 CURVE SMOOTH"
);
},
{
closed = 1;
nodes = (
"405 0 LINE",
"630 0 LINE",
"630 742 LINE",
"405 742 LINE"
);
}
);
width = 690;
}
);
leftKerningGroup = o;
rightKerningGroup = l;
unicode = 0064;
},
{
glyphname = e;
layers = (
{
anchors = (
{
name = bottom;
position = "{295, 0}";
},
{
name = ogonek;
position = "{461, 0}";
},
{
name = top;
position = "{295, 517}";
}
);
layerId = UUID0;
paths = (
{
closed = 1;
nodes = (
"64 279 LINE",
"64 259 LINE",
"541 259 LINE",
"541 409 OFFCURVE",
"445 517 OFFCURVE",
"301 517 CURVE SMOOTH",
"158 517 OFFCURVE",
"52 409 OFFCURVE",
"52 259 CURVE SMOOTH",
"52 108 OFFCURVE",
"158 0 OFFCURVE",
"301 0 CURVE SMOOTH",
"381 0 OFFCURVE",
"451 30 OFFCURVE",
"498 81 CURVE",
"484 95 LINE",
"441 47 OFFCURVE",
"376 20 OFFCURVE",
"301 20 CURVE SMOOTH",
"168 20 OFFCURVE",
"72 118 OFFCURVE",
"72 259 CURVE SMOOTH",
"72 399 OFFCURVE",
"168 497 OFFCURVE",
"301 497 CURVE SMOOTH",
"429 497 OFFCURVE",
"512 408 OFFCURVE",
"521 279 CURVE"
);
}
);
width = 589;
},
{
anchors = (
{
name = bottom;
position = "{307, 0}";
},
{
name = ogonek;
position = "{535, 0}";
},
{
name = top;
position = "{303, 547}";
}
);
layerId = "5DA6E103-6A94-47F2-987D-4952DB8EA68E";
paths = (
{
closed = 1;
nodes = (
"204 327 LINE",
"204 223 LINE",
"598 223 LINE",
"610 425 OFFCURVE",
"498 555 OFFCURVE",
"307 555 CURVE SMOOTH",
"131 555 OFFCURVE",
"15 444 OFFCURVE",
"15 271 CURVE SMOOTH",
"15 102 OFFCURVE",
"126 -8 OFFCURVE",
"313 -8 CURVE SMOOTH",
"419 -8 OFFCURVE",
"503 28 OFFCURVE",
"561 92 CURVE",
"444 207 LINE",
"410 175 OFFCURVE",
"371 158 OFFCURVE",
"333 158 CURVE SMOOTH",
"272 158 OFFCURVE",
"233 202 OFFCURVE",
"233 284 CURVE SMOOTH",
"233 352 OFFCURVE",
"259 405 OFFCURVE",
"309 405 CURVE SMOOTH",
"348 405 OFFCURVE",
"376 372 OFFCURVE",
"373 327 CURVE"
);
}
);
width = 614;
}
);
leftKerningGroup = o;
rightKerningGroup = o;
unicode = 0065;
},
{
glyphname = f;
layers = (
{
background = {
paths = (
{
closed = 1;
nodes = (
"117 0 LINE",
"137 0 LINE",
"137 580 LINE",
"137 662 OFFCURVE",
"192 723 OFFCURVE",
"263 722 CURVE",
"295 721 OFFCURVE",
"327 709 OFFCURVE",
"353 689 CURVE",
"365 705 LINE",
"337 727 OFFCURVE",
"299 741 OFFCURVE",
"263 742 CURVE",
"182 743 OFFCURVE",
"117 672 OFFCURVE",
"117 580 CURVE"
);
},
{
closed = 1;
nodes = (
"52 487 LINE",
"305 487 LINE",
"305 507 LINE",
"52 507 LINE"
);
}
);
};
layerId = UUID0;
paths = (
{
closed = 1;
nodes = (
"117 0 LINE",
"137 0 LINE",
"137 590 LINE SMOOTH",
"137 672 OFFCURVE",
"192 732 OFFCURVE",
"263 732 CURVE SMOOTH",
"288 732 OFFCURVE",
"313 724 OFFCURVE",
"335 711 CURVE",
"346 728 LINE",
"321 742 OFFCURVE",
"291 751 OFFCURVE",
"263 752 CURVE SMOOTH",
"182 755 OFFCURVE",
"117 682 OFFCURVE",
"117 590 CURVE SMOOTH"
);
},
{
closed = 1;
nodes = (
"52 487 LINE",
"305 487 LINE",
"305 507 LINE",
"52 507 LINE"
);
}
);
width = 295;
},
{
background = {
paths = (
{
closed = 1;
nodes = (
"95 0 LINE",
"319 0 LINE",
"319 532 LINE",
"319 561 OFFCURVE",
"339 579 OFFCURVE",
"371 578 CURVE",
"387 578 OFFCURVE",
"409 571 OFFCURVE",
"426 559 CURVE",
"449 733 LINE",
"410 745 OFFCURVE",
"364 752 OFFCURVE",
"322 752 CURVE",
"184 753 OFFCURVE",
"95 680 OFFCURVE",
"95 566 CURVE SMOOTH"
);
},
{
closed = 1;
nodes = (
"20 375 LINE",
"425 375 LINE",
"425 517 LINE",
"20 517 LINE"
);
}
);
};
layerId = "5DA6E103-6A94-47F2-987D-4952DB8EA68E";
paths = (
{
closed = 1;
nodes = (
"95 0 LINE",
"319 0 LINE",
"319 532 LINE SMOOTH",
"319 561 OFFCURVE",
"339 579 OFFCURVE",
"371 578 CURVE SMOOTH",
"387 578 OFFCURVE",
"406 573 OFFCURVE",
"427 567 CURVE",
"449 733 LINE",
"410 745 OFFCURVE",
"364 752 OFFCURVE",
"322 752 CURVE SMOOTH",
"184 753 OFFCURVE",
"95 680 OFFCURVE",
"95 566 CURVE SMOOTH"
);
},
{
closed = 1;
nodes = (
"20 375 LINE",
"425 375 LINE",
"425 517 LINE",
"20 517 LINE"
);
}
);
width = 426;
}
);
leftKerningGroup = f;
rightKerningGroup = f;
unicode = 0066;
},
{
glyphname = g;
layers = (
{
anchors = (
{
name = top;
position = "{297, 517}";
}
);
background = {
paths = (
{
closed = 1;
nodes = (
"536 517 LINE",
"516 517 LINE",
"516 59 LINE",
"516 -83 OFFCURVE",
"427 -174 OFFCURVE",
"290 -173 CURVE SMOOTH",
"212 -170 OFFCURVE",
"151 -144 OFFCURVE",
"96 -89 CURVE",
"82 -103 LINE",
"142 -162 OFFCURVE",
"207 -190 OFFCURVE",
"290 -193 CURVE SMOOTH",
"439 -194 OFFCURVE",
"536 -95 OFFCURVE",
"536 59 CURVE"
);
},
{
closed = 1;
nodes = (
"154 517 OFFCURVE",
"52 412 OFFCURVE",
"52 267 CURVE SMOOTH",
"52 124 OFFCURVE",
"154 19 OFFCURVE",
"293 19 CURVE SMOOTH",
"433 19 OFFCURVE",
"535 124 OFFCURVE",
"535 267 CURVE",
"535 412 OFFCURVE",
"433 517 OFFCURVE",
"293 517 CURVE SMOOTH"
);
},
{
closed = 1;
nodes = (
"422 498 OFFCURVE",
"516 400 OFFCURVE",
"516 267 CURVE SMOOTH",
"516 135 OFFCURVE",
"422 38 OFFCURVE",
"293 38 CURVE SMOOTH",
"164 38 OFFCURVE",
"71 135 OFFCURVE",
"71 267 CURVE SMOOTH",
"71 400 OFFCURVE",
"164 498 OFFCURVE",
"293 498 CURVE SMOOTH"
);
}
);
};
layerId = UUID0;
paths = (
{
closed = 1;
nodes = (
"536 517 LINE",
"516 517 LINE",
"516 58 LINE SMOOTH",
"516 -84 OFFCURVE",
"427 -174 OFFCURVE",
"290 -174 CURVE SMOOTH",
"212 -174 OFFCURVE",
"151 -145 OFFCURVE",
"96 -90 CURVE",
"82 -104 LINE",
"142 -163 OFFCURVE",
"207 -194 OFFCURVE",
"290 -194 CURVE SMOOTH",
"439 -194 OFFCURVE",
"536 -96 OFFCURVE",
"536 58 CURVE SMOOTH"
);
},
{
closed = 1;
nodes = (
"154 517 OFFCURVE",
"52 412 OFFCURVE",
"52 267 CURVE SMOOTH",
"52 124 OFFCURVE",
"154 19 OFFCURVE",
"293 19 CURVE SMOOTH",
"433 19 OFFCURVE",
"535 124 OFFCURVE",
"535 267 CURVE",
"535 412 OFFCURVE",
"433 517 OFFCURVE",
"293 517 CURVE SMOOTH"
);
},
{
closed = 1;
nodes = (
"422 498 OFFCURVE",
"516 400 OFFCURVE",
"516 267 CURVE SMOOTH",
"516 135 OFFCURVE",
"422 38 OFFCURVE",
"293 38 CURVE SMOOTH",
"164 38 OFFCURVE",
"71 135 OFFCURVE",
"71 267 CURVE SMOOTH",
"71 400 OFFCURVE",
"164 498 OFFCURVE",
"293 498 CURVE SMOOTH"
);
}
);
width = 630;
},
{
anchors = (
{
name = top;
position = "{311, 547}";
}
);
layerId = "5DA6E103-6A94-47F2-987D-4952DB8EA68E";
paths = (
{
closed = 1;
nodes = (
"601 547 LINE",
"377 547 LINE",
"377 39 LINE SMOOTH",
"377 -3 OFFCURVE",
"341 -30 OFFCURVE",
"275 -30 CURVE SMOOTH",
"222 -30 OFFCURVE",
"156 -12 OFFCURVE",
"108 18 CURVE",
"37 -133 LINE",
"94 -171 OFFCURVE",
"190 -204 OFFCURVE",
"295 -204 CURVE SMOOTH",
"476 -204 OFFCURVE",
"601 -107 OFFCURVE",
"601 45 CURVE SMOOTH"
);
},
{
closed = 1;
nodes = (
"107 555 OFFCURVE",
"15 454 OFFCURVE",
"15 297 CURVE SMOOTH",
"15 136 OFFCURVE",
"111 33 OFFCURVE",
"240 33 CURVE SMOOTH",
"368 33 OFFCURVE",
"440 136 OFFCURVE",
"440 296 CURVE",
"440 453 OFFCURVE",
"365 555 OFFCURVE",
"236 555 CURVE SMOOTH"
);
},
{
closed = 1;
nodes = (
"347 390 OFFCURVE",
"377 351 OFFCURVE",
"377 291 CURVE SMOOTH",
"377 232 OFFCURVE",
"347 193 OFFCURVE",
"301 193 CURVE SMOOTH",
"255 193 OFFCURVE",
"225 232 OFFCURVE",
"225 291 CURVE SMOOTH",
"225 351 OFFCURVE",
"255 390 OFFCURVE",
"301 390 CURVE SMOOTH"
);
}
);
width = 654;
}
);
leftKerningGroup = o;
rightKerningGroup = j;
unicode = 0067;
},
{
glyphname = h;
layers = (
{
anchors = (
{
name = bottom;
position = "{336, 0}";
},
{
name = center;
position = "{163, 609}";
},
{
name = top;
position = "{126, 742}";
},
{
name = topright;
position = "{223, 517}";
}
);
layerId = UUID0;
paths = (
{
closed = 1;
nodes = (
"537 0 LINE SMOOTH",
"557 0 LINE",
"557 313 LINE",
"557 441 OFFCURVE",
"482 517 OFFCURVE",
"354 517 CURVE",
"205 514 OFFCURVE",
"117 416 OFFCURVE",
"117 253 CURVE",
"135 253 LINE",
"135 403 OFFCURVE",
"216 494 OFFCURVE",
"354 497 CURVE",
"469 497 OFFCURVE",
"537 429 OFFCURVE",
"537 313 CURVE"
);
},
{
closed = 1;
nodes = (
"115 0 LINE",
"135 0 LINE",
"135 742 LINE",
"115 742 LINE"
);
}
);
width = 650;
},
{
anchors = (
{
name = bottom;
position = "{354, 0}";
},
{
name = center;
position = "{185, 630}";
},
{
name = top;
position = "{166, 742}";
},
{
name = topright;
position = "{315, 547}";
}
);
layerId = "5DA6E103-6A94-47F2-987D-4952DB8EA68E";
paths = (
{
closed = 1;
nodes = (
"422 0 LINE",
"647 0 LINE",
"647 349 LINE SMOOTH",
"647 475 OFFCURVE",
"566 557 OFFCURVE",
"451 557 CURVE SMOOTH",
"316 557 OFFCURVE",
"235 445 OFFCURVE",
"235 271 CURVE",
"285 271 LINE",
"285 324 OFFCURVE",
"313 359 OFFCURVE",
"357 359 CURVE SMOOTH",
"396 359 OFFCURVE",
"422 330 OFFCURVE",
"422 284 CURVE SMOOTH"
);
},
{
closed = 1;
nodes = (
"60 0 LINE",
"285 0 LINE",
"285 742 LINE",
"60 742 LINE"
);
}
);
width = 687;
}
);
leftKerningGroup = h;
rightKerningGroup = n;
unicode = 0068;
},
{
glyphname = idotless;
layers = (
{
anchors = (
{
name = ogonek;
position = "{130, 0}";
},
{
name = top;
position = "{120, 517}";
}
);
layerId = UUID0;
paths = (
{
closed = 1;
nodes = (
"110 0 LINE",
"130 0 LINE",
"130 517 LINE",
"110 517 LINE"
);
}
);
width = 240;
},
{
anchors = (
{
name = ogonek;
position = "{220, 0}";
},
{
name = top;
position = "{168, 547}";
}
);
layerId = "5DA6E103-6A94-47F2-987D-4952DB8EA68E";
paths = (
{
closed = 1;
nodes = (
"55 0 LINE",
"280 0 LINE",
"280 547 LINE",
"55 547 LINE"
);
}
);
width = 335;
}
);
leftKerningGroup = i;
rightKerningGroup = i;
unicode = 0131;
},
{
color = 0;
glyphname = ij;
layers = (
{
background = {
anchors = (
{
name = bottom;
position = "{120, 0}";
},
{
name = ogonek;
position = "{130, 0}";
},
{
name = top;
position = "{355, 666}";
}
);
paths = (
{
closed = 1;
nodes = (
"110 0 LINE",
"130 0 LINE",
"130 517 LINE",
"110 517 LINE"
);
},
{
closed = 1;
nodes = (
"106 692 OFFCURVE",
"94 680 OFFCURVE",
"94 666 CURVE SMOOTH",
"94 652 OFFCURVE",
"106 640 OFFCURVE",
"120 640 CURVE SMOOTH",
"134 640 OFFCURVE",
"146 652 OFFCURVE",
"146 666 CURVE SMOOTH",
"146 680 OFFCURVE",
"134 692 OFFCURVE",
"120 692 CURVE SMOOTH"
);
},
{
closed = 1;
nodes = (
"186 -179 LINE",
"206 -187 OFFCURVE",
"227 -192 OFFCURVE",
"249 -193 CURVE",
"325 -194 OFFCURVE",
"365 -139 OFFCURVE",
"365 -31 CURVE",
"365 517 LINE",
"345 517 LINE",
"345 -31 LINE",
"345 -125 OFFCURVE",
"312 -174 OFFCURVE",
"249 -173 CURVE",
"230 -172 OFFCURVE",
"212 -168 OFFCURVE",
"194 -161 CURVE"
);
},
{
closed = 1;
nodes = (
"341 692 OFFCURVE",
"329 680 OFFCURVE",
"329 666 CURVE SMOOTH",
"329 652 OFFCURVE",
"341 640 OFFCURVE",
"355 640 CURVE SMOOTH",
"369 640 OFFCURVE",
"381 652 OFFCURVE",
"381 666 CURVE SMOOTH",
"381 680 OFFCURVE",
"369 692 OFFCURVE",
"355 692 CURVE SMOOTH"
);
}
);
};
components = (
{
alignment = -1;
name = i;
},
{
alignment = -1;
name = j;
transform = "{1, 0, 0, 1, 240, 0}";
}
);
layerId = UUID0;
width = 475;
},
{
background = {
anchors = (
{
name = bottom;
position = "{168, 0}";
},
{
name = ogonek;
position = "{242, 0}";
},
{
name = top;
position = "{506, 772}";
}
);
paths = (
{
closed = 1;
nodes = (
"55 0 LINE",
"280 0 LINE",
"280 547 LINE",
"55 547 LINE"
);
},
{
closed = 1;
nodes = (
"101 817 OFFCURVE",
"54 770 OFFCURVE",
"54 703 CURVE SMOOTH",
"54 636 OFFCURVE",
"101 589 OFFCURVE",
"168 589 CURVE SMOOTH",
"235 589 OFFCURVE",
"282 636 OFFCURVE",
"282 703 CURVE SMOOTH",
"282 770 OFFCURVE",
"235 817 OFFCURVE",
"168 817 CURVE SMOOTH"
);
},
{
closed = 1;
nodes = (
"270 -180 LINE",
"308 -195 OFFCURVE",
"353 -203 OFFCURVE",
"403 -203 CURVE",
"535 -204 OFFCURVE",
"620 -132 OFFCURVE",
"620 -17 CURVE",
"620 547 LINE",
"395 547 LINE",
"395 17 LINE",
"395 -14 OFFCURVE",
"379 -30 OFFCURVE",
"351 -29 CURVE",
"338 -29 OFFCURVE",
"325 -26 OFFCURVE",
"313 -23 CURVE"
);
},
{
closed = 1;
nodes = (
"439 817 OFFCURVE",
"392 770 OFFCURVE",
"392 703 CURVE SMOOTH",
"392 636 OFFCURVE",
"439 589 OFFCURVE",
"506 589 CURVE SMOOTH",
"573 589 OFFCURVE",
"620 636 OFFCURVE",
"620 703 CURVE SMOOTH",
"620 770 OFFCURVE",
"573 817 OFFCURVE",
"506 817 CURVE SMOOTH"
);
}
);
};
components = (
{
alignment = -1;
name = i;
},
{
alignment = -1;
name = j;
transform = "{1, 0, 0, 1, 335, 0}";
}
);
layerId = "5DA6E103-6A94-47F2-987D-4952DB8EA68E";
width = 675;
}
);
leftKerningGroup = i;
leftMetricsKey = i;
rightKerningGroup = j;
rightMetricsKey = i;
unicode = 0133;
},
{
glyphname = j;
layers = (
{
background = {
components = (
{
name = jdotless;
},
{
name = dotaccentcomb;
transform = "{1, 0, 0, 1, 39, 0}";
}
);
};
components = (
{
name = jdotless;
},
{
name = dotaccentcomb;
transform = "{1, 0, 0, 1, 39, 0}";
}
);
layerId = UUID0;
width = 219;
},
{
background = {
paths = (
{
closed = 1;
nodes = (
"285 547 LINE",
"60 547 LINE",
"60 17 LINE",
"60 -14 OFFCURVE",
"44 -30 OFFCURVE",
"16 -29 CURVE",
"-2 -29 OFFCURVE",
"-20 -24 OFFCURVE",
"-39 -15 CURVE",
"-89 -169 LINE",
"-46 -191 OFFCURVE",
"8 -203 OFFCURVE",
"68 -203 CURVE",
"200 -204 OFFCURVE",
"285 -132 OFFCURVE",
"285 -17 CURVE"
);
},
{
closed = 1;
nodes = (
"100 817 OFFCURVE",
"49 770 OFFCURVE",
"49 703 CURVE SMOOTH",
"49 636 OFFCURVE",
"100 589 OFFCURVE",
"172 589 CURVE SMOOTH",
"245 589 OFFCURVE",
"295 636 OFFCURVE",
"295 703 CURVE SMOOTH",
"295 770 OFFCURVE",
"245 817 OFFCURVE",
"172 817 CURVE SMOOTH"
);
}
);
};
components = (
{
name = jdotless;
},
{
name = dotaccentcomb;
transform = "{1, 0, 0, 1, 30, 0}";
}
);
layerId = "5DA6E103-6A94-47F2-987D-4952DB8EA68E";
width = 340;
}
);
leftKerningGroup = j;
rightKerningGroup = j;
unicode = 006A;
},
{
glyphname = jdotless;
layers = (
{
anchors = (
{
name = top;
position = "{115, 517}";
}
);
background = {
paths = (
{
closed = 1;
nodes = (
"-56 -178 LINE",
"-35 -187 OFFCURVE",
"-14 -192 OFFCURVE",
"9 -193 CURVE",
"85 -194 OFFCURVE",
"125 -139 OFFCURVE",
"125 -31 CURVE",
"125 517 LINE",
"105 517 LINE",
"105 -31 LINE",
"105 -125 OFFCURVE",
"72 -174 OFFCURVE",
"9 -173 CURVE",
"-10 -172 OFFCURVE",
"-28 -168 OFFCURVE",
"-46 -161 CURVE"
);
}
);
};
layerId = UUID0;
paths = (
{
closed = 1;
nodes = (
"-54 -179 LINE",
"-34 -187 OFFCURVE",
"-13 -192 OFFCURVE",
"9 -193 CURVE",
"85 -194 OFFCURVE",
"125 -139 OFFCURVE",
"125 -31 CURVE",
"125 517 LINE",
"105 517 LINE",
"105 -31 LINE",
"105 -125 OFFCURVE",
"72 -174 OFFCURVE",
"9 -173 CURVE",
"-10 -172 OFFCURVE",
"-28 -168 OFFCURVE",
"-46 -161 CURVE"
);
}
);
width = 219;
},
{
anchors = (
{
name = top;
position = "{171, 547}";
}
);
background = {
paths = (
{
closed = 1;
nodes = (
"-65 -180 LINE",
"-27 -195 OFFCURVE",
"18 -203 OFFCURVE",
"68 -203 CURVE",
"200 -204 OFFCURVE",
"285 -132 OFFCURVE",
"285 -17 CURVE",
"285 547 LINE",
"60 547 LINE",
"60 17 LINE",
"60 -14 OFFCURVE",
"44 -30 OFFCURVE",
"16 -29 CURVE",
"3 -29 OFFCURVE",
"-9 -27 OFFCURVE",
"-22 -22 CURVE"
);
}
);
};
layerId = "5DA6E103-6A94-47F2-987D-4952DB8EA68E";
paths = (
{
closed = 1;
nodes = (
"-65 -180 LINE",
"-27 -195 OFFCURVE",
"18 -203 OFFCURVE",
"68 -203 CURVE",
"200 -204 OFFCURVE",
"285 -132 OFFCURVE",
"285 -17 CURVE",
"285 547 LINE",
"60 547 LINE",
"60 17 LINE",
"60 -14 OFFCURVE",
"44 -30 OFFCURVE",
"16 -29 CURVE",
"3 -29 OFFCURVE",
"-10 -26 OFFCURVE",
"-22 -23 CURVE"
);
}
);
width = 340;
}
);
leftKerningGroup = j;
rightKerningGroup = j;
unicode = 0237;
},
{
glyphname = k;
layers = (
{
anchors = (
{
name = bottom;
position = "{307, 0}";
},
{
name = top;
position = "{125, 742}";
},
{
name = topright;
position = "{223, 517}";
}
);
layerId = UUID0;
paths = (
{
closed = 1;
nodes = (
"115 0 LINE",
"135 0 LINE",
"135 742 LINE",
"115 742 LINE"
);
},
{
closed = 1;
nodes = (
"128 178 LINE",
"128 147 LINE",
"492 517 LINE",
"464 517 LINE"
);
},
{
closed = 1;
nodes = (
"271.88 314.164 LINE",
"498 0 LINE",
"522 0 LINE",
"288.12 325.836 LINE"
);
}
);
width = 538;
},
{
anchors = (
{
name = bottom;
position = "{333, 0}";
},
{
name = top;
position = "{173, 742}";
},
{
name = topright;
position = "{315, 547}";
}
);
layerId = "5DA6E103-6A94-47F2-987D-4952DB8EA68E";
paths = (
{
closed = 1;
nodes = (
"60 0 LINE",
"285 0 LINE",
"285 742 LINE",
"60 742 LINE"
);
},
{
closed = 1;
nodes = (
"275 394 LINE",
"275 133 LINE",
"666 547 LINE",
"412 547 LINE"
);
},
{
closed = 1;
nodes = (
"287 224 LINE",
"396 0 LINE",
"663 0 LINE",
"453 360 LINE"
);
}
);
width = 662;
}
);
leftKerningGroup = h;
rightKerningGroup = x;
unicode = 006B;
},
{
glyphname = kgreenlandic;
layers = (
{
anchors = (
{
name = bottom;
position = "{268, 0}";
},
{
name = top;
position = "{268, 517}";
}
);
layerId = UUID0;
paths = (
{
closed = 1;
nodes = (
"110 0 LINE",
"130 0 LINE",
"130 517 LINE",
"110 517 LINE"
);
},
{
closed = 1;
nodes = (
"125 178 LINE",
"125 147 LINE",
"489 517 LINE",
"461 517 LINE"
);
},
{
closed = 1;
nodes = (
"269 314 LINE",
"495 0 LINE",
"519 0 LINE",
"285 326 LINE"
);
}
);
width = 535;
},
{
anchors = (
{
name = bottom;
position = "{328, 0}";
},
{
name = top;
position = "{328, 547}";
}
);
background = {
paths = (
{
closed = 1;
nodes = (
"65 0 LINE",
"279 0 LINE",
"279 139 LINE",
"679 582 LINE",
"434 582 LINE",
"279 392 LINE",
"279 582 LINE",
"65 582 LINE"
);
}
);
};
layerId = "5DA6E103-6A94-47F2-987D-4952DB8EA68E";
paths = (
{
closed = 1;
nodes = (
"55 0 LINE",
"280 0 LINE",
"280 547 LINE",
"55 547 LINE"
);
},
{
closed = 1;
nodes = (
"268 378 LINE",
"268 133 LINE",
"659 547 LINE",
"405 547 LINE"
);
},
{
closed = 1;
nodes = (
"280 224 LINE",
"389 0 LINE",
"656 0 LINE",
"446 360 LINE"
);
}
);
width = 655;
}
);
leftKerningGroup = h;
leftMetricsKey = n;
rightKerningGroup = k;
rightMetricsKey = k;
unicode = 0138;
},
{
glyphname = l;
layers = (
{
anchors = (
{
name = bottom;
position = "{125, 0}";
},
{
name = center;
position = "{290, 390}";
},
{
name = top;
position = "{125, 742}";
},
{
name = topright;
position = "{235, 742}";
}
);
layerId = UUID0;
paths = (
{
closed = 1;
nodes = (
"115 0 LINE",
"135 0 LINE",
"135 742 LINE",
"115 742 LINE"
);
}
);
width = 250;
},
{
anchors = (
{
name = bottom;
position = "{173, 0}";
},
{
name = center;
position = "{458, 400}";
},
{
name = top;
position = "{173, 742}";
},
{
name = topright;
position = "{355, 742}";
}
);
layerId = "5DA6E103-6A94-47F2-987D-4952DB8EA68E";
paths = (
{
closed = 1;
nodes = (
"60 0 LINE",
"285 0 LINE",
"285 742 LINE",
"60 742 LINE"
);
}
);
width = 345;
}
);
leftKerningGroup = h;
rightKerningGroup = l;
unicode = 006C;
},
{
glyphname = m;
layers = (
{
anchors = (
{
name = bottom;
position = "{532, 0}";
}
);
layerId = UUID0;
paths = (
{
closed = 1;
nodes = (
"522 0 LINE SMOOTH",
"542 0 LINE",
"542 313 LINE",
"542 441 OFFCURVE",
"468 517 OFFCURVE",
"344 517 CURVE",
"198 514 OFFCURVE",
"112 416 OFFCURVE",
"112 253 CURVE",
"130 253 LINE",
"130 403 OFFCURVE",
"209 494 OFFCURVE",
"343 497 CURVE",
"455 497 OFFCURVE",
"522 429 OFFCURVE",
"522 313 CURVE"
);
},
{
closed = 1;
nodes = (
"933 0 LINE SMOOTH",
"953 0 LINE",
"953 313 LINE",
"953 441 OFFCURVE",
"880 517 OFFCURVE",
"755 517 CURVE",
"610 514 OFFCURVE",
"524 416 OFFCURVE",
"524 253 CURVE",
"542 253 LINE",
"542 403 OFFCURVE",
"620 494 OFFCURVE",
"755 497 CURVE",
"867 497 OFFCURVE",
"933 429 OFFCURVE",
"933 313 CURVE"
);
},
{
closed = 1;
nodes = (
"110 0 LINE",
"130 0 LINE",
"130 517 LINE",
"110 517 LINE"
);
}
);
width = 1046;
},
{
anchors = (
{
name = bottom;
position = "{524, 0}";
}
);
layerId = "5DA6E103-6A94-47F2-987D-4952DB8EA68E";
paths = (
{
closed = 1;
nodes = (
"411 0 LINE",
"636 0 LINE",
"636 349 LINE SMOOTH",
"636 475 OFFCURVE",
"556 557 OFFCURVE",
"443 557 CURVE SMOOTH",
"310 557 OFFCURVE",
"230 445 OFFCURVE",
"230 271 CURVE",
"280 271 LINE",
"280 324 OFFCURVE",
"307 359 OFFCURVE",
"349 359 CURVE SMOOTH",
"386 359 OFFCURVE",
"411 330 OFFCURVE",
"411 284 CURVE SMOOTH"
);
},
{
closed = 1;
nodes = (
"767 0 LINE",
"992 0 LINE",
"992 349 LINE SMOOTH",
"992 475 OFFCURVE",
"912 557 OFFCURVE",
"799 557 CURVE SMOOTH",
"666 557 OFFCURVE",
"586 445 OFFCURVE",
"586 271 CURVE",
"636 271 LINE",
"636 324 OFFCURVE",
"663 359 OFFCURVE",
"705 359 CURVE SMOOTH",
"742 359 OFFCURVE",
"767 330 OFFCURVE",
"767 284 CURVE SMOOTH"
);
},
{
closed = 1;
nodes = (
"55 0 LINE",
"280 0 LINE",
"280 547 LINE",
"55 547 LINE"
);
}
);
width = 1032;
}
);
leftKerningGroup = n;
rightKerningGroup = n;
unicode = 006D;
},
{
glyphname = n;
layers = (
{
anchors = (
{
name = bottom;
position = "{325, 0}";
},
{
name = top;
position = "{342, 517}";
}
);
layerId = UUID0;
paths = (
{
closed = 1;
nodes = (
"531 0 LINE SMOOTH",
"551 0 LINE",
"551 313 LINE SMOOTH",
"551 441 OFFCURVE",
"476 517 OFFCURVE",
"348 517 CURVE SMOOTH",
"199 514 OFFCURVE",
"111 416 OFFCURVE",
"111 253 CURVE",
"129 253 LINE",
"129 403 OFFCURVE",
"210 494 OFFCURVE",
"348 497 CURVE SMOOTH",
"463 497 OFFCURVE",
"531 429 OFFCURVE",
"531 313 CURVE SMOOTH"
);
},
{
closed = 1;
nodes = (
"110 0 LINE",
"130 0 LINE",
"130 517 LINE",
"110 517 LINE"
);
}
);
width = 644;
},
{
anchors = (
{
name = bottom;
position = "{347, 0}";
},
{
name = top;
position = "{360, 547}";
}
);
layerId = "5DA6E103-6A94-47F2-987D-4952DB8EA68E";
paths = (
{
closed = 1;
nodes = (
"417 0 LINE",
"642 0 LINE",
"642 349 LINE SMOOTH",
"642 475 OFFCURVE",
"561 557 OFFCURVE",
"446 557 CURVE SMOOTH",
"311 557 OFFCURVE",
"230 445 OFFCURVE",
"230 271 CURVE",
"280 271 LINE",
"280 324 OFFCURVE",
"308 359 OFFCURVE",
"352 359 CURVE SMOOTH",
"391 359 OFFCURVE",
"417 330 OFFCURVE",
"417 284 CURVE SMOOTH"
);
},
{
closed = 1;
nodes = (
"55 0 LINE",
"280 0 LINE",
"280 547 LINE",
"55 547 LINE"
);
}
);
width = 682;
}
);
leftKerningGroup = n;
rightKerningGroup = n;
unicode = 006E;
},
{
glyphname = eng;
layers = (
{
anchors = (
{
name = bottom;
position = "{325, 0}";
},
{
name = top;
position = "{332, 517}";
}
);
layerId = UUID0;
paths = (
{
closed = 1;
nodes = (
"531 -32 LINE SMOOTH",
"531 -126 OFFCURVE",
"498 -174 OFFCURVE",
"435 -173 CURVE SMOOTH",
"403 -172 OFFCURVE",
"371 -161 OFFCURVE",
"345 -140 CURVE",
"333 -156 LINE",
"363 -179 OFFCURVE",
"398 -192 OFFCURVE",
"435 -193 CURVE SMOOTH",
"511 -194 OFFCURVE",
"551 -140 OFFCURVE",
"551 -32 CURVE SMOOTH",
"551 313 LINE SMOOTH",
"551 441 OFFCURVE",
"476 517 OFFCURVE",
"348 517 CURVE SMOOTH",
"199 514 OFFCURVE",
"111 416 OFFCURVE",
"111 253 CURVE",
"129 253 LINE",
"129 403 OFFCURVE",
"210 494 OFFCURVE",
"348 497 CURVE SMOOTH",
"463 497 OFFCURVE",
"531 429 OFFCURVE",
"531 313 CURVE SMOOTH"
);
},
{
closed = 1;
nodes = (
"110 0 LINE",
"130 0 LINE",
"130 517 LINE",
"110 517 LINE"
);
}
);
width = 644;
},
{
anchors = (
{
name = bottom;
position = "{347, 0}";
},
{
name = top;
position = "{360, 547}";
}
);
layerId = "5DA6E103-6A94-47F2-987D-4952DB8EA68E";
paths = (
{
closed = 1;
nodes = (
"417 17 LINE SMOOTH",
"417 -14 OFFCURVE",
"401 -30 OFFCURVE",
"373 -29 CURVE",
"355 -29 OFFCURVE",
"337 -24 OFFCURVE",
"318 -15 CURVE",
"268 -169 LINE",
"311 -191 OFFCURVE",
"365 -203 OFFCURVE",
"425 -203 CURVE SMOOTH",
"557 -204 OFFCURVE",
"642 -132 OFFCURVE",
"642 -23 CURVE SMOOTH",
"642 349 LINE SMOOTH",
"642 475 OFFCURVE",
"561 557 OFFCURVE",
"446 557 CURVE SMOOTH",
"311 557 OFFCURVE",
"230 445 OFFCURVE",
"230 271 CURVE",
"280 271 LINE",
"280 324 OFFCURVE",
"308 359 OFFCURVE",
"352 359 CURVE SMOOTH",
"391 359 OFFCURVE",
"417 330 OFFCURVE",
"417 284 CURVE SMOOTH"
);
},
{
closed = 1;
nodes = (
"55 0 LINE",
"280 0 LINE",
"280 547 LINE",
"55 547 LINE"
);
}
);
width = 682;
}
);
leftKerningGroup = i;
rightKerningGroup = i;
unicode = 014B;
},
{
glyphname = o;
layers = (
{
anchors = (
{
name = bottom;
position = "{303, 0}";
},
{
name = center;
position = "{303, 259}";
},
{
name = ogonek;
position = "{455, 0}";
},
{
name = top;
position = "{303, 517}";
},
{
name = topright;
position = "{434, 518}";
}
);
background = {
anchors = (
{
name = bottom;
position = "{303, 0}";
},
{
name = center;
position = "{303, 259}";
},
{
name = ogonek;
position = "{455, 0}";
},
{
name = top;
position = "{303, 517}";
},
{
name = topright;
position = "{434, 518}";
}
);
paths = (
{
closed = 1;
nodes = (
"159 517 OFFCURVE",
"52 409 OFFCURVE",
"52 259 CURVE SMOOTH",
"52 108 OFFCURVE",
"159 0 OFFCURVE",
"303 0 CURVE SMOOTH",
"447 0 OFFCURVE",
"554 108 OFFCURVE",
"554 259 CURVE SMOOTH",
"554 409 OFFCURVE",
"447 517 OFFCURVE",
"303 517 CURVE SMOOTH"
);
},
{
closed = 1;
nodes = (
"437 497 OFFCURVE",
"534 399 OFFCURVE",
"534 259 CURVE SMOOTH",
"534 118 OFFCURVE",
"437 20 OFFCURVE",
"303 20 CURVE SMOOTH",
"169 20 OFFCURVE",
"72 118 OFFCURVE",
"72 259 CURVE SMOOTH",
"72 399 OFFCURVE",
"169 497 OFFCURVE",
"303 497 CURVE SMOOTH"
);
}
);
};
layerId = UUID0;
paths = (
{
closed = 1;
nodes = (
"159 517 OFFCURVE",
"52 409 OFFCURVE",
"52 259 CURVE SMOOTH",
"52 108 OFFCURVE",
"159 0 OFFCURVE",
"303 0 CURVE SMOOTH",
"447 0 OFFCURVE",
"554 108 OFFCURVE",
"554 259 CURVE SMOOTH",
"554 409 OFFCURVE",
"447 517 OFFCURVE",
"303 517 CURVE SMOOTH"
);
},
{
closed = 1;
nodes = (
"437 497 OFFCURVE",
"534 399 OFFCURVE",
"534 259 CURVE SMOOTH",
"534 118 OFFCURVE",
"437 20 OFFCURVE",
"303 20 CURVE SMOOTH",
"169 20 OFFCURVE",
"72 118 OFFCURVE",
"72 259 CURVE SMOOTH",
"72 399 OFFCURVE",
"169 497 OFFCURVE",
"303 497 CURVE SMOOTH"
);
}
);
width = 606;
},
{
anchors = (
{
name = bottom;
position = "{324, 0}";
},
{
name = center;
position = "{324, 274}";
},
{
name = ogonek;
position = "{547, 0}";
},
{
name = top;
position = "{324, 547}";
},
{
name = topright;
position = "{464, 547}";
}
);
layerId = "5DA6E103-6A94-47F2-987D-4952DB8EA68E";
paths = (
{
closed = 1;
nodes = (
"136 555 OFFCURVE",
"15 445 OFFCURVE",
"15 274 CURVE SMOOTH",
"15 103 OFFCURVE",
"136 -8 OFFCURVE",
"324 -8 CURVE SMOOTH",
"512 -8 OFFCURVE",
"633 103 OFFCURVE",
"633 274 CURVE SMOOTH",
"633 445 OFFCURVE",
"512 555 OFFCURVE",
"324 555 CURVE SMOOTH"
);
},
{
closed = 1;
nodes = (
"374 377 OFFCURVE",
"406 335 OFFCURVE",
"406 271 CURVE SMOOTH",
"406 207 OFFCURVE",
"374 165 OFFCURVE",
"324 165 CURVE SMOOTH",
"274 165 OFFCURVE",
"242 207 OFFCURVE",
"242 271 CURVE SMOOTH",
"242 335 OFFCURVE",
"274 377 OFFCURVE",
"324 377 CURVE SMOOTH"
);
}
);
width = 648;
},
{
anchors = (
{
name = top;
position = "{303, 517}";
}
);
associatedMasterId = UUID0;
layerId = "1D067423-6B0D-4C75-A478-41354F2993ED";
name = "Light Aug 9 16, 18:42";
paths = (
{
closed = 1;
nodes = (
"159 517 OFFCURVE",
"52 409 OFFCURVE",
"52 259 CURVE SMOOTH",
"52 108 OFFCURVE",
"159 0 OFFCURVE",
"303 0 CURVE SMOOTH",
"447 0 OFFCURVE",
"554 108 OFFCURVE",
"554 259 CURVE SMOOTH",
"554 409 OFFCURVE",
"447 517 OFFCURVE",
"303 517 CURVE SMOOTH"
);
},
{
closed = 1;
nodes = (
"437 497 OFFCURVE",
"534 399 OFFCURVE",
"534 259 CURVE SMOOTH",
"534 118 OFFCURVE",
"437 20 OFFCURVE",
"303 20 CURVE SMOOTH",
"169 20 OFFCURVE",
"72 118 OFFCURVE",
"72 259 CURVE SMOOTH",
"72 399 OFFCURVE",
"169 497 OFFCURVE",
"303 497 CURVE SMOOTH"
);
},
{
closed = 1;
nodes = (
"159 517 OFFCURVE",
"52 409 OFFCURVE",
"52 259 CURVE SMOOTH",
"52 108 OFFCURVE",
"159 0 OFFCURVE",
"303 0 CURVE SMOOTH",
"447 0 OFFCURVE",
"554 108 OFFCURVE",
"554 259 CURVE SMOOTH",
"554 409 OFFCURVE",
"447 517 OFFCURVE",
"303 517 CURVE SMOOTH"
);
},
{
closed = 1;
nodes = (
"437 497 OFFCURVE",
"534 399 OFFCURVE",
"534 259 CURVE SMOOTH",
"534 118 OFFCURVE",
"437 20 OFFCURVE",
"303 20 CURVE SMOOTH",
"169 20 OFFCURVE",
"72 118 OFFCURVE",
"72 259 CURVE SMOOTH",
"72 399 OFFCURVE",
"169 497 OFFCURVE",
"303 497 CURVE SMOOTH"
);
},
{
closed = 1;
nodes = (
"362 496 OFFCURVE",
"408 508 OFFCURVE",
"433 536 CURVE SMOOTH",
"457 562 OFFCURVE",
"462 591 OFFCURVE",
"463 615 CURVE",
"442 615 LINE",
"442 591 OFFCURVE",
"433 566 OFFCURVE",
"414 545 CURVE SMOOTH",
"397 527 OFFCURVE",
"364 517 OFFCURVE",
"339 517 CURVE",
"339 496 LINE"
);
}
);
width = 606;
},
{
anchors = (
{
name = top;
position = "{324, 547}";
}
);
associatedMasterId = "5DA6E103-6A94-47F2-987D-4952DB8EA68E";
layerId = "23524430-A9D9-448B-9018-BDEF84789102";
name = "Bold Aug 9 16, 18:43";
paths = (
{
closed = 1;
nodes = (
"136 555 OFFCURVE",
"15 445 OFFCURVE",
"15 274 CURVE SMOOTH",
"15 103 OFFCURVE",
"136 -8 OFFCURVE",
"324 -8 CURVE SMOOTH",
"512 -8 OFFCURVE",
"633 103 OFFCURVE",
"633 274 CURVE SMOOTH",
"633 445 OFFCURVE",
"512 555 OFFCURVE",
"324 555 CURVE SMOOTH"
);
},
{
closed = 1;
nodes = (
"374 377 OFFCURVE",
"406 335 OFFCURVE",
"406 271 CURVE SMOOTH",
"406 207 OFFCURVE",
"374 165 OFFCURVE",
"324 165 CURVE SMOOTH",
"274 165 OFFCURVE",
"242 207 OFFCURVE",
"242 271 CURVE SMOOTH",
"242 335 OFFCURVE",
"274 377 OFFCURVE",
"324 377 CURVE SMOOTH"
);
},
{
closed = 1;
nodes = (
"136 555 OFFCURVE",
"15 445 OFFCURVE",
"15 274 CURVE SMOOTH",
"15 103 OFFCURVE",
"136 -8 OFFCURVE",
"324 -8 CURVE SMOOTH",
"512 -8 OFFCURVE",
"633 103 OFFCURVE",
"633 274 CURVE SMOOTH",
"633 445 OFFCURVE",
"512 555 OFFCURVE",
"324 555 CURVE SMOOTH"
);
},
{
closed = 1;
nodes = (
"374 377 OFFCURVE",
"406 335 OFFCURVE",
"406 271 CURVE SMOOTH",
"406 207 OFFCURVE",
"374 165 OFFCURVE",
"324 165 CURVE SMOOTH",
"274 165 OFFCURVE",
"242 207 OFFCURVE",
"242 271 CURVE SMOOTH",
"242 335 OFFCURVE",
"274 377 OFFCURVE",
"324 377 CURVE SMOOTH"
);
},
{
closed = 1;
nodes = (
"462 379 OFFCURVE",
"547 413 OFFCURVE",
"592 476 CURVE SMOOTH",
"626 524 OFFCURVE",
"642 587 OFFCURVE",
"642 620 CURVE",
"491 620 LINE",
"491 596 OFFCURVE",
"481 571 OFFCURVE",
"462 550 CURVE SMOOTH",
"446 531 OFFCURVE",
"418 522 OFFCURVE",
"388 522 CURVE",
"388 379 LINE"
);
}
);
width = 648;
}
);
leftKerningGroup = o;
rightKerningGroup = o;
unicode = 006F;
},
{
glyphname = p;
layers = (
{
layerId = UUID0;
paths = (
{
closed = 1;
nodes = (
"221 517 OFFCURVE",
"115 408 OFFCURVE",
"115 258 CURVE",
"115 109 OFFCURVE",
"221 0 OFFCURVE",
"366 0 CURVE SMOOTH",
"511 0 OFFCURVE",
"617 109 OFFCURVE",
"617 258 CURVE SMOOTH",
"617 408 OFFCURVE",
"511 517 OFFCURVE",
"366 517 CURVE SMOOTH"
);
},
{
closed = 1;
nodes = (
"500 497 OFFCURVE",
"597 396 OFFCURVE",
"597 258 CURVE SMOOTH",
"597 120 OFFCURVE",
"500 20 OFFCURVE",
"366 20 CURVE SMOOTH",
"232 20 OFFCURVE",
"135 120 OFFCURVE",
"135 258 CURVE SMOOTH",
"135 396 OFFCURVE",
"232 497 OFFCURVE",
"366 497 CURVE SMOOTH"
);
},
{
closed = 1;
nodes = (
"115 -194 LINE",
"135 -194 LINE",
"135 517 LINE",
"115 517 LINE"
);
}
);
width = 669;
},
{
layerId = "5DA6E103-6A94-47F2-987D-4952DB8EA68E";
paths = (
{
closed = 1;
nodes = (
"298 555 OFFCURVE",
"217 443 OFFCURVE",
"217 271 CURVE",
"217 102 OFFCURVE",
"301 -8 OFFCURVE",
"430 -8 CURVE SMOOTH",
"579 -8 OFFCURVE",
"675 101 OFFCURVE",
"675 270 CURVE SMOOTH",
"675 443 OFFCURVE",
"576 555 OFFCURVE",
"424 555 CURVE SMOOTH"
);
},
{
closed = 1;
nodes = (
"416 382 OFFCURVE",
"448 340 OFFCURVE",
"448 276 CURVE SMOOTH",
"448 212 OFFCURVE",
"416 170 OFFCURVE",
"366 170 CURVE SMOOTH",
"317 170 OFFCURVE",
"285 212 OFFCURVE",
"285 276 CURVE SMOOTH",
"285 340 OFFCURVE",
"317 382 OFFCURVE",
"366 382 CURVE SMOOTH"
);
},
{
closed = 1;
nodes = (
"60 -194 LINE",
"285 -194 LINE",
"285 547 LINE",
"60 547 LINE"
);
}
);
width = 690;
}
);
leftKerningGroup = p;
rightKerningGroup = o;
unicode = 0070;
},
{
glyphname = thorn;
layers = (
{
anchors = (
{
name = bottom;
position = "{125, 0}";
},
{
name = top;
position = "{125, 742}";
},
{
name = topright;
position = "{223, 517}";
}
);
layerId = UUID0;
paths = (
{
closed = 1;
nodes = (
"135 742 LINE",
"115 742 LINE",
"115 -194 LINE",
"135 -194 LINE",
"135 152 LINE",
"172 60 OFFCURVE",
"258 0 OFFCURVE",
"366 0 CURVE SMOOTH",
"511 0 OFFCURVE",
"617 109 OFFCURVE",
"617 258 CURVE SMOOTH",
"617 408 OFFCURVE",
"511 517 OFFCURVE",
"366 517 CURVE SMOOTH",
"258 517 OFFCURVE",
"172 457 OFFCURVE",
"135 365 CURVE"
);
},
{
closed = 1;
nodes = (
"500 497 OFFCURVE",
"597 396 OFFCURVE",
"597 258 CURVE SMOOTH",
"597 120 OFFCURVE",
"500 20 OFFCURVE",
"366 20 CURVE SMOOTH",
"232 20 OFFCURVE",
"135 120 OFFCURVE",
"135 258 CURVE SMOOTH",
"135 396 OFFCURVE",
"232 497 OFFCURVE",
"366 497 CURVE SMOOTH"
);
}
);
width = 669;
},
{
anchors = (
{
name = bottom;
position = "{173, 0}";
},
{
name = top;
position = "{173, 742}";
},
{
name = topright;
position = "{315, 547}";
}
);
layerId = "5DA6E103-6A94-47F2-987D-4952DB8EA68E";
paths = (
{
closed = 1;
nodes = (
"285 742 LINE",
"60 742 LINE",
"60 -194 LINE",
"285 -194 LINE",
"285 56 LINE",
"321 15 OFFCURVE",
"371 -8 OFFCURVE",
"430 -8 CURVE SMOOTH",
"579 -8 OFFCURVE",
"675 101 OFFCURVE",
"675 270 CURVE SMOOTH",
"675 443 OFFCURVE",
"576 555 OFFCURVE",
"424 555 CURVE SMOOTH",
"368 555 OFFCURVE",
"320 533 OFFCURVE",
"285 492 CURVE"
);
},
{
closed = 1;
nodes = (
"416 382 OFFCURVE",
"448 340 OFFCURVE",
"448 276 CURVE SMOOTH",
"448 212 OFFCURVE",
"416 170 OFFCURVE",
"366 170 CURVE SMOOTH",
"317 170 OFFCURVE",
"285 212 OFFCURVE",
"285 276 CURVE SMOOTH",
"285 340 OFFCURVE",
"317 382 OFFCURVE",
"366 382 CURVE SMOOTH"
);
}
);
width = 690;
}
);
leftKerningGroup = h;
leftMetricsKey = l;
rightKerningGroup = o;
rightMetricsKey = o;
unicode = 00FE;
},
{
glyphname = q;
layers = (
{
layerId = UUID0;
paths = (
{
closed = 1;
nodes = (
"159 519 OFFCURVE",
"52 409 OFFCURVE",
"52 258 CURVE SMOOTH",
"52 108 OFFCURVE",
"159 -2 OFFCURVE",
"305 -2 CURVE SMOOTH",
"451 -2 OFFCURVE",
"558 108 OFFCURVE",
"558 258 CURVE",
"558 409 OFFCURVE",
"451 519 OFFCURVE",
"305 519 CURVE SMOOTH"
);
},
{
closed = 1;
nodes = (
"440 499 OFFCURVE",
"538 397 OFFCURVE",
"538 258 CURVE SMOOTH",
"538 119 OFFCURVE",
"440 18 OFFCURVE",
"305 18 CURVE SMOOTH",
"170 18 OFFCURVE",
"72 119 OFFCURVE",
"72 258 CURVE SMOOTH",
"72 397 OFFCURVE",
"170 499 OFFCURVE",
"305 499 CURVE SMOOTH"
);
},
{
closed = 1;
nodes = (
"538 -194 LINE",
"558 -194 LINE",
"558 517 LINE",
"538 517 LINE"
);
}
);
width = 673;
},
{
layerId = "5DA6E103-6A94-47F2-987D-4952DB8EA68E";
paths = (
{
closed = 1;
nodes = (
"111 555 OFFCURVE",
"15 446 OFFCURVE",
"15 277 CURVE SMOOTH",
"15 104 OFFCURVE",
"114 -8 OFFCURVE",
"266 -8 CURVE SMOOTH",
"392 -8 OFFCURVE",
"473 104 OFFCURVE",
"473 276 CURVE",
"473 445 OFFCURVE",
"389 555 OFFCURVE",
"260 555 CURVE SMOOTH"
);
},
{
closed = 1;
nodes = (
"373 377 OFFCURVE",
"405 335 OFFCURVE",
"405 271 CURVE SMOOTH",
"405 207 OFFCURVE",
"373 165 OFFCURVE",
"324 165 CURVE SMOOTH",
"274 165 OFFCURVE",
"242 207 OFFCURVE",
"242 271 CURVE SMOOTH",
"242 335 OFFCURVE",
"274 377 OFFCURVE",
"324 377 CURVE SMOOTH"
);
},
{
closed = 1;
nodes = (
"405 -194 LINE",
"630 -194 LINE",
"630 547 LINE",
"405 547 LINE"
);
}
);
width = 690;
}
);
leftKerningGroup = o;
rightKerningGroup = q;
unicode = 0071;
},
{
glyphname = r;
layers = (
{
anchors = (
{
name = bottom;
position = "{120, 0}";
},
{
name = top;
position = "{216, 517}";
}
);
layerId = UUID0;
paths = (
{
closed = 1;
nodes = (
"328 517 LINE",
"191 514 OFFCURVE",
"111 416 OFFCURVE",
"111 253 CURVE",
"129 253 LINE",
"129 403 OFFCURVE",
"202 494 OFFCURVE",
"328 497 CURVE"
);
},
{
closed = 1;
nodes = (
"110 0 LINE",
"130 0 LINE",
"130 517 LINE",
"110 517 LINE"
);
}
);
width = 338;
},
{
anchors = (
{
name = bottom;
position = "{168, 0}";
},
{
name = top;
position = "{245, 547}";
}
);
layerId = "5DA6E103-6A94-47F2-987D-4952DB8EA68E";
paths = (
{
closed = 1;
nodes = (
"447 557 LINE",
"315 557 OFFCURVE",
"230 445 OFFCURVE",
"230 271 CURVE",
"280 261 LINE",
"280 333 OFFCURVE",
"346 369 OFFCURVE",
"447 354 CURVE"
);
},
{
closed = 1;
nodes = (
"55 0 LINE",
"280 0 LINE",
"280 547 LINE",
"55 547 LINE"
);
}
);
width = 457;
}
);
leftKerningGroup = n;
rightKerningGroup = r;
unicode = 0072;
},
{
glyphname = s;
layers = (
{
anchors = (
{
name = bottom;
position = "{210, 0}";
},
{
name = top;
position = "{213, 517}";
}
);
layerId = UUID0;
paths = (
{
closed = 1;
nodes = (
"360 480 LINE",
"322 502 OFFCURVE",
"277 517 OFFCURVE",
"222 517 CURVE SMOOTH",
"133 517 OFFCURVE",
"58 478 OFFCURVE",
"58 393 CURVE SMOOTH",
"58 219 OFFCURVE",
"375 288 OFFCURVE",
"369 129 CURVE SMOOTH",
"366 54 OFFCURVE",
"296 20 OFFCURVE",
"215 20 CURVE SMOOTH",
"147 20 OFFCURVE",
"87 44 OFFCURVE",
"43 87 CURVE",
"30 72 LINE",
"76 26 OFFCURVE",
"143 0 OFFCURVE",
"215 0 CURVE SMOOTH",
"305 0 OFFCURVE",
"389 41 OFFCURVE",
"389 134 CURVE SMOOTH",
"389 314 OFFCURVE",
"78 240 OFFCURVE",
"78 395 CURVE SMOOTH",
"78 465 OFFCURVE",
"142 497 OFFCURVE",
"223 497 CURVE SMOOTH",
"274 497 OFFCURVE",
"317 484 OFFCURVE",
"350 463 CURVE"
);
}
);
width = 427;
},
{
anchors = (
{
name = bottom;
position = "{275, 0}";
},
{
name = top;
position = "{289, 547}";
}
);
layerId = "5DA6E103-6A94-47F2-987D-4952DB8EA68E";
paths = (
{
closed = 1;
nodes = (
"533 488 LINE",
"451 534 OFFCURVE",
"366 557 OFFCURVE",
"279 557 CURVE SMOOTH",
"133 557 OFFCURVE",
"38 483 OFFCURVE",
"38 368 CURVE SMOOTH",
"38 183 OFFCURVE",
"316 204 OFFCURVE",
"316 156 CURVE SMOOTH",
"316 146 OFFCURVE",
"303 140 OFFCURVE",
"282 140 CURVE SMOOTH",
"221 140 OFFCURVE",
"153 163 OFFCURVE",
"80 208 CURVE",
"12 68 LINE",
"88 16 OFFCURVE",
"178 -10 OFFCURVE",
"279 -10 CURVE SMOOTH",
"430 -10 OFFCURVE",
"527 63 OFFCURVE",
"527 176 CURVE SMOOTH",
"527 360 OFFCURVE",
"243 340 OFFCURVE",
"243 391 CURVE SMOOTH",
"243 402 OFFCURVE",
"255 409 OFFCURVE",
"274 409 CURVE SMOOTH",
"316 409 OFFCURVE",
"378 389 OFFCURVE",
"459 349 CURVE"
);
}
);
width = 552;
},
{
anchors = (
{
name = bottom;
position = "{331, 0}";
},
{
name = top;
position = "{331, 699}";
}
);
associatedMasterId = "5DA6E103-6A94-47F2-987D-4952DB8EA68E";
background = {
paths = (
{
closed = 1;
nodes = (
"184 557 OFFCURVE",
"101 511 OFFCURVE",
"101 429 CURVE",
"101 224 OFFCURVE",
"449 315 OFFCURVE",
"444 129 CURVE",
"440 60 OFFCURVE",
"368 12 OFFCURVE",
"272 12 CURVE",
"199 12 OFFCURVE",
"133 38 OFFCURVE",
"85 86 CURVE",
"69 70 LINE",
"120 18 OFFCURVE",
"195 -10 OFFCURVE",
"272 -10 CURVE",
"377 -10 OFFCURVE",
"461 44 OFFCURVE",
"465 129 CURVE",
"472 344 OFFCURVE",
"122 239 OFFCURVE",
"122 429 CURVE",
"122 497 OFFCURVE",
"194 535 OFFCURVE",
"281 535 CURVE",
"340 535 OFFCURVE",
"388 520 OFFCURVE",
"420 498 CURVE",
"434 514 LINE",
"395 539 OFFCURVE",
"345 557 OFFCURVE",
"281 557 CURVE"
);
}
);
};
layerId = "DA540889-CAED-4AC7-8525-49731D9EC91D";
name = "Bold (215)";
paths = (
{
closed = 1;
nodes = (
"815 487 LINE",
"742 530 OFFCURVE",
"369 557 OFFCURVE",
"279 557 CURVE SMOOTH",
"133 557 OFFCURVE",
"46 487 OFFCURVE",
"46 371 CURVE SMOOTH",
"46 173 OFFCURVE",
"301 198 OFFCURVE",
"301 159 CURVE SMOOTH",
"301 154 OFFCURVE",
"299 148 OFFCURVE",
"282 148 CURVE SMOOTH",
"246 148 OFFCURVE",
"151 177 OFFCURVE",
"89 216 CURVE",
"13 79 LINE",
"76 21 OFFCURVE",
"182 -10 OFFCURVE",
"275 -10 CURVE SMOOTH",
"422 -10 OFFCURVE",
"416 119 OFFCURVE",
"507 176 CURVE SMOOTH",
"807 365 OFFCURVE",
"248 347 OFFCURVE",
"248 388 CURVE SMOOTH",
"248 395 OFFCURVE",
"253 400 OFFCURVE",
"266 400 CURVE SMOOTH",
"288 400 OFFCURVE",
"665 385 OFFCURVE",
"743 350 CURVE"
);
}
);
width = 544;
},
{
anchors = (
{
name = bottom;
position = "{331, 0}";
},
{
name = top;
position = "{331, 699}";
}
);
associatedMasterId = "5DA6E103-6A94-47F2-987D-4952DB8EA68E";
background = {
paths = (
{
closed = 1;
nodes = (
"184 557 OFFCURVE",
"101 511 OFFCURVE",
"101 429 CURVE",
"101 224 OFFCURVE",
"449 315 OFFCURVE",
"444 129 CURVE",
"440 60 OFFCURVE",
"368 12 OFFCURVE",
"272 12 CURVE",
"199 12 OFFCURVE",
"133 38 OFFCURVE",
"85 86 CURVE",
"69 70 LINE",
"120 18 OFFCURVE",
"195 -10 OFFCURVE",
"272 -10 CURVE",
"377 -10 OFFCURVE",
"461 44 OFFCURVE",
"465 129 CURVE",
"472 344 OFFCURVE",
"122 239 OFFCURVE",
"122 429 CURVE",
"122 497 OFFCURVE",
"194 535 OFFCURVE",
"281 535 CURVE",
"340 535 OFFCURVE",
"388 520 OFFCURVE",
"420 498 CURVE",
"434 514 LINE",
"395 539 OFFCURVE",
"345 557 OFFCURVE",
"281 557 CURVE"
);
}
);
};
layerId = "6F8498AF-9586-400A-AD38-1617595460F6";
name = "Bold (0)";
paths = (
{
closed = 1;
nodes = (
"515 487 LINE",
"442 530 OFFCURVE",
"369 557 OFFCURVE",
"279 557 CURVE SMOOTH",
"133 557 OFFCURVE",
"46 487 OFFCURVE",
"46 371 CURVE SMOOTH",
"46 173 OFFCURVE",
"301 198 OFFCURVE",
"301 159 CURVE SMOOTH",
"301 154 OFFCURVE",
"299 148 OFFCURVE",
"282 148 CURVE SMOOTH",
"246 148 OFFCURVE",
"151 177 OFFCURVE",
"89 216 CURVE",
"13 79 LINE",
"76 21 OFFCURVE",
"182 -10 OFFCURVE",
"275 -10 CURVE SMOOTH",
"422 -10 OFFCURVE",
"507 68 OFFCURVE",
"507 176 CURVE SMOOTH",
"507 365 OFFCURVE",
"248 347 OFFCURVE",
"248 388 CURVE SMOOTH",
"248 395 OFFCURVE",
"253 400 OFFCURVE",
"266 400 CURVE SMOOTH",
"288 400 OFFCURVE",
"365 385 OFFCURVE",
"443 350 CURVE"
);
}
);
width = 544;
}
);
leftKerningGroup = s;
rightKerningGroup = s;
unicode = 0073;
},
{
glyphname = germandbls;
layers = (
{
layerId = "5DA6E103-6A94-47F2-987D-4952DB8EA68E";
paths = (
{
closed = 1;
nodes = (
"40 0 LINE",
"265 0 LINE",
"265 513 LINE SMOOTH",
"265 563 OFFCURVE",
"285 585 OFFCURVE",
"329 585 CURVE SMOOTH",
"370 585 OFFCURVE",
"388 563 OFFCURVE",
"388 513 CURVE SMOOTH",
"388 463 OFFCURVE",
"365 441 OFFCURVE",
"312 441 CURVE",
"312 284 LINE",
"335 284 LINE SMOOTH",
"402 284 OFFCURVE",
"432 265 OFFCURVE",
"432 223 CURVE SMOOTH",
"432 178 OFFCURVE",
"402 158 OFFCURVE",
"335 158 CURVE SMOOTH",
"312 158 LINE",
"312 0 LINE",
"359 0 LINE SMOOTH",
"536 0 OFFCURVE",
"650 85 OFFCURVE",
"650 217 CURVE SMOOTH",
"650 293 OFFCURVE",
"602 359 OFFCURVE",
"528 385 CURVE",
"575 422 OFFCURVE",
"606 485 OFFCURVE",
"606 547 CURVE SMOOTH",
"606 671 OFFCURVE",
"496 752 OFFCURVE",
"325 752 CURVE SMOOTH",
"152 752 OFFCURVE",
"40 652 OFFCURVE",
"40 496 CURVE SMOOTH"
);
}
);
width = 670;
},
{
layerId = UUID0;
paths = (
{
closed = 1;
nodes = (
"110 0 LINE",
"130 0 LINE",
"130 496 LINE SMOOTH",
"130 633 OFFCURVE",
"209 722 OFFCURVE",
"331 722 CURVE SMOOTH",
"441 722 OFFCURVE",
"512 658 OFFCURVE",
"512 560 CURVE SMOOTH",
"512 454 OFFCURVE",
"435 385 OFFCURVE",
"316 385 CURVE",
"316 365 LINE",
"321 365 LINE",
"459 365 OFFCURVE",
"548 299 OFFCURVE",
"548 197 CURVE SMOOTH",
"548 90 OFFCURVE",
"462 20 OFFCURVE",
"330 20 CURVE SMOOTH",
"275 20 LINE",
"275 0 LINE",
"330 0 LINE SMOOTH",
"475 0 OFFCURVE",
"568 77 OFFCURVE",
"568 197 CURVE SMOOTH",
"568 293 OFFCURVE",
"495 364 OFFCURVE",
"383 377 CURVE",
"473 394 OFFCURVE",
"532 466 OFFCURVE",
"532 560 CURVE SMOOTH",
"532 671 OFFCURVE",
"453 742 OFFCURVE",
"331 742 CURVE SMOOTH",
"197 742 OFFCURVE",
"110 645 OFFCURVE",
"110 496 CURVE SMOOTH"
);
}
);
width = 640;
}
);
leftKerningGroup = f;
leftMetricsKey = U;
rightKerningGroup = B;
rightMetricsKey = B;
unicode = 00DF;
},
{
glyphname = t;
layers = (
{
anchors = (
{
name = bottom;
position = "{235, 0}";
},
{
name = center;
position = "{188, 307}";
},
{
name = top;
position = "{136, 630}";
},
{
name = topright;
position = "{242, 742}";
}
);
layerId = UUID0;
paths = (
{
closed = 1;
nodes = (
"146 630 LINE",
"126 630 LINE",
"126 142 LINE SMOOTH",
"126 48 OFFCURVE",
"164 -1 OFFCURVE",
"236 0 CURVE SMOOTH",
"273 1 OFFCURVE",
"308 14 OFFCURVE",
"338 37 CURVE",
"326 53 LINE",
"300 32 OFFCURVE",
"268 21 OFFCURVE",
"236 20 CURVE SMOOTH",
"177 19 OFFCURVE",
"146 62 OFFCURVE",
"146 142 CURVE SMOOTH"
);
},
{
closed = 1;
nodes = (
"50 487 LINE",
"328 487 LINE",
"328 507 LINE",
"50 507 LINE"
);
}
);
width = 362;
},
{
anchors = (
{
name = bottom;
position = "{282, 0}";
},
{
name = center;
position = "{222, 286}";
},
{
name = top;
position = "{195, 670}";
},
{
name = topright;
position = "{357, 742}";
}
);
layerId = "5DA6E103-6A94-47F2-987D-4952DB8EA68E";
paths = (
{
closed = 1;
nodes = (
"307 670 LINE",
"83 670 LINE",
"83 176 LINE",
"83 62 OFFCURVE",
"164 -11 OFFCURVE",
"289 -10 CURVE",
"347 -10 OFFCURVE",
"409 3 OFFCURVE",
"445 24 CURVE",
"407 178 LINE",
"386 170 OFFCURVE",
"364 164 OFFCURVE",
"351 164 CURVE",
"324 163 OFFCURVE",
"307 181 OFFCURVE",
"307 210 CURVE"
);
},
{
closed = 1;
nodes = (
"8 375 LINE",
"435 375 LINE",
"435 517 LINE",
"8 517 LINE"
);
}
);
width = 460;
}
);
leftKerningGroup = u;
rightKerningGroup = t;
unicode = 0074;
},
